M48
; DRILL file KiCad 10.0.3+dfsg-1 date 2026-06-17T23:52:25
; FORMAT={-:-/ absolute / metric / decimal}
; #@! TF.CreationDate,2026-06-17T23:52:25+03:00
; #@! TF.GenerationSoftware,Kicad,Pcbnew,10.0.3+dfsg-1
; #@! TF.FileFunction,Plated,1,2,PTH
FMAT,2
METRIC
; #@! TA.AperFunction,Plated,PTH,ComponentDrill
T1C0.700
; #@! TA.AperFunction,Plated,PTH,ComponentDrill
T2C0.750
; #@! TA.AperFunction,Plated,PTH,ComponentDrill
T3C0.800
; #@! TA.AperFunction,Plated,PTH,ComponentDrill
T4C0.900
; #@! TA.AperFunction,Plated,PTH,ComponentDrill
T5C1.000
; #@! TA.AperFunction,Plated,PTH,ComponentDrill
T6C1.100
%
G90
G05
T1
X100.94Y-75.75
X108.56Y-75.75
X123.19Y-72.0
X130.81Y-72.0
X138.69Y-72.0
X146.31Y-72.0
X152.69Y-72.0
X155.19Y-81.0
X160.31Y-72.0
X162.81Y-81.0
T2
X164.0Y-91.5
X165.27Y-91.5
X166.54Y-91.5
T3
X109.5Y-123.75
X109.5Y-126.25
X116.5Y-123.75
X116.5Y-126.25
X129.76Y-77.76
X129.76Y-80.3
X129.76Y-82.84
X129.76Y-85.38
X129.76Y-87.92
X129.76Y-90.46
X129.76Y-93.0
X129.76Y-95.54
X129.76Y-98.08
X129.76Y-100.62
X129.76Y-103.16
X129.76Y-105.7
X129.76Y-108.24
X129.76Y-110.78
X129.76Y-113.32
X129.76Y-115.86
X129.76Y-118.4
X129.76Y-120.94
X129.76Y-123.48
X129.76Y-126.02
X145.0Y-77.76
X145.0Y-80.3
X145.0Y-82.84
X145.0Y-85.38
X145.0Y-87.92
X145.0Y-90.46
X145.0Y-93.0
X145.0Y-95.54
X145.0Y-98.08
X145.0Y-100.62
X145.0Y-103.16
X145.0Y-105.7
X145.0Y-108.24
X145.0Y-110.78
X145.0Y-113.32
X145.0Y-115.86
X145.0Y-118.4
X145.0Y-120.94
X145.0Y-123.48
X145.0Y-126.02
T4
X127.0Y-63.235
X127.0Y-65.775
X142.5Y-63.0
X142.5Y-65.54
X156.5Y-62.735
X156.5Y-65.275
T5
X161.0Y-119.5
X161.0Y-122.04
X180.0Y-79.5
X180.0Y-82.04
T6
X100.75Y-84.25
X100.75Y-88.75
X100.75Y-95.75
X100.75Y-100.25
X101.0Y-63.0
X101.0Y-67.5
X101.0Y-108.0
X101.0Y-112.5
X107.25Y-84.25
X107.25Y-88.75
X107.25Y-95.75
X107.25Y-100.25
X107.5Y-63.0
X107.5Y-67.5
X107.5Y-108.0
X107.5Y-112.5
X160.92Y-102.0
X171.08Y-102.0
M30
