%TF.GenerationSoftware,KiCad,Pcbnew,10.0.3+dfsg-1*%
%TF.CreationDate,2026-06-17T23:51:21+03:00*%
%TF.ProjectId,PWM_motor_speed_controller,50574d5f-6d6f-4746-9f72-5f7370656564,rev?*%
%TF.SameCoordinates,Original*%
%TF.FileFunction,Soldermask,Top*%
%TF.FilePolarity,Negative*%
%FSLAX46Y46*%
G04 Gerber Fmt 4.6, Leading zero omitted, Abs format (unit mm)*
G04 Created by KiCad (PCBNEW 10.0.3+dfsg-1) date 2026-06-17 23:51:21*
%MOMM*%
%LPD*%
G01*
G04 APERTURE LIST*
G04 APERTURE END LIST*
G36*
X109775770Y-125340907D02*
G01*
X109947827Y-125412175D01*
X110102674Y-125515640D01*
X110234360Y-125647326D01*
X110337825Y-125802173D01*
X110409093Y-125974230D01*
X110445425Y-126156884D01*
X110445425Y-126343116D01*
X110409093Y-126525770D01*
X110337825Y-126697827D01*
X110234360Y-126852674D01*
X110102674Y-126984360D01*
X109947827Y-127087825D01*
X109775770Y-127159093D01*
X109593116Y-127195425D01*
X109406884Y-127195425D01*
X109224230Y-127159093D01*
X109052173Y-127087825D01*
X108897326Y-126984360D01*
X108765640Y-126852674D01*
X108662175Y-126697827D01*
X108590907Y-126525770D01*
X108554575Y-126343116D01*
X108554575Y-126156884D01*
X108590907Y-125974230D01*
X108662175Y-125802173D01*
X108765640Y-125647326D01*
X108897326Y-125515640D01*
X109052173Y-125412175D01*
X109224230Y-125340907D01*
X109406884Y-125304575D01*
X109593116Y-125304575D01*
X109775770Y-125340907D01*
G37*
G36*
X116775770Y-125340907D02*
G01*
X116947827Y-125412175D01*
X117102674Y-125515640D01*
X117234360Y-125647326D01*
X117337825Y-125802173D01*
X117409093Y-125974230D01*
X117445425Y-126156884D01*
X117445425Y-126343116D01*
X117409093Y-126525770D01*
X117337825Y-126697827D01*
X117234360Y-126852674D01*
X117102674Y-126984360D01*
X116947827Y-127087825D01*
X116775770Y-127159093D01*
X116593116Y-127195425D01*
X116406884Y-127195425D01*
X116224230Y-127159093D01*
X116052173Y-127087825D01*
X115897326Y-126984360D01*
X115765640Y-126852674D01*
X115662175Y-126697827D01*
X115590907Y-126525770D01*
X115554575Y-126343116D01*
X115554575Y-126156884D01*
X115590907Y-125974230D01*
X115662175Y-125802173D01*
X115765640Y-125647326D01*
X115897326Y-125515640D01*
X116052173Y-125412175D01*
X116224230Y-125340907D01*
X116406884Y-125304575D01*
X116593116Y-125304575D01*
X116775770Y-125340907D01*
G37*
G36*
X130035770Y-125110907D02*
G01*
X130207827Y-125182175D01*
X130362674Y-125285640D01*
X130494360Y-125417326D01*
X130597825Y-125572173D01*
X130669093Y-125744230D01*
X130705425Y-125926884D01*
X130705425Y-126113116D01*
X130669093Y-126295770D01*
X130597825Y-126467827D01*
X130494360Y-126622674D01*
X130362674Y-126754360D01*
X130207827Y-126857825D01*
X130035770Y-126929093D01*
X129853116Y-126965425D01*
X129666884Y-126965425D01*
X129484230Y-126929093D01*
X129312173Y-126857825D01*
X129157326Y-126754360D01*
X129025640Y-126622674D01*
X128922175Y-126467827D01*
X128850907Y-126295770D01*
X128814575Y-126113116D01*
X128814575Y-125926884D01*
X128850907Y-125744230D01*
X128922175Y-125572173D01*
X129025640Y-125417326D01*
X129157326Y-125285640D01*
X129312173Y-125182175D01*
X129484230Y-125110907D01*
X129666884Y-125074575D01*
X129853116Y-125074575D01*
X130035770Y-125110907D01*
G37*
G36*
X145275770Y-125110907D02*
G01*
X145447827Y-125182175D01*
X145602674Y-125285640D01*
X145734360Y-125417326D01*
X145837825Y-125572173D01*
X145909093Y-125744230D01*
X145945425Y-125926884D01*
X145945425Y-126113116D01*
X145909093Y-126295770D01*
X145837825Y-126467827D01*
X145734360Y-126622674D01*
X145602674Y-126754360D01*
X145447827Y-126857825D01*
X145275770Y-126929093D01*
X145093116Y-126965425D01*
X144906884Y-126965425D01*
X144724230Y-126929093D01*
X144552173Y-126857825D01*
X144397326Y-126754360D01*
X144265640Y-126622674D01*
X144162175Y-126467827D01*
X144090907Y-126295770D01*
X144054575Y-126113116D01*
X144054575Y-125926884D01*
X144090907Y-125744230D01*
X144162175Y-125572173D01*
X144265640Y-125417326D01*
X144397326Y-125285640D01*
X144552173Y-125182175D01*
X144724230Y-125110907D01*
X144906884Y-125074575D01*
X145093116Y-125074575D01*
X145275770Y-125110907D01*
G37*
G36*
X116775770Y-122840907D02*
G01*
X116947827Y-122912175D01*
X117102674Y-123015640D01*
X117234360Y-123147326D01*
X117337825Y-123302173D01*
X117409093Y-123474230D01*
X117445425Y-123656884D01*
X117445425Y-123843116D01*
X117409093Y-124025770D01*
X117337825Y-124197827D01*
X117234360Y-124352674D01*
X117102674Y-124484360D01*
X116947827Y-124587825D01*
X116775770Y-124659093D01*
X116593116Y-124695425D01*
X116406884Y-124695425D01*
X116224230Y-124659093D01*
X116052173Y-124587825D01*
X115897326Y-124484360D01*
X115765640Y-124352674D01*
X115662175Y-124197827D01*
X115590907Y-124025770D01*
X115554575Y-123843116D01*
X115554575Y-123656884D01*
X115590907Y-123474230D01*
X115662175Y-123302173D01*
X115765640Y-123147326D01*
X115897326Y-123015640D01*
X116052173Y-122912175D01*
X116224230Y-122840907D01*
X116406884Y-122804575D01*
X116593116Y-122804575D01*
X116775770Y-122840907D01*
G37*
G36*
X109732228Y-122984448D02*
G01*
X109877117Y-123044463D01*
X110007515Y-123131592D01*
X110118408Y-123242485D01*
X110205537Y-123372883D01*
X110265552Y-123517772D01*
X110296148Y-123671586D01*
X110296148Y-123828414D01*
X110265552Y-123982228D01*
X110205537Y-124127117D01*
X110118408Y-124257515D01*
X110007515Y-124368408D01*
X109877117Y-124455537D01*
X109732228Y-124515552D01*
X109578414Y-124546148D01*
X109421586Y-124546148D01*
X109267772Y-124515552D01*
X109122883Y-124455537D01*
X108992485Y-124368408D01*
X108881592Y-124257515D01*
X108794463Y-124127117D01*
X108734448Y-123982228D01*
X108703852Y-123828414D01*
X108703852Y-123671586D01*
X108734448Y-123517772D01*
X108794463Y-123372883D01*
X108881592Y-123242485D01*
X108992485Y-123131592D01*
X109122883Y-123044463D01*
X109267772Y-122984448D01*
X109421586Y-122953852D01*
X109578414Y-122953852D01*
X109732228Y-122984448D01*
G37*
G36*
X130035770Y-122570907D02*
G01*
X130207827Y-122642175D01*
X130362674Y-122745640D01*
X130494360Y-122877326D01*
X130597825Y-123032173D01*
X130669093Y-123204230D01*
X130705425Y-123386884D01*
X130705425Y-123573116D01*
X130669093Y-123755770D01*
X130597825Y-123927827D01*
X130494360Y-124082674D01*
X130362674Y-124214360D01*
X130207827Y-124317825D01*
X130035770Y-124389093D01*
X129853116Y-124425425D01*
X129666884Y-124425425D01*
X129484230Y-124389093D01*
X129312173Y-124317825D01*
X129157326Y-124214360D01*
X129025640Y-124082674D01*
X128922175Y-123927827D01*
X128850907Y-123755770D01*
X128814575Y-123573116D01*
X128814575Y-123386884D01*
X128850907Y-123204230D01*
X128922175Y-123032173D01*
X129025640Y-122877326D01*
X129157326Y-122745640D01*
X129312173Y-122642175D01*
X129484230Y-122570907D01*
X129666884Y-122534575D01*
X129853116Y-122534575D01*
X130035770Y-122570907D01*
G37*
G36*
X145275770Y-122570907D02*
G01*
X145447827Y-122642175D01*
X145602674Y-122745640D01*
X145734360Y-122877326D01*
X145837825Y-123032173D01*
X145909093Y-123204230D01*
X145945425Y-123386884D01*
X145945425Y-123573116D01*
X145909093Y-123755770D01*
X145837825Y-123927827D01*
X145734360Y-124082674D01*
X145602674Y-124214360D01*
X145447827Y-124317825D01*
X145275770Y-124389093D01*
X145093116Y-124425425D01*
X144906884Y-124425425D01*
X144724230Y-124389093D01*
X144552173Y-124317825D01*
X144397326Y-124214360D01*
X144265640Y-124082674D01*
X144162175Y-123927827D01*
X144090907Y-123755770D01*
X144054575Y-123573116D01*
X144054575Y-123386884D01*
X144090907Y-123204230D01*
X144162175Y-123032173D01*
X144265640Y-122877326D01*
X144397326Y-122745640D01*
X144552173Y-122642175D01*
X144724230Y-122570907D01*
X144906884Y-122534575D01*
X145093116Y-122534575D01*
X145275770Y-122570907D01*
G37*
G36*
X161087916Y-121044815D02*
G01*
X161098017Y-121044815D01*
X161137483Y-121052665D01*
X161233395Y-121067856D01*
X161264248Y-121077881D01*
X161290285Y-121083060D01*
X161327025Y-121098278D01*
X161382595Y-121116334D01*
X161434653Y-121142859D01*
X161471397Y-121158079D01*
X161493471Y-121172829D01*
X161522373Y-121187555D01*
X161600949Y-121244643D01*
X161634393Y-121266990D01*
X161641529Y-121274126D01*
X161649300Y-121279772D01*
X161760227Y-121390699D01*
X161765872Y-121398469D01*
X161773010Y-121405607D01*
X161795359Y-121439054D01*
X161852444Y-121517626D01*
X161867168Y-121546525D01*
X161881921Y-121568603D01*
X161897142Y-121605351D01*
X161923665Y-121657404D01*
X161941718Y-121712967D01*
X161956940Y-121749715D01*
X161962120Y-121775756D01*
X161972143Y-121806604D01*
X161987332Y-121902508D01*
X161995185Y-121941983D01*
X161995185Y-121952084D01*
X161996686Y-121961561D01*
X161996686Y-122118438D01*
X161995185Y-122127914D01*
X161995185Y-122138017D01*
X161987332Y-122177495D01*
X161972143Y-122273395D01*
X161962120Y-122304240D01*
X161956940Y-122330285D01*
X161941717Y-122367036D01*
X161923665Y-122422595D01*
X161897144Y-122474643D01*
X161881921Y-122511397D01*
X161867166Y-122533478D01*
X161852444Y-122562373D01*
X161795367Y-122640932D01*
X161773010Y-122674393D01*
X161765870Y-122681532D01*
X161760227Y-122689300D01*
X161649300Y-122800227D01*
X161641532Y-122805870D01*
X161634393Y-122813010D01*
X161600932Y-122835367D01*
X161522373Y-122892444D01*
X161493478Y-122907166D01*
X161471397Y-122921921D01*
X161434643Y-122937144D01*
X161382595Y-122963665D01*
X161327036Y-122981717D01*
X161290285Y-122996940D01*
X161264240Y-123002120D01*
X161233395Y-123012143D01*
X161137493Y-123027332D01*
X161098017Y-123035185D01*
X161087916Y-123035185D01*
X161078439Y-123036686D01*
X160921561Y-123036686D01*
X160912084Y-123035185D01*
X160901983Y-123035185D01*
X160862508Y-123027332D01*
X160766604Y-123012143D01*
X160735756Y-123002120D01*
X160709715Y-122996940D01*
X160672967Y-122981718D01*
X160617404Y-122963665D01*
X160565351Y-122937142D01*
X160528603Y-122921921D01*
X160506525Y-122907168D01*
X160477626Y-122892444D01*
X160399054Y-122835359D01*
X160365607Y-122813010D01*
X160358469Y-122805872D01*
X160350699Y-122800227D01*
X160239772Y-122689300D01*
X160234126Y-122681529D01*
X160226990Y-122674393D01*
X160204643Y-122640949D01*
X160147555Y-122562373D01*
X160132829Y-122533471D01*
X160118079Y-122511397D01*
X160102859Y-122474653D01*
X160076334Y-122422595D01*
X160058278Y-122367025D01*
X160043060Y-122330285D01*
X160037881Y-122304248D01*
X160027856Y-122273395D01*
X160012666Y-122177486D01*
X160004815Y-122138017D01*
X160004815Y-122127915D01*
X160003314Y-122118438D01*
X160003314Y-121961561D01*
X160004815Y-121952083D01*
X160004815Y-121941983D01*
X160012665Y-121902517D01*
X160027856Y-121806604D01*
X160037881Y-121775748D01*
X160043060Y-121749715D01*
X160058276Y-121712978D01*
X160076334Y-121657404D01*
X160102861Y-121605340D01*
X160118079Y-121568603D01*
X160132826Y-121546531D01*
X160147555Y-121517626D01*
X160204652Y-121439037D01*
X160226990Y-121405607D01*
X160234123Y-121398473D01*
X160239772Y-121390699D01*
X160350699Y-121279772D01*
X160358473Y-121274123D01*
X160365607Y-121266990D01*
X160399037Y-121244652D01*
X160477626Y-121187555D01*
X160506531Y-121172826D01*
X160528603Y-121158079D01*
X160565340Y-121142861D01*
X160617404Y-121116334D01*
X160672978Y-121098276D01*
X160709715Y-121083060D01*
X160735748Y-121077881D01*
X160766604Y-121067856D01*
X160862517Y-121052665D01*
X160901983Y-121044815D01*
X160912084Y-121044815D01*
X160921561Y-121043314D01*
X161078439Y-121043314D01*
X161087916Y-121044815D01*
G37*
G36*
X130035770Y-120030907D02*
G01*
X130207827Y-120102175D01*
X130362674Y-120205640D01*
X130494360Y-120337326D01*
X130597825Y-120492173D01*
X130669093Y-120664230D01*
X130705425Y-120846884D01*
X130705425Y-121033116D01*
X130669093Y-121215770D01*
X130597825Y-121387827D01*
X130494360Y-121542674D01*
X130362674Y-121674360D01*
X130207827Y-121777825D01*
X130035770Y-121849093D01*
X129853116Y-121885425D01*
X129666884Y-121885425D01*
X129484230Y-121849093D01*
X129312173Y-121777825D01*
X129157326Y-121674360D01*
X129025640Y-121542674D01*
X128922175Y-121387827D01*
X128850907Y-121215770D01*
X128814575Y-121033116D01*
X128814575Y-120846884D01*
X128850907Y-120664230D01*
X128922175Y-120492173D01*
X129025640Y-120337326D01*
X129157326Y-120205640D01*
X129312173Y-120102175D01*
X129484230Y-120030907D01*
X129666884Y-119994575D01*
X129853116Y-119994575D01*
X130035770Y-120030907D01*
G37*
G36*
X145275770Y-120030907D02*
G01*
X145447827Y-120102175D01*
X145602674Y-120205640D01*
X145734360Y-120337326D01*
X145837825Y-120492173D01*
X145909093Y-120664230D01*
X145945425Y-120846884D01*
X145945425Y-121033116D01*
X145909093Y-121215770D01*
X145837825Y-121387827D01*
X145734360Y-121542674D01*
X145602674Y-121674360D01*
X145447827Y-121777825D01*
X145275770Y-121849093D01*
X145093116Y-121885425D01*
X144906884Y-121885425D01*
X144724230Y-121849093D01*
X144552173Y-121777825D01*
X144397326Y-121674360D01*
X144265640Y-121542674D01*
X144162175Y-121387827D01*
X144090907Y-121215770D01*
X144054575Y-121033116D01*
X144054575Y-120846884D01*
X144090907Y-120664230D01*
X144162175Y-120492173D01*
X144265640Y-120337326D01*
X144397326Y-120205640D01*
X144552173Y-120102175D01*
X144724230Y-120030907D01*
X144906884Y-119994575D01*
X145093116Y-119994575D01*
X145275770Y-120030907D01*
G37*
G36*
X161907403Y-118511418D02*
G01*
X161956066Y-118543934D01*
X161988582Y-118592597D01*
X162000000Y-118650000D01*
X162000000Y-120350000D01*
X161988582Y-120407403D01*
X161956066Y-120456066D01*
X161907403Y-120488582D01*
X161850000Y-120500000D01*
X160150000Y-120500000D01*
X160092597Y-120488582D01*
X160043934Y-120456066D01*
X160011418Y-120407403D01*
X160000000Y-120350000D01*
X160000000Y-118650000D01*
X160011418Y-118592597D01*
X160043934Y-118543934D01*
X160092597Y-118511418D01*
X160150000Y-118500000D01*
X161850000Y-118500000D01*
X161907403Y-118511418D01*
G37*
G36*
X130035770Y-117490907D02*
G01*
X130207827Y-117562175D01*
X130362674Y-117665640D01*
X130494360Y-117797326D01*
X130597825Y-117952173D01*
X130669093Y-118124230D01*
X130705425Y-118306884D01*
X130705425Y-118493116D01*
X130669093Y-118675770D01*
X130597825Y-118847827D01*
X130494360Y-119002674D01*
X130362674Y-119134360D01*
X130207827Y-119237825D01*
X130035770Y-119309093D01*
X129853116Y-119345425D01*
X129666884Y-119345425D01*
X129484230Y-119309093D01*
X129312173Y-119237825D01*
X129157326Y-119134360D01*
X129025640Y-119002674D01*
X128922175Y-118847827D01*
X128850907Y-118675770D01*
X128814575Y-118493116D01*
X128814575Y-118306884D01*
X128850907Y-118124230D01*
X128922175Y-117952173D01*
X129025640Y-117797326D01*
X129157326Y-117665640D01*
X129312173Y-117562175D01*
X129484230Y-117490907D01*
X129666884Y-117454575D01*
X129853116Y-117454575D01*
X130035770Y-117490907D01*
G37*
G36*
X145275770Y-117490907D02*
G01*
X145447827Y-117562175D01*
X145602674Y-117665640D01*
X145734360Y-117797326D01*
X145837825Y-117952173D01*
X145909093Y-118124230D01*
X145945425Y-118306884D01*
X145945425Y-118493116D01*
X145909093Y-118675770D01*
X145837825Y-118847827D01*
X145734360Y-119002674D01*
X145602674Y-119134360D01*
X145447827Y-119237825D01*
X145275770Y-119309093D01*
X145093116Y-119345425D01*
X144906884Y-119345425D01*
X144724230Y-119309093D01*
X144552173Y-119237825D01*
X144397326Y-119134360D01*
X144265640Y-119002674D01*
X144162175Y-118847827D01*
X144090907Y-118675770D01*
X144054575Y-118493116D01*
X144054575Y-118306884D01*
X144090907Y-118124230D01*
X144162175Y-117952173D01*
X144265640Y-117797326D01*
X144397326Y-117665640D01*
X144552173Y-117562175D01*
X144724230Y-117490907D01*
X144906884Y-117454575D01*
X145093116Y-117454575D01*
X145275770Y-117490907D01*
G37*
G36*
X130035770Y-114950907D02*
G01*
X130207827Y-115022175D01*
X130362674Y-115125640D01*
X130494360Y-115257326D01*
X130597825Y-115412173D01*
X130669093Y-115584230D01*
X130705425Y-115766884D01*
X130705425Y-115953116D01*
X130669093Y-116135770D01*
X130597825Y-116307827D01*
X130494360Y-116462674D01*
X130362674Y-116594360D01*
X130207827Y-116697825D01*
X130035770Y-116769093D01*
X129853116Y-116805425D01*
X129666884Y-116805425D01*
X129484230Y-116769093D01*
X129312173Y-116697825D01*
X129157326Y-116594360D01*
X129025640Y-116462674D01*
X128922175Y-116307827D01*
X128850907Y-116135770D01*
X128814575Y-115953116D01*
X128814575Y-115766884D01*
X128850907Y-115584230D01*
X128922175Y-115412173D01*
X129025640Y-115257326D01*
X129157326Y-115125640D01*
X129312173Y-115022175D01*
X129484230Y-114950907D01*
X129666884Y-114914575D01*
X129853116Y-114914575D01*
X130035770Y-114950907D01*
G37*
G36*
X145275770Y-114950907D02*
G01*
X145447827Y-115022175D01*
X145602674Y-115125640D01*
X145734360Y-115257326D01*
X145837825Y-115412173D01*
X145909093Y-115584230D01*
X145945425Y-115766884D01*
X145945425Y-115953116D01*
X145909093Y-116135770D01*
X145837825Y-116307827D01*
X145734360Y-116462674D01*
X145602674Y-116594360D01*
X145447827Y-116697825D01*
X145275770Y-116769093D01*
X145093116Y-116805425D01*
X144906884Y-116805425D01*
X144724230Y-116769093D01*
X144552173Y-116697825D01*
X144397326Y-116594360D01*
X144265640Y-116462674D01*
X144162175Y-116307827D01*
X144090907Y-116135770D01*
X144054575Y-115953116D01*
X144054575Y-115766884D01*
X144090907Y-115584230D01*
X144162175Y-115412173D01*
X144265640Y-115257326D01*
X144397326Y-115125640D01*
X144552173Y-115022175D01*
X144724230Y-114950907D01*
X144906884Y-114914575D01*
X145093116Y-114914575D01*
X145275770Y-114950907D01*
G37*
G36*
X130035770Y-112410907D02*
G01*
X130207827Y-112482175D01*
X130362674Y-112585640D01*
X130494360Y-112717326D01*
X130597825Y-112872173D01*
X130669093Y-113044230D01*
X130705425Y-113226884D01*
X130705425Y-113413116D01*
X130669093Y-113595770D01*
X130597825Y-113767827D01*
X130494360Y-113922674D01*
X130362674Y-114054360D01*
X130207827Y-114157825D01*
X130035770Y-114229093D01*
X129853116Y-114265425D01*
X129666884Y-114265425D01*
X129484230Y-114229093D01*
X129312173Y-114157825D01*
X129157326Y-114054360D01*
X129025640Y-113922674D01*
X128922175Y-113767827D01*
X128850907Y-113595770D01*
X128814575Y-113413116D01*
X128814575Y-113226884D01*
X128850907Y-113044230D01*
X128922175Y-112872173D01*
X129025640Y-112717326D01*
X129157326Y-112585640D01*
X129312173Y-112482175D01*
X129484230Y-112410907D01*
X129666884Y-112374575D01*
X129853116Y-112374575D01*
X130035770Y-112410907D01*
G37*
G36*
X145275770Y-112410907D02*
G01*
X145447827Y-112482175D01*
X145602674Y-112585640D01*
X145734360Y-112717326D01*
X145837825Y-112872173D01*
X145909093Y-113044230D01*
X145945425Y-113226884D01*
X145945425Y-113413116D01*
X145909093Y-113595770D01*
X145837825Y-113767827D01*
X145734360Y-113922674D01*
X145602674Y-114054360D01*
X145447827Y-114157825D01*
X145275770Y-114229093D01*
X145093116Y-114265425D01*
X144906884Y-114265425D01*
X144724230Y-114229093D01*
X144552173Y-114157825D01*
X144397326Y-114054360D01*
X144265640Y-113922674D01*
X144162175Y-113767827D01*
X144090907Y-113595770D01*
X144054575Y-113413116D01*
X144054575Y-113226884D01*
X144090907Y-113044230D01*
X144162175Y-112872173D01*
X144265640Y-112717326D01*
X144397326Y-112585640D01*
X144552173Y-112482175D01*
X144724230Y-112410907D01*
X144906884Y-112374575D01*
X145093116Y-112374575D01*
X145275770Y-112410907D01*
G37*
G36*
X101268462Y-111381775D02*
G01*
X101440086Y-111437539D01*
X101600873Y-111519464D01*
X101746865Y-111625533D01*
X101874467Y-111753135D01*
X101980536Y-111899127D01*
X102062461Y-112059914D01*
X102118225Y-112231538D01*
X102146455Y-112409772D01*
X102146455Y-112590228D01*
X102118225Y-112768462D01*
X102062461Y-112940086D01*
X101980536Y-113100873D01*
X101874467Y-113246865D01*
X101746865Y-113374467D01*
X101600873Y-113480536D01*
X101440086Y-113562461D01*
X101268462Y-113618225D01*
X101090228Y-113646455D01*
X100909772Y-113646455D01*
X100731538Y-113618225D01*
X100559914Y-113562461D01*
X100399127Y-113480536D01*
X100253135Y-113374467D01*
X100125533Y-113246865D01*
X100019464Y-113100873D01*
X99937539Y-112940086D01*
X99881775Y-112768462D01*
X99853545Y-112590228D01*
X99853545Y-112409772D01*
X99881775Y-112231538D01*
X99937539Y-112059914D01*
X100019464Y-111899127D01*
X100125533Y-111753135D01*
X100253135Y-111625533D01*
X100399127Y-111519464D01*
X100559914Y-111437539D01*
X100731538Y-111381775D01*
X100909772Y-111353545D01*
X101090228Y-111353545D01*
X101268462Y-111381775D01*
G37*
G36*
X107768462Y-111381775D02*
G01*
X107940086Y-111437539D01*
X108100873Y-111519464D01*
X108246865Y-111625533D01*
X108374467Y-111753135D01*
X108480536Y-111899127D01*
X108562461Y-112059914D01*
X108618225Y-112231538D01*
X108646455Y-112409772D01*
X108646455Y-112590228D01*
X108618225Y-112768462D01*
X108562461Y-112940086D01*
X108480536Y-113100873D01*
X108374467Y-113246865D01*
X108246865Y-113374467D01*
X108100873Y-113480536D01*
X107940086Y-113562461D01*
X107768462Y-113618225D01*
X107590228Y-113646455D01*
X107409772Y-113646455D01*
X107231538Y-113618225D01*
X107059914Y-113562461D01*
X106899127Y-113480536D01*
X106753135Y-113374467D01*
X106625533Y-113246865D01*
X106519464Y-113100873D01*
X106437539Y-112940086D01*
X106381775Y-112768462D01*
X106353545Y-112590228D01*
X106353545Y-112409772D01*
X106381775Y-112231538D01*
X106437539Y-112059914D01*
X106519464Y-111899127D01*
X106625533Y-111753135D01*
X106753135Y-111625533D01*
X106899127Y-111519464D01*
X107059914Y-111437539D01*
X107231538Y-111381775D01*
X107409772Y-111353545D01*
X107590228Y-111353545D01*
X107768462Y-111381775D01*
G37*
G36*
X130035770Y-109870907D02*
G01*
X130207827Y-109942175D01*
X130362674Y-110045640D01*
X130494360Y-110177326D01*
X130597825Y-110332173D01*
X130669093Y-110504230D01*
X130705425Y-110686884D01*
X130705425Y-110873116D01*
X130669093Y-111055770D01*
X130597825Y-111227827D01*
X130494360Y-111382674D01*
X130362674Y-111514360D01*
X130207827Y-111617825D01*
X130035770Y-111689093D01*
X129853116Y-111725425D01*
X129666884Y-111725425D01*
X129484230Y-111689093D01*
X129312173Y-111617825D01*
X129157326Y-111514360D01*
X129025640Y-111382674D01*
X128922175Y-111227827D01*
X128850907Y-111055770D01*
X128814575Y-110873116D01*
X128814575Y-110686884D01*
X128850907Y-110504230D01*
X128922175Y-110332173D01*
X129025640Y-110177326D01*
X129157326Y-110045640D01*
X129312173Y-109942175D01*
X129484230Y-109870907D01*
X129666884Y-109834575D01*
X129853116Y-109834575D01*
X130035770Y-109870907D01*
G37*
G36*
X145275770Y-109870907D02*
G01*
X145447827Y-109942175D01*
X145602674Y-110045640D01*
X145734360Y-110177326D01*
X145837825Y-110332173D01*
X145909093Y-110504230D01*
X145945425Y-110686884D01*
X145945425Y-110873116D01*
X145909093Y-111055770D01*
X145837825Y-111227827D01*
X145734360Y-111382674D01*
X145602674Y-111514360D01*
X145447827Y-111617825D01*
X145275770Y-111689093D01*
X145093116Y-111725425D01*
X144906884Y-111725425D01*
X144724230Y-111689093D01*
X144552173Y-111617825D01*
X144397326Y-111514360D01*
X144265640Y-111382674D01*
X144162175Y-111227827D01*
X144090907Y-111055770D01*
X144054575Y-110873116D01*
X144054575Y-110686884D01*
X144090907Y-110504230D01*
X144162175Y-110332173D01*
X144265640Y-110177326D01*
X144397326Y-110045640D01*
X144552173Y-109942175D01*
X144724230Y-109870907D01*
X144906884Y-109834575D01*
X145093116Y-109834575D01*
X145275770Y-109870907D01*
G37*
G36*
X130035770Y-107330907D02*
G01*
X130207827Y-107402175D01*
X130362674Y-107505640D01*
X130494360Y-107637326D01*
X130597825Y-107792173D01*
X130669093Y-107964230D01*
X130705425Y-108146884D01*
X130705425Y-108333116D01*
X130669093Y-108515770D01*
X130597825Y-108687827D01*
X130494360Y-108842674D01*
X130362674Y-108974360D01*
X130207827Y-109077825D01*
X130035770Y-109149093D01*
X129853116Y-109185425D01*
X129666884Y-109185425D01*
X129484230Y-109149093D01*
X129312173Y-109077825D01*
X129157326Y-108974360D01*
X129025640Y-108842674D01*
X128922175Y-108687827D01*
X128850907Y-108515770D01*
X128814575Y-108333116D01*
X128814575Y-108146884D01*
X128850907Y-107964230D01*
X128922175Y-107792173D01*
X129025640Y-107637326D01*
X129157326Y-107505640D01*
X129312173Y-107402175D01*
X129484230Y-107330907D01*
X129666884Y-107294575D01*
X129853116Y-107294575D01*
X130035770Y-107330907D01*
G37*
G36*
X145275770Y-107330907D02*
G01*
X145447827Y-107402175D01*
X145602674Y-107505640D01*
X145734360Y-107637326D01*
X145837825Y-107792173D01*
X145909093Y-107964230D01*
X145945425Y-108146884D01*
X145945425Y-108333116D01*
X145909093Y-108515770D01*
X145837825Y-108687827D01*
X145734360Y-108842674D01*
X145602674Y-108974360D01*
X145447827Y-109077825D01*
X145275770Y-109149093D01*
X145093116Y-109185425D01*
X144906884Y-109185425D01*
X144724230Y-109149093D01*
X144552173Y-109077825D01*
X144397326Y-108974360D01*
X144265640Y-108842674D01*
X144162175Y-108687827D01*
X144090907Y-108515770D01*
X144054575Y-108333116D01*
X144054575Y-108146884D01*
X144090907Y-107964230D01*
X144162175Y-107792173D01*
X144265640Y-107637326D01*
X144397326Y-107505640D01*
X144552173Y-107402175D01*
X144724230Y-107330907D01*
X144906884Y-107294575D01*
X145093116Y-107294575D01*
X145275770Y-107330907D01*
G37*
G36*
X101268462Y-106881775D02*
G01*
X101440086Y-106937539D01*
X101600873Y-107019464D01*
X101746865Y-107125533D01*
X101874467Y-107253135D01*
X101980536Y-107399127D01*
X102062461Y-107559914D01*
X102118225Y-107731538D01*
X102146455Y-107909772D01*
X102146455Y-108090228D01*
X102118225Y-108268462D01*
X102062461Y-108440086D01*
X101980536Y-108600873D01*
X101874467Y-108746865D01*
X101746865Y-108874467D01*
X101600873Y-108980536D01*
X101440086Y-109062461D01*
X101268462Y-109118225D01*
X101090228Y-109146455D01*
X100909772Y-109146455D01*
X100731538Y-109118225D01*
X100559914Y-109062461D01*
X100399127Y-108980536D01*
X100253135Y-108874467D01*
X100125533Y-108746865D01*
X100019464Y-108600873D01*
X99937539Y-108440086D01*
X99881775Y-108268462D01*
X99853545Y-108090228D01*
X99853545Y-107909772D01*
X99881775Y-107731538D01*
X99937539Y-107559914D01*
X100019464Y-107399127D01*
X100125533Y-107253135D01*
X100253135Y-107125533D01*
X100399127Y-107019464D01*
X100559914Y-106937539D01*
X100731538Y-106881775D01*
X100909772Y-106853545D01*
X101090228Y-106853545D01*
X101268462Y-106881775D01*
G37*
G36*
X107768462Y-106881775D02*
G01*
X107940086Y-106937539D01*
X108100873Y-107019464D01*
X108246865Y-107125533D01*
X108374467Y-107253135D01*
X108480536Y-107399127D01*
X108562461Y-107559914D01*
X108618225Y-107731538D01*
X108646455Y-107909772D01*
X108646455Y-108090228D01*
X108618225Y-108268462D01*
X108562461Y-108440086D01*
X108480536Y-108600873D01*
X108374467Y-108746865D01*
X108246865Y-108874467D01*
X108100873Y-108980536D01*
X107940086Y-109062461D01*
X107768462Y-109118225D01*
X107590228Y-109146455D01*
X107409772Y-109146455D01*
X107231538Y-109118225D01*
X107059914Y-109062461D01*
X106899127Y-108980536D01*
X106753135Y-108874467D01*
X106625533Y-108746865D01*
X106519464Y-108600873D01*
X106437539Y-108440086D01*
X106381775Y-108268462D01*
X106353545Y-108090228D01*
X106353545Y-107909772D01*
X106381775Y-107731538D01*
X106437539Y-107559914D01*
X106519464Y-107399127D01*
X106625533Y-107253135D01*
X106753135Y-107125533D01*
X106899127Y-107019464D01*
X107059914Y-106937539D01*
X107231538Y-106881775D01*
X107409772Y-106853545D01*
X107590228Y-106853545D01*
X107768462Y-106881775D01*
G37*
G36*
X130035770Y-104790907D02*
G01*
X130207827Y-104862175D01*
X130362674Y-104965640D01*
X130494360Y-105097326D01*
X130597825Y-105252173D01*
X130669093Y-105424230D01*
X130705425Y-105606884D01*
X130705425Y-105793116D01*
X130669093Y-105975770D01*
X130597825Y-106147827D01*
X130494360Y-106302674D01*
X130362674Y-106434360D01*
X130207827Y-106537825D01*
X130035770Y-106609093D01*
X129853116Y-106645425D01*
X129666884Y-106645425D01*
X129484230Y-106609093D01*
X129312173Y-106537825D01*
X129157326Y-106434360D01*
X129025640Y-106302674D01*
X128922175Y-106147827D01*
X128850907Y-105975770D01*
X128814575Y-105793116D01*
X128814575Y-105606884D01*
X128850907Y-105424230D01*
X128922175Y-105252173D01*
X129025640Y-105097326D01*
X129157326Y-104965640D01*
X129312173Y-104862175D01*
X129484230Y-104790907D01*
X129666884Y-104754575D01*
X129853116Y-104754575D01*
X130035770Y-104790907D01*
G37*
G36*
X145275770Y-104790907D02*
G01*
X145447827Y-104862175D01*
X145602674Y-104965640D01*
X145734360Y-105097326D01*
X145837825Y-105252173D01*
X145909093Y-105424230D01*
X145945425Y-105606884D01*
X145945425Y-105793116D01*
X145909093Y-105975770D01*
X145837825Y-106147827D01*
X145734360Y-106302674D01*
X145602674Y-106434360D01*
X145447827Y-106537825D01*
X145275770Y-106609093D01*
X145093116Y-106645425D01*
X144906884Y-106645425D01*
X144724230Y-106609093D01*
X144552173Y-106537825D01*
X144397326Y-106434360D01*
X144265640Y-106302674D01*
X144162175Y-106147827D01*
X144090907Y-105975770D01*
X144054575Y-105793116D01*
X144054575Y-105606884D01*
X144090907Y-105424230D01*
X144162175Y-105252173D01*
X144265640Y-105097326D01*
X144397326Y-104965640D01*
X144552173Y-104862175D01*
X144724230Y-104790907D01*
X144906884Y-104754575D01*
X145093116Y-104754575D01*
X145275770Y-104790907D01*
G37*
G36*
X130035770Y-102250907D02*
G01*
X130207827Y-102322175D01*
X130362674Y-102425640D01*
X130494360Y-102557326D01*
X130597825Y-102712173D01*
X130669093Y-102884230D01*
X130705425Y-103066884D01*
X130705425Y-103253116D01*
X130669093Y-103435770D01*
X130597825Y-103607827D01*
X130494360Y-103762674D01*
X130362674Y-103894360D01*
X130207827Y-103997825D01*
X130035770Y-104069093D01*
X129853116Y-104105425D01*
X129666884Y-104105425D01*
X129484230Y-104069093D01*
X129312173Y-103997825D01*
X129157326Y-103894360D01*
X129025640Y-103762674D01*
X128922175Y-103607827D01*
X128850907Y-103435770D01*
X128814575Y-103253116D01*
X128814575Y-103066884D01*
X128850907Y-102884230D01*
X128922175Y-102712173D01*
X129025640Y-102557326D01*
X129157326Y-102425640D01*
X129312173Y-102322175D01*
X129484230Y-102250907D01*
X129666884Y-102214575D01*
X129853116Y-102214575D01*
X130035770Y-102250907D01*
G37*
G36*
X145275770Y-102250907D02*
G01*
X145447827Y-102322175D01*
X145602674Y-102425640D01*
X145734360Y-102557326D01*
X145837825Y-102712173D01*
X145909093Y-102884230D01*
X145945425Y-103066884D01*
X145945425Y-103253116D01*
X145909093Y-103435770D01*
X145837825Y-103607827D01*
X145734360Y-103762674D01*
X145602674Y-103894360D01*
X145447827Y-103997825D01*
X145275770Y-104069093D01*
X145093116Y-104105425D01*
X144906884Y-104105425D01*
X144724230Y-104069093D01*
X144552173Y-103997825D01*
X144397326Y-103894360D01*
X144265640Y-103762674D01*
X144162175Y-103607827D01*
X144090907Y-103435770D01*
X144054575Y-103253116D01*
X144054575Y-103066884D01*
X144090907Y-102884230D01*
X144162175Y-102712173D01*
X144265640Y-102557326D01*
X144397326Y-102425640D01*
X144552173Y-102322175D01*
X144724230Y-102250907D01*
X144906884Y-102214575D01*
X145093116Y-102214575D01*
X145275770Y-102250907D01*
G37*
G36*
X171371807Y-100784538D02*
G01*
X171558354Y-100845151D01*
X171733123Y-100934200D01*
X171891810Y-101049493D01*
X172030507Y-101188190D01*
X172145800Y-101346877D01*
X172234849Y-101521646D01*
X172295462Y-101708193D01*
X172326147Y-101901926D01*
X172326147Y-102098074D01*
X172295462Y-102291807D01*
X172234849Y-102478354D01*
X172145800Y-102653123D01*
X172030507Y-102811810D01*
X171891810Y-102950507D01*
X171733123Y-103065800D01*
X171558354Y-103154849D01*
X171371807Y-103215462D01*
X171178074Y-103246147D01*
X170981926Y-103246147D01*
X170788193Y-103215462D01*
X170601646Y-103154849D01*
X170426877Y-103065800D01*
X170268190Y-102950507D01*
X170129493Y-102811810D01*
X170014200Y-102653123D01*
X169925151Y-102478354D01*
X169864538Y-102291807D01*
X169833853Y-102098074D01*
X169833853Y-101901926D01*
X169864538Y-101708193D01*
X169925151Y-101521646D01*
X170014200Y-101346877D01*
X170129493Y-101188190D01*
X170268190Y-101049493D01*
X170426877Y-100934200D01*
X170601646Y-100845151D01*
X170788193Y-100784538D01*
X170981926Y-100753853D01*
X171178074Y-100753853D01*
X171371807Y-100784538D01*
G37*
G36*
X161779615Y-100901912D02*
G01*
X161832882Y-100908925D01*
X161846281Y-100915173D01*
X161865671Y-100919030D01*
X161891354Y-100936190D01*
X161912731Y-100946159D01*
X161925735Y-100959163D01*
X161946777Y-100973223D01*
X161960836Y-100994264D01*
X161973840Y-101007268D01*
X161983807Y-101028643D01*
X162000970Y-101054329D01*
X162004826Y-101073719D01*
X162011074Y-101087117D01*
X162018089Y-101140398D01*
X162019999Y-101150000D01*
X162019999Y-101154903D01*
X162020000Y-101154911D01*
X162020000Y-102098053D01*
X162020000Y-102850001D01*
X162018086Y-102859619D01*
X162011074Y-102912882D01*
X162004827Y-102926277D01*
X162000970Y-102945671D01*
X161983805Y-102971359D01*
X161973840Y-102992731D01*
X161960838Y-103005732D01*
X161946777Y-103026777D01*
X161925732Y-103040838D01*
X161912731Y-103053840D01*
X161891359Y-103063805D01*
X161865671Y-103080970D01*
X161846278Y-103084827D01*
X161832882Y-103091074D01*
X161779602Y-103098089D01*
X161770000Y-103099999D01*
X161765096Y-103099999D01*
X161765089Y-103100000D01*
X160074911Y-103100000D01*
X160074910Y-103099999D01*
X160069999Y-103100000D01*
X160060382Y-103098087D01*
X160007117Y-103091074D01*
X159993720Y-103084827D01*
X159974329Y-103080970D01*
X159948643Y-103063807D01*
X159927268Y-103053840D01*
X159914264Y-103040836D01*
X159893223Y-103026777D01*
X159879163Y-103005735D01*
X159866159Y-102992731D01*
X159856190Y-102971354D01*
X159839030Y-102945671D01*
X159835173Y-102926282D01*
X159828925Y-102912882D01*
X159821910Y-102859600D01*
X159820001Y-102850000D01*
X159820000Y-102845095D01*
X159820000Y-102845088D01*
X159820000Y-101154911D01*
X159820000Y-101154910D01*
X159820000Y-101149999D01*
X159821912Y-101140385D01*
X159828925Y-101087117D01*
X159835173Y-101073717D01*
X159839030Y-101054329D01*
X159856189Y-101028648D01*
X159866159Y-101007268D01*
X159879165Y-100994261D01*
X159893223Y-100973223D01*
X159914261Y-100959165D01*
X159927268Y-100946159D01*
X159948648Y-100936189D01*
X159974329Y-100919030D01*
X159993716Y-100915173D01*
X160007117Y-100908925D01*
X160060401Y-100901910D01*
X160070000Y-100900001D01*
X160074903Y-100900000D01*
X160074911Y-100900000D01*
X161765089Y-100900000D01*
X161770001Y-100900000D01*
X161779615Y-100901912D01*
G37*
G36*
X129992228Y-99854448D02*
G01*
X130137117Y-99914463D01*
X130267515Y-100001592D01*
X130378408Y-100112485D01*
X130465537Y-100242883D01*
X130525552Y-100387772D01*
X130556148Y-100541586D01*
X130556148Y-100698414D01*
X130525552Y-100852228D01*
X130465537Y-100997117D01*
X130378408Y-101127515D01*
X130267515Y-101238408D01*
X130137117Y-101325537D01*
X129992228Y-101385552D01*
X129838414Y-101416148D01*
X129681586Y-101416148D01*
X129527772Y-101385552D01*
X129382883Y-101325537D01*
X129252485Y-101238408D01*
X129141592Y-101127515D01*
X129054463Y-100997117D01*
X128994448Y-100852228D01*
X128963852Y-100698414D01*
X128963852Y-100541586D01*
X128994448Y-100387772D01*
X129054463Y-100242883D01*
X129141592Y-100112485D01*
X129252485Y-100001592D01*
X129382883Y-99914463D01*
X129527772Y-99854448D01*
X129681586Y-99823852D01*
X129838414Y-99823852D01*
X129992228Y-99854448D01*
G37*
G36*
X145232228Y-99854448D02*
G01*
X145377117Y-99914463D01*
X145507515Y-100001592D01*
X145618408Y-100112485D01*
X145705537Y-100242883D01*
X145765552Y-100387772D01*
X145796148Y-100541586D01*
X145796148Y-100698414D01*
X145765552Y-100852228D01*
X145705537Y-100997117D01*
X145618408Y-101127515D01*
X145507515Y-101238408D01*
X145377117Y-101325537D01*
X145232228Y-101385552D01*
X145078414Y-101416148D01*
X144921586Y-101416148D01*
X144767772Y-101385552D01*
X144622883Y-101325537D01*
X144492485Y-101238408D01*
X144381592Y-101127515D01*
X144294463Y-100997117D01*
X144234448Y-100852228D01*
X144203852Y-100698414D01*
X144203852Y-100541586D01*
X144234448Y-100387772D01*
X144294463Y-100242883D01*
X144381592Y-100112485D01*
X144492485Y-100001592D01*
X144622883Y-99914463D01*
X144767772Y-99854448D01*
X144921586Y-99823852D01*
X145078414Y-99823852D01*
X145232228Y-99854448D01*
G37*
G36*
X101018462Y-99131775D02*
G01*
X101190086Y-99187539D01*
X101350873Y-99269464D01*
X101496865Y-99375533D01*
X101624467Y-99503135D01*
X101730536Y-99649127D01*
X101812461Y-99809914D01*
X101868225Y-99981538D01*
X101896455Y-100159772D01*
X101896455Y-100340228D01*
X101868225Y-100518462D01*
X101812461Y-100690086D01*
X101730536Y-100850873D01*
X101624467Y-100996865D01*
X101496865Y-101124467D01*
X101350873Y-101230536D01*
X101190086Y-101312461D01*
X101018462Y-101368225D01*
X100840228Y-101396455D01*
X100659772Y-101396455D01*
X100481538Y-101368225D01*
X100309914Y-101312461D01*
X100149127Y-101230536D01*
X100003135Y-101124467D01*
X99875533Y-100996865D01*
X99769464Y-100850873D01*
X99687539Y-100690086D01*
X99631775Y-100518462D01*
X99603545Y-100340228D01*
X99603545Y-100159772D01*
X99631775Y-99981538D01*
X99687539Y-99809914D01*
X99769464Y-99649127D01*
X99875533Y-99503135D01*
X100003135Y-99375533D01*
X100149127Y-99269464D01*
X100309914Y-99187539D01*
X100481538Y-99131775D01*
X100659772Y-99103545D01*
X100840228Y-99103545D01*
X101018462Y-99131775D01*
G37*
G36*
X107518462Y-99131775D02*
G01*
X107690086Y-99187539D01*
X107850873Y-99269464D01*
X107996865Y-99375533D01*
X108124467Y-99503135D01*
X108230536Y-99649127D01*
X108312461Y-99809914D01*
X108368225Y-99981538D01*
X108396455Y-100159772D01*
X108396455Y-100340228D01*
X108368225Y-100518462D01*
X108312461Y-100690086D01*
X108230536Y-100850873D01*
X108124467Y-100996865D01*
X107996865Y-101124467D01*
X107850873Y-101230536D01*
X107690086Y-101312461D01*
X107518462Y-101368225D01*
X107340228Y-101396455D01*
X107159772Y-101396455D01*
X106981538Y-101368225D01*
X106809914Y-101312461D01*
X106649127Y-101230536D01*
X106503135Y-101124467D01*
X106375533Y-100996865D01*
X106269464Y-100850873D01*
X106187539Y-100690086D01*
X106131775Y-100518462D01*
X106103545Y-100340228D01*
X106103545Y-100159772D01*
X106131775Y-99981538D01*
X106187539Y-99809914D01*
X106269464Y-99649127D01*
X106375533Y-99503135D01*
X106503135Y-99375533D01*
X106649127Y-99269464D01*
X106809914Y-99187539D01*
X106981538Y-99131775D01*
X107159772Y-99103545D01*
X107340228Y-99103545D01*
X107518462Y-99131775D01*
G37*
G36*
X130035770Y-97170907D02*
G01*
X130207827Y-97242175D01*
X130362674Y-97345640D01*
X130494360Y-97477326D01*
X130597825Y-97632173D01*
X130669093Y-97804230D01*
X130705425Y-97986884D01*
X130705425Y-98173116D01*
X130669093Y-98355770D01*
X130597825Y-98527827D01*
X130494360Y-98682674D01*
X130362674Y-98814360D01*
X130207827Y-98917825D01*
X130035770Y-98989093D01*
X129853116Y-99025425D01*
X129666884Y-99025425D01*
X129484230Y-98989093D01*
X129312173Y-98917825D01*
X129157326Y-98814360D01*
X129025640Y-98682674D01*
X128922175Y-98527827D01*
X128850907Y-98355770D01*
X128814575Y-98173116D01*
X128814575Y-97986884D01*
X128850907Y-97804230D01*
X128922175Y-97632173D01*
X129025640Y-97477326D01*
X129157326Y-97345640D01*
X129312173Y-97242175D01*
X129484230Y-97170907D01*
X129666884Y-97134575D01*
X129853116Y-97134575D01*
X130035770Y-97170907D01*
G37*
G36*
X145275770Y-97170907D02*
G01*
X145447827Y-97242175D01*
X145602674Y-97345640D01*
X145734360Y-97477326D01*
X145837825Y-97632173D01*
X145909093Y-97804230D01*
X145945425Y-97986884D01*
X145945425Y-98173116D01*
X145909093Y-98355770D01*
X145837825Y-98527827D01*
X145734360Y-98682674D01*
X145602674Y-98814360D01*
X145447827Y-98917825D01*
X145275770Y-98989093D01*
X145093116Y-99025425D01*
X144906884Y-99025425D01*
X144724230Y-98989093D01*
X144552173Y-98917825D01*
X144397326Y-98814360D01*
X144265640Y-98682674D01*
X144162175Y-98527827D01*
X144090907Y-98355770D01*
X144054575Y-98173116D01*
X144054575Y-97986884D01*
X144090907Y-97804230D01*
X144162175Y-97632173D01*
X144265640Y-97477326D01*
X144397326Y-97345640D01*
X144552173Y-97242175D01*
X144724230Y-97170907D01*
X144906884Y-97134575D01*
X145093116Y-97134575D01*
X145275770Y-97170907D01*
G37*
G36*
X100837916Y-94754815D02*
G01*
X100848017Y-94754815D01*
X100887483Y-94762665D01*
X100983395Y-94777856D01*
X101014248Y-94787881D01*
X101040285Y-94793060D01*
X101077025Y-94808278D01*
X101132595Y-94826334D01*
X101184653Y-94852859D01*
X101221397Y-94868079D01*
X101243471Y-94882829D01*
X101272373Y-94897555D01*
X101350949Y-94954643D01*
X101384393Y-94976990D01*
X101391529Y-94984126D01*
X101399300Y-94989772D01*
X101510227Y-95100699D01*
X101515872Y-95108469D01*
X101523010Y-95115607D01*
X101545359Y-95149054D01*
X101602444Y-95227626D01*
X101617168Y-95256525D01*
X101631921Y-95278603D01*
X101647142Y-95315351D01*
X101673665Y-95367404D01*
X101691718Y-95422967D01*
X101706940Y-95459715D01*
X101712120Y-95485756D01*
X101722143Y-95516604D01*
X101737332Y-95612508D01*
X101745185Y-95651983D01*
X101745185Y-95662084D01*
X101746686Y-95671561D01*
X101746686Y-95828438D01*
X101745185Y-95837914D01*
X101745185Y-95848017D01*
X101737332Y-95887495D01*
X101722143Y-95983395D01*
X101712120Y-96014240D01*
X101706940Y-96040285D01*
X101691717Y-96077036D01*
X101673665Y-96132595D01*
X101647144Y-96184643D01*
X101631921Y-96221397D01*
X101617166Y-96243478D01*
X101602444Y-96272373D01*
X101545367Y-96350932D01*
X101523010Y-96384393D01*
X101515870Y-96391532D01*
X101510227Y-96399300D01*
X101399300Y-96510227D01*
X101391532Y-96515870D01*
X101384393Y-96523010D01*
X101350932Y-96545367D01*
X101272373Y-96602444D01*
X101243478Y-96617166D01*
X101221397Y-96631921D01*
X101184643Y-96647144D01*
X101132595Y-96673665D01*
X101077036Y-96691717D01*
X101040285Y-96706940D01*
X101014240Y-96712120D01*
X100983395Y-96722143D01*
X100887493Y-96737332D01*
X100848017Y-96745185D01*
X100837916Y-96745185D01*
X100828439Y-96746686D01*
X100671561Y-96746686D01*
X100662084Y-96745185D01*
X100651983Y-96745185D01*
X100612508Y-96737332D01*
X100516604Y-96722143D01*
X100485756Y-96712120D01*
X100459715Y-96706940D01*
X100422967Y-96691718D01*
X100367404Y-96673665D01*
X100315351Y-96647142D01*
X100278603Y-96631921D01*
X100256525Y-96617168D01*
X100227626Y-96602444D01*
X100149054Y-96545359D01*
X100115607Y-96523010D01*
X100108469Y-96515872D01*
X100100699Y-96510227D01*
X99989772Y-96399300D01*
X99984126Y-96391529D01*
X99976990Y-96384393D01*
X99954643Y-96350949D01*
X99897555Y-96272373D01*
X99882829Y-96243471D01*
X99868079Y-96221397D01*
X99852859Y-96184653D01*
X99826334Y-96132595D01*
X99808278Y-96077025D01*
X99793060Y-96040285D01*
X99787881Y-96014248D01*
X99777856Y-95983395D01*
X99762666Y-95887486D01*
X99754815Y-95848017D01*
X99754815Y-95837915D01*
X99753314Y-95828438D01*
X99753314Y-95671561D01*
X99754815Y-95662083D01*
X99754815Y-95651983D01*
X99762665Y-95612517D01*
X99777856Y-95516604D01*
X99787881Y-95485748D01*
X99793060Y-95459715D01*
X99808276Y-95422978D01*
X99826334Y-95367404D01*
X99852861Y-95315340D01*
X99868079Y-95278603D01*
X99882826Y-95256531D01*
X99897555Y-95227626D01*
X99954652Y-95149037D01*
X99976990Y-95115607D01*
X99984123Y-95108473D01*
X99989772Y-95100699D01*
X100100699Y-94989772D01*
X100108473Y-94984123D01*
X100115607Y-94976990D01*
X100149037Y-94954652D01*
X100227626Y-94897555D01*
X100256531Y-94882826D01*
X100278603Y-94868079D01*
X100315340Y-94852861D01*
X100367404Y-94826334D01*
X100422978Y-94808276D01*
X100459715Y-94793060D01*
X100485748Y-94787881D01*
X100516604Y-94777856D01*
X100612517Y-94762665D01*
X100651983Y-94754815D01*
X100662084Y-94754815D01*
X100671561Y-94753314D01*
X100828439Y-94753314D01*
X100837916Y-94754815D01*
G37*
G36*
X107337916Y-94754815D02*
G01*
X107348017Y-94754815D01*
X107387483Y-94762665D01*
X107483395Y-94777856D01*
X107514248Y-94787881D01*
X107540285Y-94793060D01*
X107577025Y-94808278D01*
X107632595Y-94826334D01*
X107684653Y-94852859D01*
X107721397Y-94868079D01*
X107743471Y-94882829D01*
X107772373Y-94897555D01*
X107850949Y-94954643D01*
X107884393Y-94976990D01*
X107891529Y-94984126D01*
X107899300Y-94989772D01*
X108010227Y-95100699D01*
X108015872Y-95108469D01*
X108023010Y-95115607D01*
X108045359Y-95149054D01*
X108102444Y-95227626D01*
X108117168Y-95256525D01*
X108131921Y-95278603D01*
X108147142Y-95315351D01*
X108173665Y-95367404D01*
X108191718Y-95422967D01*
X108206940Y-95459715D01*
X108212120Y-95485756D01*
X108222143Y-95516604D01*
X108237332Y-95612508D01*
X108245185Y-95651983D01*
X108245185Y-95662084D01*
X108246686Y-95671561D01*
X108246686Y-95828438D01*
X108245185Y-95837914D01*
X108245185Y-95848017D01*
X108237332Y-95887495D01*
X108222143Y-95983395D01*
X108212120Y-96014240D01*
X108206940Y-96040285D01*
X108191717Y-96077036D01*
X108173665Y-96132595D01*
X108147144Y-96184643D01*
X108131921Y-96221397D01*
X108117166Y-96243478D01*
X108102444Y-96272373D01*
X108045367Y-96350932D01*
X108023010Y-96384393D01*
X108015870Y-96391532D01*
X108010227Y-96399300D01*
X107899300Y-96510227D01*
X107891532Y-96515870D01*
X107884393Y-96523010D01*
X107850932Y-96545367D01*
X107772373Y-96602444D01*
X107743478Y-96617166D01*
X107721397Y-96631921D01*
X107684643Y-96647144D01*
X107632595Y-96673665D01*
X107577036Y-96691717D01*
X107540285Y-96706940D01*
X107514240Y-96712120D01*
X107483395Y-96722143D01*
X107387493Y-96737332D01*
X107348017Y-96745185D01*
X107337916Y-96745185D01*
X107328439Y-96746686D01*
X107171561Y-96746686D01*
X107162084Y-96745185D01*
X107151983Y-96745185D01*
X107112508Y-96737332D01*
X107016604Y-96722143D01*
X106985756Y-96712120D01*
X106959715Y-96706940D01*
X106922967Y-96691718D01*
X106867404Y-96673665D01*
X106815351Y-96647142D01*
X106778603Y-96631921D01*
X106756525Y-96617168D01*
X106727626Y-96602444D01*
X106649054Y-96545359D01*
X106615607Y-96523010D01*
X106608469Y-96515872D01*
X106600699Y-96510227D01*
X106489772Y-96399300D01*
X106484126Y-96391529D01*
X106476990Y-96384393D01*
X106454643Y-96350949D01*
X106397555Y-96272373D01*
X106382829Y-96243471D01*
X106368079Y-96221397D01*
X106352859Y-96184653D01*
X106326334Y-96132595D01*
X106308278Y-96077025D01*
X106293060Y-96040285D01*
X106287881Y-96014248D01*
X106277856Y-95983395D01*
X106262666Y-95887486D01*
X106254815Y-95848017D01*
X106254815Y-95837915D01*
X106253314Y-95828438D01*
X106253314Y-95671561D01*
X106254815Y-95662083D01*
X106254815Y-95651983D01*
X106262665Y-95612517D01*
X106277856Y-95516604D01*
X106287881Y-95485748D01*
X106293060Y-95459715D01*
X106308276Y-95422978D01*
X106326334Y-95367404D01*
X106352861Y-95315340D01*
X106368079Y-95278603D01*
X106382826Y-95256531D01*
X106397555Y-95227626D01*
X106454652Y-95149037D01*
X106476990Y-95115607D01*
X106484123Y-95108473D01*
X106489772Y-95100699D01*
X106600699Y-94989772D01*
X106608473Y-94984123D01*
X106615607Y-94976990D01*
X106649037Y-94954652D01*
X106727626Y-94897555D01*
X106756531Y-94882826D01*
X106778603Y-94868079D01*
X106815340Y-94852861D01*
X106867404Y-94826334D01*
X106922978Y-94808276D01*
X106959715Y-94793060D01*
X106985748Y-94787881D01*
X107016604Y-94777856D01*
X107112517Y-94762665D01*
X107151983Y-94754815D01*
X107162084Y-94754815D01*
X107171561Y-94753314D01*
X107328439Y-94753314D01*
X107337916Y-94754815D01*
G37*
G36*
X130035770Y-94630907D02*
G01*
X130207827Y-94702175D01*
X130362674Y-94805640D01*
X130494360Y-94937326D01*
X130597825Y-95092173D01*
X130669093Y-95264230D01*
X130705425Y-95446884D01*
X130705425Y-95633116D01*
X130669093Y-95815770D01*
X130597825Y-95987827D01*
X130494360Y-96142674D01*
X130362674Y-96274360D01*
X130207827Y-96377825D01*
X130035770Y-96449093D01*
X129853116Y-96485425D01*
X129666884Y-96485425D01*
X129484230Y-96449093D01*
X129312173Y-96377825D01*
X129157326Y-96274360D01*
X129025640Y-96142674D01*
X128922175Y-95987827D01*
X128850907Y-95815770D01*
X128814575Y-95633116D01*
X128814575Y-95446884D01*
X128850907Y-95264230D01*
X128922175Y-95092173D01*
X129025640Y-94937326D01*
X129157326Y-94805640D01*
X129312173Y-94702175D01*
X129484230Y-94630907D01*
X129666884Y-94594575D01*
X129853116Y-94594575D01*
X130035770Y-94630907D01*
G37*
G36*
X145275770Y-94630907D02*
G01*
X145447827Y-94702175D01*
X145602674Y-94805640D01*
X145734360Y-94937326D01*
X145837825Y-95092173D01*
X145909093Y-95264230D01*
X145945425Y-95446884D01*
X145945425Y-95633116D01*
X145909093Y-95815770D01*
X145837825Y-95987827D01*
X145734360Y-96142674D01*
X145602674Y-96274360D01*
X145447827Y-96377825D01*
X145275770Y-96449093D01*
X145093116Y-96485425D01*
X144906884Y-96485425D01*
X144724230Y-96449093D01*
X144552173Y-96377825D01*
X144397326Y-96274360D01*
X144265640Y-96142674D01*
X144162175Y-95987827D01*
X144090907Y-95815770D01*
X144054575Y-95633116D01*
X144054575Y-95446884D01*
X144090907Y-95264230D01*
X144162175Y-95092173D01*
X144265640Y-94937326D01*
X144397326Y-94805640D01*
X144552173Y-94702175D01*
X144724230Y-94630907D01*
X144906884Y-94594575D01*
X145093116Y-94594575D01*
X145275770Y-94630907D01*
G37*
G36*
X130035770Y-92090907D02*
G01*
X130207827Y-92162175D01*
X130362674Y-92265640D01*
X130494360Y-92397326D01*
X130597825Y-92552173D01*
X130669093Y-92724230D01*
X130705425Y-92906884D01*
X130705425Y-93093116D01*
X130669093Y-93275770D01*
X130597825Y-93447827D01*
X130494360Y-93602674D01*
X130362674Y-93734360D01*
X130207827Y-93837825D01*
X130035770Y-93909093D01*
X129853116Y-93945425D01*
X129666884Y-93945425D01*
X129484230Y-93909093D01*
X129312173Y-93837825D01*
X129157326Y-93734360D01*
X129025640Y-93602674D01*
X128922175Y-93447827D01*
X128850907Y-93275770D01*
X128814575Y-93093116D01*
X128814575Y-92906884D01*
X128850907Y-92724230D01*
X128922175Y-92552173D01*
X129025640Y-92397326D01*
X129157326Y-92265640D01*
X129312173Y-92162175D01*
X129484230Y-92090907D01*
X129666884Y-92054575D01*
X129853116Y-92054575D01*
X130035770Y-92090907D01*
G37*
G36*
X145275770Y-92090907D02*
G01*
X145447827Y-92162175D01*
X145602674Y-92265640D01*
X145734360Y-92397326D01*
X145837825Y-92552173D01*
X145909093Y-92724230D01*
X145945425Y-92906884D01*
X145945425Y-93093116D01*
X145909093Y-93275770D01*
X145837825Y-93447827D01*
X145734360Y-93602674D01*
X145602674Y-93734360D01*
X145447827Y-93837825D01*
X145275770Y-93909093D01*
X145093116Y-93945425D01*
X144906884Y-93945425D01*
X144724230Y-93909093D01*
X144552173Y-93837825D01*
X144397326Y-93734360D01*
X144265640Y-93602674D01*
X144162175Y-93447827D01*
X144090907Y-93275770D01*
X144054575Y-93093116D01*
X144054575Y-92906884D01*
X144090907Y-92724230D01*
X144162175Y-92552173D01*
X144265640Y-92397326D01*
X144397326Y-92265640D01*
X144552173Y-92162175D01*
X144724230Y-92090907D01*
X144906884Y-92054575D01*
X145093116Y-92054575D01*
X145275770Y-92090907D01*
G37*
G36*
X164525000Y-92250000D02*
G01*
X163475000Y-92250000D01*
X163475000Y-90750000D01*
X164525000Y-90750000D01*
X164525000Y-92250000D01*
G37*
G36*
X165470909Y-90789963D02*
G01*
X165589600Y-90858489D01*
X165686511Y-90955400D01*
X165755037Y-91074091D01*
X165790509Y-91206474D01*
X165795000Y-91275000D01*
X165795000Y-91725000D01*
X165790509Y-91793526D01*
X165755037Y-91925909D01*
X165686511Y-92044600D01*
X165589600Y-92141511D01*
X165470909Y-92210037D01*
X165338526Y-92245509D01*
X165201474Y-92245509D01*
X165069091Y-92210037D01*
X164950400Y-92141511D01*
X164853489Y-92044600D01*
X164784963Y-91925909D01*
X164749491Y-91793526D01*
X164745000Y-91725000D01*
X164745000Y-91275000D01*
X164749491Y-91206474D01*
X164784963Y-91074091D01*
X164853489Y-90955400D01*
X164950400Y-90858489D01*
X165069091Y-90789963D01*
X165201474Y-90754491D01*
X165338526Y-90754491D01*
X165470909Y-90789963D01*
G37*
G36*
X166740909Y-90789963D02*
G01*
X166859600Y-90858489D01*
X166956511Y-90955400D01*
X167025037Y-91074091D01*
X167060509Y-91206474D01*
X167065000Y-91275000D01*
X167065000Y-91725000D01*
X167060509Y-91793526D01*
X167025037Y-91925909D01*
X166956511Y-92044600D01*
X166859600Y-92141511D01*
X166740909Y-92210037D01*
X166608526Y-92245509D01*
X166471474Y-92245509D01*
X166339091Y-92210037D01*
X166220400Y-92141511D01*
X166123489Y-92044600D01*
X166054963Y-91925909D01*
X166019491Y-91793526D01*
X166015000Y-91725000D01*
X166015000Y-91275000D01*
X166019491Y-91206474D01*
X166054963Y-91074091D01*
X166123489Y-90955400D01*
X166220400Y-90858489D01*
X166339091Y-90789963D01*
X166471474Y-90754491D01*
X166608526Y-90754491D01*
X166740909Y-90789963D01*
G37*
G36*
X130035770Y-89550907D02*
G01*
X130207827Y-89622175D01*
X130362674Y-89725640D01*
X130494360Y-89857326D01*
X130597825Y-90012173D01*
X130669093Y-90184230D01*
X130705425Y-90366884D01*
X130705425Y-90553116D01*
X130669093Y-90735770D01*
X130597825Y-90907827D01*
X130494360Y-91062674D01*
X130362674Y-91194360D01*
X130207827Y-91297825D01*
X130035770Y-91369093D01*
X129853116Y-91405425D01*
X129666884Y-91405425D01*
X129484230Y-91369093D01*
X129312173Y-91297825D01*
X129157326Y-91194360D01*
X129025640Y-91062674D01*
X128922175Y-90907827D01*
X128850907Y-90735770D01*
X128814575Y-90553116D01*
X128814575Y-90366884D01*
X128850907Y-90184230D01*
X128922175Y-90012173D01*
X129025640Y-89857326D01*
X129157326Y-89725640D01*
X129312173Y-89622175D01*
X129484230Y-89550907D01*
X129666884Y-89514575D01*
X129853116Y-89514575D01*
X130035770Y-89550907D01*
G37*
G36*
X145275770Y-89550907D02*
G01*
X145447827Y-89622175D01*
X145602674Y-89725640D01*
X145734360Y-89857326D01*
X145837825Y-90012173D01*
X145909093Y-90184230D01*
X145945425Y-90366884D01*
X145945425Y-90553116D01*
X145909093Y-90735770D01*
X145837825Y-90907827D01*
X145734360Y-91062674D01*
X145602674Y-91194360D01*
X145447827Y-91297825D01*
X145275770Y-91369093D01*
X145093116Y-91405425D01*
X144906884Y-91405425D01*
X144724230Y-91369093D01*
X144552173Y-91297825D01*
X144397326Y-91194360D01*
X144265640Y-91062674D01*
X144162175Y-90907827D01*
X144090907Y-90735770D01*
X144054575Y-90553116D01*
X144054575Y-90366884D01*
X144090907Y-90184230D01*
X144162175Y-90012173D01*
X144265640Y-89857326D01*
X144397326Y-89725640D01*
X144552173Y-89622175D01*
X144724230Y-89550907D01*
X144906884Y-89514575D01*
X145093116Y-89514575D01*
X145275770Y-89550907D01*
G37*
G36*
X101018462Y-87631775D02*
G01*
X101190086Y-87687539D01*
X101350873Y-87769464D01*
X101496865Y-87875533D01*
X101624467Y-88003135D01*
X101730536Y-88149127D01*
X101812461Y-88309914D01*
X101868225Y-88481538D01*
X101896455Y-88659772D01*
X101896455Y-88840228D01*
X101868225Y-89018462D01*
X101812461Y-89190086D01*
X101730536Y-89350873D01*
X101624467Y-89496865D01*
X101496865Y-89624467D01*
X101350873Y-89730536D01*
X101190086Y-89812461D01*
X101018462Y-89868225D01*
X100840228Y-89896455D01*
X100659772Y-89896455D01*
X100481538Y-89868225D01*
X100309914Y-89812461D01*
X100149127Y-89730536D01*
X100003135Y-89624467D01*
X99875533Y-89496865D01*
X99769464Y-89350873D01*
X99687539Y-89190086D01*
X99631775Y-89018462D01*
X99603545Y-88840228D01*
X99603545Y-88659772D01*
X99631775Y-88481538D01*
X99687539Y-88309914D01*
X99769464Y-88149127D01*
X99875533Y-88003135D01*
X100003135Y-87875533D01*
X100149127Y-87769464D01*
X100309914Y-87687539D01*
X100481538Y-87631775D01*
X100659772Y-87603545D01*
X100840228Y-87603545D01*
X101018462Y-87631775D01*
G37*
G36*
X107337916Y-87754815D02*
G01*
X107348017Y-87754815D01*
X107387483Y-87762665D01*
X107483395Y-87777856D01*
X107514248Y-87787881D01*
X107540285Y-87793060D01*
X107577025Y-87808278D01*
X107632595Y-87826334D01*
X107684653Y-87852859D01*
X107721397Y-87868079D01*
X107743471Y-87882829D01*
X107772373Y-87897555D01*
X107850949Y-87954643D01*
X107884393Y-87976990D01*
X107891529Y-87984126D01*
X107899300Y-87989772D01*
X108010227Y-88100699D01*
X108015872Y-88108469D01*
X108023010Y-88115607D01*
X108045359Y-88149054D01*
X108102444Y-88227626D01*
X108117168Y-88256525D01*
X108131921Y-88278603D01*
X108147142Y-88315351D01*
X108173665Y-88367404D01*
X108191718Y-88422967D01*
X108206940Y-88459715D01*
X108212120Y-88485756D01*
X108222143Y-88516604D01*
X108237332Y-88612508D01*
X108245185Y-88651983D01*
X108245185Y-88662084D01*
X108246686Y-88671561D01*
X108246686Y-88828438D01*
X108245185Y-88837914D01*
X108245185Y-88848017D01*
X108237332Y-88887495D01*
X108222143Y-88983395D01*
X108212120Y-89014240D01*
X108206940Y-89040285D01*
X108191717Y-89077036D01*
X108173665Y-89132595D01*
X108147144Y-89184643D01*
X108131921Y-89221397D01*
X108117166Y-89243478D01*
X108102444Y-89272373D01*
X108045367Y-89350932D01*
X108023010Y-89384393D01*
X108015870Y-89391532D01*
X108010227Y-89399300D01*
X107899300Y-89510227D01*
X107891532Y-89515870D01*
X107884393Y-89523010D01*
X107850932Y-89545367D01*
X107772373Y-89602444D01*
X107743478Y-89617166D01*
X107721397Y-89631921D01*
X107684643Y-89647144D01*
X107632595Y-89673665D01*
X107577036Y-89691717D01*
X107540285Y-89706940D01*
X107514240Y-89712120D01*
X107483395Y-89722143D01*
X107387493Y-89737332D01*
X107348017Y-89745185D01*
X107337916Y-89745185D01*
X107328439Y-89746686D01*
X107171561Y-89746686D01*
X107162084Y-89745185D01*
X107151983Y-89745185D01*
X107112508Y-89737332D01*
X107016604Y-89722143D01*
X106985756Y-89712120D01*
X106959715Y-89706940D01*
X106922967Y-89691718D01*
X106867404Y-89673665D01*
X106815351Y-89647142D01*
X106778603Y-89631921D01*
X106756525Y-89617168D01*
X106727626Y-89602444D01*
X106649054Y-89545359D01*
X106615607Y-89523010D01*
X106608469Y-89515872D01*
X106600699Y-89510227D01*
X106489772Y-89399300D01*
X106484126Y-89391529D01*
X106476990Y-89384393D01*
X106454643Y-89350949D01*
X106397555Y-89272373D01*
X106382829Y-89243471D01*
X106368079Y-89221397D01*
X106352859Y-89184653D01*
X106326334Y-89132595D01*
X106308278Y-89077025D01*
X106293060Y-89040285D01*
X106287881Y-89014248D01*
X106277856Y-88983395D01*
X106262666Y-88887486D01*
X106254815Y-88848017D01*
X106254815Y-88837915D01*
X106253314Y-88828438D01*
X106253314Y-88671561D01*
X106254815Y-88662083D01*
X106254815Y-88651983D01*
X106262665Y-88612517D01*
X106277856Y-88516604D01*
X106287881Y-88485748D01*
X106293060Y-88459715D01*
X106308276Y-88422978D01*
X106326334Y-88367404D01*
X106352861Y-88315340D01*
X106368079Y-88278603D01*
X106382826Y-88256531D01*
X106397555Y-88227626D01*
X106454652Y-88149037D01*
X106476990Y-88115607D01*
X106484123Y-88108473D01*
X106489772Y-88100699D01*
X106600699Y-87989772D01*
X106608473Y-87984123D01*
X106615607Y-87976990D01*
X106649037Y-87954652D01*
X106727626Y-87897555D01*
X106756531Y-87882826D01*
X106778603Y-87868079D01*
X106815340Y-87852861D01*
X106867404Y-87826334D01*
X106922978Y-87808276D01*
X106959715Y-87793060D01*
X106985748Y-87787881D01*
X107016604Y-87777856D01*
X107112517Y-87762665D01*
X107151983Y-87754815D01*
X107162084Y-87754815D01*
X107171561Y-87753314D01*
X107328439Y-87753314D01*
X107337916Y-87754815D01*
G37*
G36*
X130035770Y-87010907D02*
G01*
X130207827Y-87082175D01*
X130362674Y-87185640D01*
X130494360Y-87317326D01*
X130597825Y-87472173D01*
X130669093Y-87644230D01*
X130705425Y-87826884D01*
X130705425Y-88013116D01*
X130669093Y-88195770D01*
X130597825Y-88367827D01*
X130494360Y-88522674D01*
X130362674Y-88654360D01*
X130207827Y-88757825D01*
X130035770Y-88829093D01*
X129853116Y-88865425D01*
X129666884Y-88865425D01*
X129484230Y-88829093D01*
X129312173Y-88757825D01*
X129157326Y-88654360D01*
X129025640Y-88522674D01*
X128922175Y-88367827D01*
X128850907Y-88195770D01*
X128814575Y-88013116D01*
X128814575Y-87826884D01*
X128850907Y-87644230D01*
X128922175Y-87472173D01*
X129025640Y-87317326D01*
X129157326Y-87185640D01*
X129312173Y-87082175D01*
X129484230Y-87010907D01*
X129666884Y-86974575D01*
X129853116Y-86974575D01*
X130035770Y-87010907D01*
G37*
G36*
X145275770Y-87010907D02*
G01*
X145447827Y-87082175D01*
X145602674Y-87185640D01*
X145734360Y-87317326D01*
X145837825Y-87472173D01*
X145909093Y-87644230D01*
X145945425Y-87826884D01*
X145945425Y-88013116D01*
X145909093Y-88195770D01*
X145837825Y-88367827D01*
X145734360Y-88522674D01*
X145602674Y-88654360D01*
X145447827Y-88757825D01*
X145275770Y-88829093D01*
X145093116Y-88865425D01*
X144906884Y-88865425D01*
X144724230Y-88829093D01*
X144552173Y-88757825D01*
X144397326Y-88654360D01*
X144265640Y-88522674D01*
X144162175Y-88367827D01*
X144090907Y-88195770D01*
X144054575Y-88013116D01*
X144054575Y-87826884D01*
X144090907Y-87644230D01*
X144162175Y-87472173D01*
X144265640Y-87317326D01*
X144397326Y-87185640D01*
X144552173Y-87082175D01*
X144724230Y-87010907D01*
X144906884Y-86974575D01*
X145093116Y-86974575D01*
X145275770Y-87010907D01*
G37*
G36*
X130035770Y-84470907D02*
G01*
X130207827Y-84542175D01*
X130362674Y-84645640D01*
X130494360Y-84777326D01*
X130597825Y-84932173D01*
X130669093Y-85104230D01*
X130705425Y-85286884D01*
X130705425Y-85473116D01*
X130669093Y-85655770D01*
X130597825Y-85827827D01*
X130494360Y-85982674D01*
X130362674Y-86114360D01*
X130207827Y-86217825D01*
X130035770Y-86289093D01*
X129853116Y-86325425D01*
X129666884Y-86325425D01*
X129484230Y-86289093D01*
X129312173Y-86217825D01*
X129157326Y-86114360D01*
X129025640Y-85982674D01*
X128922175Y-85827827D01*
X128850907Y-85655770D01*
X128814575Y-85473116D01*
X128814575Y-85286884D01*
X128850907Y-85104230D01*
X128922175Y-84932173D01*
X129025640Y-84777326D01*
X129157326Y-84645640D01*
X129312173Y-84542175D01*
X129484230Y-84470907D01*
X129666884Y-84434575D01*
X129853116Y-84434575D01*
X130035770Y-84470907D01*
G37*
G36*
X145232228Y-84614448D02*
G01*
X145377117Y-84674463D01*
X145507515Y-84761592D01*
X145618408Y-84872485D01*
X145705537Y-85002883D01*
X145765552Y-85147772D01*
X145796148Y-85301586D01*
X145796148Y-85458414D01*
X145765552Y-85612228D01*
X145705537Y-85757117D01*
X145618408Y-85887515D01*
X145507515Y-85998408D01*
X145377117Y-86085537D01*
X145232228Y-86145552D01*
X145078414Y-86176148D01*
X144921586Y-86176148D01*
X144767772Y-86145552D01*
X144622883Y-86085537D01*
X144492485Y-85998408D01*
X144381592Y-85887515D01*
X144294463Y-85757117D01*
X144234448Y-85612228D01*
X144203852Y-85458414D01*
X144203852Y-85301586D01*
X144234448Y-85147772D01*
X144294463Y-85002883D01*
X144381592Y-84872485D01*
X144492485Y-84761592D01*
X144622883Y-84674463D01*
X144767772Y-84614448D01*
X144921586Y-84583852D01*
X145078414Y-84583852D01*
X145232228Y-84614448D01*
G37*
G36*
X107518462Y-83131775D02*
G01*
X107690086Y-83187539D01*
X107850873Y-83269464D01*
X107996865Y-83375533D01*
X108124467Y-83503135D01*
X108230536Y-83649127D01*
X108312461Y-83809914D01*
X108368225Y-83981538D01*
X108396455Y-84159772D01*
X108396455Y-84340228D01*
X108368225Y-84518462D01*
X108312461Y-84690086D01*
X108230536Y-84850873D01*
X108124467Y-84996865D01*
X107996865Y-85124467D01*
X107850873Y-85230536D01*
X107690086Y-85312461D01*
X107518462Y-85368225D01*
X107340228Y-85396455D01*
X107159772Y-85396455D01*
X106981538Y-85368225D01*
X106809914Y-85312461D01*
X106649127Y-85230536D01*
X106503135Y-85124467D01*
X106375533Y-84996865D01*
X106269464Y-84850873D01*
X106187539Y-84690086D01*
X106131775Y-84518462D01*
X106103545Y-84340228D01*
X106103545Y-84159772D01*
X106131775Y-83981538D01*
X106187539Y-83809914D01*
X106269464Y-83649127D01*
X106375533Y-83503135D01*
X106503135Y-83375533D01*
X106649127Y-83269464D01*
X106809914Y-83187539D01*
X106981538Y-83131775D01*
X107159772Y-83103545D01*
X107340228Y-83103545D01*
X107518462Y-83131775D01*
G37*
G36*
X100837916Y-83254815D02*
G01*
X100848017Y-83254815D01*
X100887483Y-83262665D01*
X100983395Y-83277856D01*
X101014248Y-83287881D01*
X101040285Y-83293060D01*
X101077025Y-83308278D01*
X101132595Y-83326334D01*
X101184653Y-83352859D01*
X101221397Y-83368079D01*
X101243471Y-83382829D01*
X101272373Y-83397555D01*
X101350949Y-83454643D01*
X101384393Y-83476990D01*
X101391529Y-83484126D01*
X101399300Y-83489772D01*
X101510227Y-83600699D01*
X101515872Y-83608469D01*
X101523010Y-83615607D01*
X101545359Y-83649054D01*
X101602444Y-83727626D01*
X101617168Y-83756525D01*
X101631921Y-83778603D01*
X101647142Y-83815351D01*
X101673665Y-83867404D01*
X101691718Y-83922967D01*
X101706940Y-83959715D01*
X101712120Y-83985756D01*
X101722143Y-84016604D01*
X101737332Y-84112508D01*
X101745185Y-84151983D01*
X101745185Y-84162084D01*
X101746686Y-84171561D01*
X101746686Y-84328438D01*
X101745185Y-84337914D01*
X101745185Y-84348017D01*
X101737332Y-84387495D01*
X101722143Y-84483395D01*
X101712120Y-84514240D01*
X101706940Y-84540285D01*
X101691717Y-84577036D01*
X101673665Y-84632595D01*
X101647144Y-84684643D01*
X101631921Y-84721397D01*
X101617166Y-84743478D01*
X101602444Y-84772373D01*
X101545367Y-84850932D01*
X101523010Y-84884393D01*
X101515870Y-84891532D01*
X101510227Y-84899300D01*
X101399300Y-85010227D01*
X101391532Y-85015870D01*
X101384393Y-85023010D01*
X101350932Y-85045367D01*
X101272373Y-85102444D01*
X101243478Y-85117166D01*
X101221397Y-85131921D01*
X101184643Y-85147144D01*
X101132595Y-85173665D01*
X101077036Y-85191717D01*
X101040285Y-85206940D01*
X101014240Y-85212120D01*
X100983395Y-85222143D01*
X100887493Y-85237332D01*
X100848017Y-85245185D01*
X100837916Y-85245185D01*
X100828439Y-85246686D01*
X100671561Y-85246686D01*
X100662084Y-85245185D01*
X100651983Y-85245185D01*
X100612508Y-85237332D01*
X100516604Y-85222143D01*
X100485756Y-85212120D01*
X100459715Y-85206940D01*
X100422967Y-85191718D01*
X100367404Y-85173665D01*
X100315351Y-85147142D01*
X100278603Y-85131921D01*
X100256525Y-85117168D01*
X100227626Y-85102444D01*
X100149054Y-85045359D01*
X100115607Y-85023010D01*
X100108469Y-85015872D01*
X100100699Y-85010227D01*
X99989772Y-84899300D01*
X99984126Y-84891529D01*
X99976990Y-84884393D01*
X99954643Y-84850949D01*
X99897555Y-84772373D01*
X99882829Y-84743471D01*
X99868079Y-84721397D01*
X99852859Y-84684653D01*
X99826334Y-84632595D01*
X99808278Y-84577025D01*
X99793060Y-84540285D01*
X99787881Y-84514248D01*
X99777856Y-84483395D01*
X99762666Y-84387486D01*
X99754815Y-84348017D01*
X99754815Y-84337915D01*
X99753314Y-84328438D01*
X99753314Y-84171561D01*
X99754815Y-84162083D01*
X99754815Y-84151983D01*
X99762665Y-84112517D01*
X99777856Y-84016604D01*
X99787881Y-83985748D01*
X99793060Y-83959715D01*
X99808276Y-83922978D01*
X99826334Y-83867404D01*
X99852861Y-83815340D01*
X99868079Y-83778603D01*
X99882826Y-83756531D01*
X99897555Y-83727626D01*
X99954652Y-83649037D01*
X99976990Y-83615607D01*
X99984123Y-83608473D01*
X99989772Y-83600699D01*
X100100699Y-83489772D01*
X100108473Y-83484123D01*
X100115607Y-83476990D01*
X100149037Y-83454652D01*
X100227626Y-83397555D01*
X100256531Y-83382826D01*
X100278603Y-83368079D01*
X100315340Y-83352861D01*
X100367404Y-83326334D01*
X100422978Y-83308276D01*
X100459715Y-83293060D01*
X100485748Y-83287881D01*
X100516604Y-83277856D01*
X100612517Y-83262665D01*
X100651983Y-83254815D01*
X100662084Y-83254815D01*
X100671561Y-83253314D01*
X100828439Y-83253314D01*
X100837916Y-83254815D01*
G37*
G36*
X130035770Y-81930907D02*
G01*
X130207827Y-82002175D01*
X130362674Y-82105640D01*
X130494360Y-82237326D01*
X130597825Y-82392173D01*
X130669093Y-82564230D01*
X130705425Y-82746884D01*
X130705425Y-82933116D01*
X130669093Y-83115770D01*
X130597825Y-83287827D01*
X130494360Y-83442674D01*
X130362674Y-83574360D01*
X130207827Y-83677825D01*
X130035770Y-83749093D01*
X129853116Y-83785425D01*
X129666884Y-83785425D01*
X129484230Y-83749093D01*
X129312173Y-83677825D01*
X129157326Y-83574360D01*
X129025640Y-83442674D01*
X128922175Y-83287827D01*
X128850907Y-83115770D01*
X128814575Y-82933116D01*
X128814575Y-82746884D01*
X128850907Y-82564230D01*
X128922175Y-82392173D01*
X129025640Y-82237326D01*
X129157326Y-82105640D01*
X129312173Y-82002175D01*
X129484230Y-81930907D01*
X129666884Y-81894575D01*
X129853116Y-81894575D01*
X130035770Y-81930907D01*
G37*
G36*
X145232228Y-82074448D02*
G01*
X145377117Y-82134463D01*
X145507515Y-82221592D01*
X145618408Y-82332485D01*
X145705537Y-82462883D01*
X145765552Y-82607772D01*
X145796148Y-82761586D01*
X145796148Y-82918414D01*
X145765552Y-83072228D01*
X145705537Y-83217117D01*
X145618408Y-83347515D01*
X145507515Y-83458408D01*
X145377117Y-83545537D01*
X145232228Y-83605552D01*
X145078414Y-83636148D01*
X144921586Y-83636148D01*
X144767772Y-83605552D01*
X144622883Y-83545537D01*
X144492485Y-83458408D01*
X144381592Y-83347515D01*
X144294463Y-83217117D01*
X144234448Y-83072228D01*
X144203852Y-82918414D01*
X144203852Y-82761586D01*
X144234448Y-82607772D01*
X144294463Y-82462883D01*
X144381592Y-82332485D01*
X144492485Y-82221592D01*
X144622883Y-82134463D01*
X144767772Y-82074448D01*
X144921586Y-82043852D01*
X145078414Y-82043852D01*
X145232228Y-82074448D01*
G37*
G36*
X180246742Y-81226601D02*
G01*
X180400687Y-81290367D01*
X180539234Y-81382941D01*
X180657059Y-81500766D01*
X180749633Y-81639313D01*
X180813399Y-81793258D01*
X180845907Y-81956685D01*
X180845907Y-82123315D01*
X180813399Y-82286742D01*
X180749633Y-82440687D01*
X180657059Y-82579234D01*
X180539234Y-82697059D01*
X180400687Y-82789633D01*
X180246742Y-82853399D01*
X180083315Y-82885907D01*
X179916685Y-82885907D01*
X179753258Y-82853399D01*
X179599313Y-82789633D01*
X179460766Y-82697059D01*
X179342941Y-82579234D01*
X179250367Y-82440687D01*
X179186601Y-82286742D01*
X179154093Y-82123315D01*
X179154093Y-81956685D01*
X179186601Y-81793258D01*
X179250367Y-81639313D01*
X179342941Y-81500766D01*
X179460766Y-81382941D01*
X179599313Y-81290367D01*
X179753258Y-81226601D01*
X179916685Y-81194093D01*
X180083315Y-81194093D01*
X180246742Y-81226601D01*
G37*
G36*
X155436742Y-80186601D02*
G01*
X155590687Y-80250367D01*
X155729234Y-80342941D01*
X155847059Y-80460766D01*
X155939633Y-80599313D01*
X156003399Y-80753258D01*
X156035907Y-80916685D01*
X156035907Y-81083315D01*
X156003399Y-81246742D01*
X155939633Y-81400687D01*
X155847059Y-81539234D01*
X155729234Y-81657059D01*
X155590687Y-81749633D01*
X155436742Y-81813399D01*
X155273315Y-81845907D01*
X155106685Y-81845907D01*
X154943258Y-81813399D01*
X154789313Y-81749633D01*
X154650766Y-81657059D01*
X154532941Y-81539234D01*
X154440367Y-81400687D01*
X154376601Y-81246742D01*
X154344093Y-81083315D01*
X154344093Y-80916685D01*
X154376601Y-80753258D01*
X154440367Y-80599313D01*
X154532941Y-80460766D01*
X154650766Y-80342941D01*
X154789313Y-80250367D01*
X154943258Y-80186601D01*
X155106685Y-80154093D01*
X155273315Y-80154093D01*
X155436742Y-80186601D01*
G37*
G36*
X163056742Y-80186601D02*
G01*
X163210687Y-80250367D01*
X163349234Y-80342941D01*
X163467059Y-80460766D01*
X163559633Y-80599313D01*
X163623399Y-80753258D01*
X163655907Y-80916685D01*
X163655907Y-81083315D01*
X163623399Y-81246742D01*
X163559633Y-81400687D01*
X163467059Y-81539234D01*
X163349234Y-81657059D01*
X163210687Y-81749633D01*
X163056742Y-81813399D01*
X162893315Y-81845907D01*
X162726685Y-81845907D01*
X162563258Y-81813399D01*
X162409313Y-81749633D01*
X162270766Y-81657059D01*
X162152941Y-81539234D01*
X162060367Y-81400687D01*
X161996601Y-81246742D01*
X161964093Y-81083315D01*
X161964093Y-80916685D01*
X161996601Y-80753258D01*
X162060367Y-80599313D01*
X162152941Y-80460766D01*
X162270766Y-80342941D01*
X162409313Y-80250367D01*
X162563258Y-80186601D01*
X162726685Y-80154093D01*
X162893315Y-80154093D01*
X163056742Y-80186601D01*
G37*
G36*
X130035770Y-79390907D02*
G01*
X130207827Y-79462175D01*
X130362674Y-79565640D01*
X130494360Y-79697326D01*
X130597825Y-79852173D01*
X130669093Y-80024230D01*
X130705425Y-80206884D01*
X130705425Y-80393116D01*
X130669093Y-80575770D01*
X130597825Y-80747827D01*
X130494360Y-80902674D01*
X130362674Y-81034360D01*
X130207827Y-81137825D01*
X130035770Y-81209093D01*
X129853116Y-81245425D01*
X129666884Y-81245425D01*
X129484230Y-81209093D01*
X129312173Y-81137825D01*
X129157326Y-81034360D01*
X129025640Y-80902674D01*
X128922175Y-80747827D01*
X128850907Y-80575770D01*
X128814575Y-80393116D01*
X128814575Y-80206884D01*
X128850907Y-80024230D01*
X128922175Y-79852173D01*
X129025640Y-79697326D01*
X129157326Y-79565640D01*
X129312173Y-79462175D01*
X129484230Y-79390907D01*
X129666884Y-79354575D01*
X129853116Y-79354575D01*
X130035770Y-79390907D01*
G37*
G36*
X145232228Y-79534448D02*
G01*
X145377117Y-79594463D01*
X145507515Y-79681592D01*
X145618408Y-79792485D01*
X145705537Y-79922883D01*
X145765552Y-80067772D01*
X145796148Y-80221586D01*
X145796148Y-80378414D01*
X145765552Y-80532228D01*
X145705537Y-80677117D01*
X145618408Y-80807515D01*
X145507515Y-80918408D01*
X145377117Y-81005537D01*
X145232228Y-81065552D01*
X145078414Y-81096148D01*
X144921586Y-81096148D01*
X144767772Y-81065552D01*
X144622883Y-81005537D01*
X144492485Y-80918408D01*
X144381592Y-80807515D01*
X144294463Y-80677117D01*
X144234448Y-80532228D01*
X144203852Y-80378414D01*
X144203852Y-80221586D01*
X144234448Y-80067772D01*
X144294463Y-79922883D01*
X144381592Y-79792485D01*
X144492485Y-79681592D01*
X144622883Y-79594463D01*
X144767772Y-79534448D01*
X144921586Y-79503852D01*
X145078414Y-79503852D01*
X145232228Y-79534448D01*
G37*
G36*
X180907403Y-78511418D02*
G01*
X180956066Y-78543934D01*
X180988582Y-78592597D01*
X181000000Y-78650000D01*
X181000000Y-80350000D01*
X180988582Y-80407403D01*
X180956066Y-80456066D01*
X180907403Y-80488582D01*
X180850000Y-80500000D01*
X179150000Y-80500000D01*
X179092597Y-80488582D01*
X179043934Y-80456066D01*
X179011418Y-80407403D01*
X179000000Y-80350000D01*
X179000000Y-78650000D01*
X179011418Y-78592597D01*
X179043934Y-78543934D01*
X179092597Y-78511418D01*
X179150000Y-78500000D01*
X180850000Y-78500000D01*
X180907403Y-78511418D01*
G37*
G36*
X130318491Y-76811344D02*
G01*
X130393585Y-76819418D01*
X130411387Y-76826057D01*
X130433607Y-76829577D01*
X130468522Y-76847367D01*
X130501328Y-76859603D01*
X130520066Y-76873630D01*
X130545114Y-76886393D01*
X130568932Y-76910211D01*
X130592297Y-76927702D01*
X130609787Y-76951066D01*
X130633607Y-76974886D01*
X130646369Y-76999934D01*
X130660396Y-77018671D01*
X130672629Y-77051472D01*
X130690423Y-77086393D01*
X130693942Y-77108615D01*
X130700581Y-77126414D01*
X130708652Y-77201493D01*
X130710000Y-77210000D01*
X130710000Y-78310000D01*
X130708652Y-78318510D01*
X130700581Y-78393585D01*
X130693942Y-78411383D01*
X130690423Y-78433607D01*
X130672628Y-78468530D01*
X130660396Y-78501328D01*
X130646371Y-78520062D01*
X130633607Y-78545114D01*
X130609784Y-78568936D01*
X130592297Y-78592297D01*
X130568936Y-78609784D01*
X130545114Y-78633607D01*
X130520062Y-78646371D01*
X130501328Y-78660396D01*
X130468530Y-78672628D01*
X130433607Y-78690423D01*
X130411383Y-78693942D01*
X130393585Y-78700581D01*
X130318508Y-78708652D01*
X130310000Y-78710000D01*
X129210000Y-78710000D01*
X129201491Y-78708652D01*
X129126414Y-78700581D01*
X129108615Y-78693942D01*
X129086393Y-78690423D01*
X129051472Y-78672629D01*
X129018671Y-78660396D01*
X128999934Y-78646369D01*
X128974886Y-78633607D01*
X128951066Y-78609787D01*
X128927702Y-78592297D01*
X128910211Y-78568932D01*
X128886393Y-78545114D01*
X128873630Y-78520066D01*
X128859603Y-78501328D01*
X128847367Y-78468522D01*
X128829577Y-78433607D01*
X128826057Y-78411387D01*
X128819418Y-78393585D01*
X128811344Y-78318489D01*
X128810000Y-78310000D01*
X128810000Y-77210000D01*
X128811344Y-77201511D01*
X128819418Y-77126414D01*
X128826058Y-77108610D01*
X128829577Y-77086393D01*
X128847366Y-77051479D01*
X128859603Y-77018671D01*
X128873632Y-76999930D01*
X128886393Y-76974886D01*
X128910208Y-76951070D01*
X128927702Y-76927702D01*
X128951070Y-76910208D01*
X128974886Y-76886393D01*
X128999930Y-76873632D01*
X129018671Y-76859603D01*
X129051479Y-76847366D01*
X129086393Y-76829577D01*
X129108610Y-76826058D01*
X129126414Y-76819418D01*
X129201512Y-76811344D01*
X129210000Y-76810000D01*
X130310000Y-76810000D01*
X130318491Y-76811344D01*
G37*
G36*
X145275770Y-76850907D02*
G01*
X145447827Y-76922175D01*
X145602674Y-77025640D01*
X145734360Y-77157326D01*
X145837825Y-77312173D01*
X145909093Y-77484230D01*
X145945425Y-77666884D01*
X145945425Y-77853116D01*
X145909093Y-78035770D01*
X145837825Y-78207827D01*
X145734360Y-78362674D01*
X145602674Y-78494360D01*
X145447827Y-78597825D01*
X145275770Y-78669093D01*
X145093116Y-78705425D01*
X144906884Y-78705425D01*
X144724230Y-78669093D01*
X144552173Y-78597825D01*
X144397326Y-78494360D01*
X144265640Y-78362674D01*
X144162175Y-78207827D01*
X144090907Y-78035770D01*
X144054575Y-77853116D01*
X144054575Y-77666884D01*
X144090907Y-77484230D01*
X144162175Y-77312173D01*
X144265640Y-77157326D01*
X144397326Y-77025640D01*
X144552173Y-76922175D01*
X144724230Y-76850907D01*
X144906884Y-76814575D01*
X145093116Y-76814575D01*
X145275770Y-76850907D01*
G37*
G36*
X101186742Y-74936601D02*
G01*
X101340687Y-75000367D01*
X101479234Y-75092941D01*
X101597059Y-75210766D01*
X101689633Y-75349313D01*
X101753399Y-75503258D01*
X101785907Y-75666685D01*
X101785907Y-75833315D01*
X101753399Y-75996742D01*
X101689633Y-76150687D01*
X101597059Y-76289234D01*
X101479234Y-76407059D01*
X101340687Y-76499633D01*
X101186742Y-76563399D01*
X101023315Y-76595907D01*
X100856685Y-76595907D01*
X100693258Y-76563399D01*
X100539313Y-76499633D01*
X100400766Y-76407059D01*
X100282941Y-76289234D01*
X100190367Y-76150687D01*
X100126601Y-75996742D01*
X100094093Y-75833315D01*
X100094093Y-75666685D01*
X100126601Y-75503258D01*
X100190367Y-75349313D01*
X100282941Y-75210766D01*
X100400766Y-75092941D01*
X100539313Y-75000367D01*
X100693258Y-74936601D01*
X100856685Y-74904093D01*
X101023315Y-74904093D01*
X101186742Y-74936601D01*
G37*
G36*
X108763199Y-75080142D02*
G01*
X108889978Y-75132655D01*
X109004075Y-75208893D01*
X109101107Y-75305925D01*
X109177345Y-75420022D01*
X109229858Y-75546801D01*
X109256629Y-75681388D01*
X109256629Y-75818612D01*
X109229858Y-75953199D01*
X109177345Y-76079978D01*
X109101107Y-76194075D01*
X109004075Y-76291107D01*
X108889978Y-76367345D01*
X108763199Y-76419858D01*
X108628612Y-76446629D01*
X108491388Y-76446629D01*
X108356801Y-76419858D01*
X108230022Y-76367345D01*
X108115925Y-76291107D01*
X108018893Y-76194075D01*
X107942655Y-76079978D01*
X107890142Y-75953199D01*
X107863371Y-75818612D01*
X107863371Y-75681388D01*
X107890142Y-75546801D01*
X107942655Y-75420022D01*
X108018893Y-75305925D01*
X108115925Y-75208893D01*
X108230022Y-75132655D01*
X108356801Y-75080142D01*
X108491388Y-75053371D01*
X108628612Y-75053371D01*
X108763199Y-75080142D01*
G37*
G36*
X123436742Y-71186601D02*
G01*
X123590687Y-71250367D01*
X123729234Y-71342941D01*
X123847059Y-71460766D01*
X123939633Y-71599313D01*
X124003399Y-71753258D01*
X124035907Y-71916685D01*
X124035907Y-72083315D01*
X124003399Y-72246742D01*
X123939633Y-72400687D01*
X123847059Y-72539234D01*
X123729234Y-72657059D01*
X123590687Y-72749633D01*
X123436742Y-72813399D01*
X123273315Y-72845907D01*
X123106685Y-72845907D01*
X122943258Y-72813399D01*
X122789313Y-72749633D01*
X122650766Y-72657059D01*
X122532941Y-72539234D01*
X122440367Y-72400687D01*
X122376601Y-72246742D01*
X122344093Y-72083315D01*
X122344093Y-71916685D01*
X122376601Y-71753258D01*
X122440367Y-71599313D01*
X122532941Y-71460766D01*
X122650766Y-71342941D01*
X122789313Y-71250367D01*
X122943258Y-71186601D01*
X123106685Y-71154093D01*
X123273315Y-71154093D01*
X123436742Y-71186601D01*
G37*
G36*
X131056742Y-71186601D02*
G01*
X131210687Y-71250367D01*
X131349234Y-71342941D01*
X131467059Y-71460766D01*
X131559633Y-71599313D01*
X131623399Y-71753258D01*
X131655907Y-71916685D01*
X131655907Y-72083315D01*
X131623399Y-72246742D01*
X131559633Y-72400687D01*
X131467059Y-72539234D01*
X131349234Y-72657059D01*
X131210687Y-72749633D01*
X131056742Y-72813399D01*
X130893315Y-72845907D01*
X130726685Y-72845907D01*
X130563258Y-72813399D01*
X130409313Y-72749633D01*
X130270766Y-72657059D01*
X130152941Y-72539234D01*
X130060367Y-72400687D01*
X129996601Y-72246742D01*
X129964093Y-72083315D01*
X129964093Y-71916685D01*
X129996601Y-71753258D01*
X130060367Y-71599313D01*
X130152941Y-71460766D01*
X130270766Y-71342941D01*
X130409313Y-71250367D01*
X130563258Y-71186601D01*
X130726685Y-71154093D01*
X130893315Y-71154093D01*
X131056742Y-71186601D01*
G37*
G36*
X146556742Y-71186601D02*
G01*
X146710687Y-71250367D01*
X146849234Y-71342941D01*
X146967059Y-71460766D01*
X147059633Y-71599313D01*
X147123399Y-71753258D01*
X147155907Y-71916685D01*
X147155907Y-72083315D01*
X147123399Y-72246742D01*
X147059633Y-72400687D01*
X146967059Y-72539234D01*
X146849234Y-72657059D01*
X146710687Y-72749633D01*
X146556742Y-72813399D01*
X146393315Y-72845907D01*
X146226685Y-72845907D01*
X146063258Y-72813399D01*
X145909313Y-72749633D01*
X145770766Y-72657059D01*
X145652941Y-72539234D01*
X145560367Y-72400687D01*
X145496601Y-72246742D01*
X145464093Y-72083315D01*
X145464093Y-71916685D01*
X145496601Y-71753258D01*
X145560367Y-71599313D01*
X145652941Y-71460766D01*
X145770766Y-71342941D01*
X145909313Y-71250367D01*
X146063258Y-71186601D01*
X146226685Y-71154093D01*
X146393315Y-71154093D01*
X146556742Y-71186601D01*
G37*
G36*
X152936742Y-71186601D02*
G01*
X153090687Y-71250367D01*
X153229234Y-71342941D01*
X153347059Y-71460766D01*
X153439633Y-71599313D01*
X153503399Y-71753258D01*
X153535907Y-71916685D01*
X153535907Y-72083315D01*
X153503399Y-72246742D01*
X153439633Y-72400687D01*
X153347059Y-72539234D01*
X153229234Y-72657059D01*
X153090687Y-72749633D01*
X152936742Y-72813399D01*
X152773315Y-72845907D01*
X152606685Y-72845907D01*
X152443258Y-72813399D01*
X152289313Y-72749633D01*
X152150766Y-72657059D01*
X152032941Y-72539234D01*
X151940367Y-72400687D01*
X151876601Y-72246742D01*
X151844093Y-72083315D01*
X151844093Y-71916685D01*
X151876601Y-71753258D01*
X151940367Y-71599313D01*
X152032941Y-71460766D01*
X152150766Y-71342941D01*
X152289313Y-71250367D01*
X152443258Y-71186601D01*
X152606685Y-71154093D01*
X152773315Y-71154093D01*
X152936742Y-71186601D01*
G37*
G36*
X160556742Y-71186601D02*
G01*
X160710687Y-71250367D01*
X160849234Y-71342941D01*
X160967059Y-71460766D01*
X161059633Y-71599313D01*
X161123399Y-71753258D01*
X161155907Y-71916685D01*
X161155907Y-72083315D01*
X161123399Y-72246742D01*
X161059633Y-72400687D01*
X160967059Y-72539234D01*
X160849234Y-72657059D01*
X160710687Y-72749633D01*
X160556742Y-72813399D01*
X160393315Y-72845907D01*
X160226685Y-72845907D01*
X160063258Y-72813399D01*
X159909313Y-72749633D01*
X159770766Y-72657059D01*
X159652941Y-72539234D01*
X159560367Y-72400687D01*
X159496601Y-72246742D01*
X159464093Y-72083315D01*
X159464093Y-71916685D01*
X159496601Y-71753258D01*
X159560367Y-71599313D01*
X159652941Y-71460766D01*
X159770766Y-71342941D01*
X159909313Y-71250367D01*
X160063258Y-71186601D01*
X160226685Y-71154093D01*
X160393315Y-71154093D01*
X160556742Y-71186601D01*
G37*
G36*
X138893199Y-71330142D02*
G01*
X139019978Y-71382655D01*
X139134075Y-71458893D01*
X139231107Y-71555925D01*
X139307345Y-71670022D01*
X139359858Y-71796801D01*
X139386629Y-71931388D01*
X139386629Y-72068612D01*
X139359858Y-72203199D01*
X139307345Y-72329978D01*
X139231107Y-72444075D01*
X139134075Y-72541107D01*
X139019978Y-72617345D01*
X138893199Y-72669858D01*
X138758612Y-72696629D01*
X138621388Y-72696629D01*
X138486801Y-72669858D01*
X138360022Y-72617345D01*
X138245925Y-72541107D01*
X138148893Y-72444075D01*
X138072655Y-72329978D01*
X138020142Y-72203199D01*
X137993371Y-72068612D01*
X137993371Y-71931388D01*
X138020142Y-71796801D01*
X138072655Y-71670022D01*
X138148893Y-71555925D01*
X138245925Y-71458893D01*
X138360022Y-71382655D01*
X138486801Y-71330142D01*
X138621388Y-71303371D01*
X138758612Y-71303371D01*
X138893199Y-71330142D01*
G37*
G36*
X101268462Y-66381775D02*
G01*
X101440086Y-66437539D01*
X101600873Y-66519464D01*
X101746865Y-66625533D01*
X101874467Y-66753135D01*
X101980536Y-66899127D01*
X102062461Y-67059914D01*
X102118225Y-67231538D01*
X102146455Y-67409772D01*
X102146455Y-67590228D01*
X102118225Y-67768462D01*
X102062461Y-67940086D01*
X101980536Y-68100873D01*
X101874467Y-68246865D01*
X101746865Y-68374467D01*
X101600873Y-68480536D01*
X101440086Y-68562461D01*
X101268462Y-68618225D01*
X101090228Y-68646455D01*
X100909772Y-68646455D01*
X100731538Y-68618225D01*
X100559914Y-68562461D01*
X100399127Y-68480536D01*
X100253135Y-68374467D01*
X100125533Y-68246865D01*
X100019464Y-68100873D01*
X99937539Y-67940086D01*
X99881775Y-67768462D01*
X99853545Y-67590228D01*
X99853545Y-67409772D01*
X99881775Y-67231538D01*
X99937539Y-67059914D01*
X100019464Y-66899127D01*
X100125533Y-66753135D01*
X100253135Y-66625533D01*
X100399127Y-66519464D01*
X100559914Y-66437539D01*
X100731538Y-66381775D01*
X100909772Y-66353545D01*
X101090228Y-66353545D01*
X101268462Y-66381775D01*
G37*
G36*
X107768462Y-66381775D02*
G01*
X107940086Y-66437539D01*
X108100873Y-66519464D01*
X108246865Y-66625533D01*
X108374467Y-66753135D01*
X108480536Y-66899127D01*
X108562461Y-67059914D01*
X108618225Y-67231538D01*
X108646455Y-67409772D01*
X108646455Y-67590228D01*
X108618225Y-67768462D01*
X108562461Y-67940086D01*
X108480536Y-68100873D01*
X108374467Y-68246865D01*
X108246865Y-68374467D01*
X108100873Y-68480536D01*
X107940086Y-68562461D01*
X107768462Y-68618225D01*
X107590228Y-68646455D01*
X107409772Y-68646455D01*
X107231538Y-68618225D01*
X107059914Y-68562461D01*
X106899127Y-68480536D01*
X106753135Y-68374467D01*
X106625533Y-68246865D01*
X106519464Y-68100873D01*
X106437539Y-67940086D01*
X106381775Y-67768462D01*
X106353545Y-67590228D01*
X106353545Y-67409772D01*
X106381775Y-67231538D01*
X106437539Y-67059914D01*
X106519464Y-66899127D01*
X106625533Y-66753135D01*
X106753135Y-66625533D01*
X106899127Y-66519464D01*
X107059914Y-66437539D01*
X107231538Y-66381775D01*
X107409772Y-66353545D01*
X107590228Y-66353545D01*
X107768462Y-66381775D01*
G37*
G36*
X127900000Y-66675000D02*
G01*
X126100000Y-66675000D01*
X126100000Y-64875000D01*
X127900000Y-64875000D01*
X127900000Y-66675000D01*
G37*
G36*
X143400000Y-66440000D02*
G01*
X141600000Y-66440000D01*
X141600000Y-64640000D01*
X143400000Y-64640000D01*
X143400000Y-66440000D01*
G37*
G36*
X157400000Y-66175000D02*
G01*
X155600000Y-66175000D01*
X155600000Y-64375000D01*
X157400000Y-64375000D01*
X157400000Y-66175000D01*
G37*
G36*
X127092388Y-62190056D02*
G01*
X127102918Y-62190056D01*
X127144067Y-62198241D01*
X127245067Y-62214238D01*
X127277554Y-62224793D01*
X127304799Y-62230213D01*
X127343242Y-62246136D01*
X127401729Y-62265140D01*
X127456521Y-62293058D01*
X127494967Y-62308983D01*
X127518064Y-62324416D01*
X127548498Y-62339923D01*
X127631226Y-62400028D01*
X127666113Y-62423339D01*
X127673558Y-62430784D01*
X127681772Y-62436752D01*
X127798247Y-62553227D01*
X127804214Y-62561440D01*
X127811661Y-62568887D01*
X127834974Y-62603778D01*
X127895076Y-62686501D01*
X127910581Y-62716932D01*
X127926017Y-62740033D01*
X127941943Y-62778483D01*
X127969859Y-62833270D01*
X127988860Y-62891749D01*
X128004787Y-62930201D01*
X128010207Y-62957451D01*
X128020761Y-62989932D01*
X128036757Y-63090924D01*
X128044944Y-63132082D01*
X128044944Y-63142612D01*
X128046532Y-63152638D01*
X128046532Y-63317361D01*
X128044944Y-63327386D01*
X128044944Y-63337918D01*
X128036756Y-63379079D01*
X128020761Y-63480067D01*
X128010207Y-63512546D01*
X128004787Y-63539799D01*
X127988858Y-63578253D01*
X127969859Y-63636729D01*
X127941945Y-63691511D01*
X127926017Y-63729967D01*
X127910579Y-63753070D01*
X127895076Y-63783498D01*
X127834983Y-63866208D01*
X127811661Y-63901113D01*
X127804211Y-63908562D01*
X127798247Y-63916772D01*
X127681772Y-64033247D01*
X127673562Y-64039211D01*
X127666113Y-64046661D01*
X127631208Y-64069983D01*
X127548498Y-64130076D01*
X127518070Y-64145579D01*
X127494967Y-64161017D01*
X127456511Y-64176945D01*
X127401729Y-64204859D01*
X127343253Y-64223858D01*
X127304799Y-64239787D01*
X127277546Y-64245207D01*
X127245067Y-64255761D01*
X127144076Y-64271756D01*
X127102918Y-64279944D01*
X127092388Y-64279944D01*
X127082362Y-64281532D01*
X126917638Y-64281532D01*
X126907612Y-64279944D01*
X126897082Y-64279944D01*
X126855924Y-64271757D01*
X126754932Y-64255761D01*
X126722451Y-64245207D01*
X126695201Y-64239787D01*
X126656749Y-64223860D01*
X126598270Y-64204859D01*
X126543483Y-64176943D01*
X126505033Y-64161017D01*
X126481932Y-64145581D01*
X126451501Y-64130076D01*
X126368778Y-64069974D01*
X126333887Y-64046661D01*
X126326440Y-64039214D01*
X126318227Y-64033247D01*
X126201752Y-63916772D01*
X126195784Y-63908558D01*
X126188339Y-63901113D01*
X126165028Y-63866226D01*
X126104923Y-63783498D01*
X126089416Y-63753064D01*
X126073983Y-63729967D01*
X126058058Y-63691521D01*
X126030140Y-63636729D01*
X126011136Y-63578242D01*
X125995213Y-63539799D01*
X125989793Y-63512554D01*
X125979238Y-63480067D01*
X125963241Y-63379069D01*
X125955056Y-63337918D01*
X125955056Y-63327387D01*
X125953468Y-63317361D01*
X125953468Y-63152638D01*
X125955056Y-63142611D01*
X125955056Y-63132082D01*
X125963240Y-63090934D01*
X125979238Y-62989932D01*
X125989794Y-62957443D01*
X125995213Y-62930201D01*
X126011135Y-62891761D01*
X126030140Y-62833270D01*
X126058060Y-62778472D01*
X126073983Y-62740033D01*
X126089414Y-62716938D01*
X126104923Y-62686501D01*
X126165036Y-62603761D01*
X126188339Y-62568887D01*
X126195782Y-62561443D01*
X126201752Y-62553227D01*
X126318227Y-62436752D01*
X126326443Y-62430782D01*
X126333887Y-62423339D01*
X126368761Y-62400036D01*
X126451501Y-62339923D01*
X126481938Y-62324414D01*
X126505033Y-62308983D01*
X126543472Y-62293060D01*
X126598270Y-62265140D01*
X126656761Y-62246135D01*
X126695201Y-62230213D01*
X126722443Y-62224794D01*
X126754932Y-62214238D01*
X126855934Y-62198240D01*
X126897082Y-62190056D01*
X126907612Y-62190056D01*
X126917638Y-62188468D01*
X127082362Y-62188468D01*
X127092388Y-62190056D01*
G37*
G36*
X101268462Y-61881775D02*
G01*
X101440086Y-61937539D01*
X101600873Y-62019464D01*
X101746865Y-62125533D01*
X101874467Y-62253135D01*
X101980536Y-62399127D01*
X102062461Y-62559914D01*
X102118225Y-62731538D01*
X102146455Y-62909772D01*
X102146455Y-63090228D01*
X102118225Y-63268462D01*
X102062461Y-63440086D01*
X101980536Y-63600873D01*
X101874467Y-63746865D01*
X101746865Y-63874467D01*
X101600873Y-63980536D01*
X101440086Y-64062461D01*
X101268462Y-64118225D01*
X101090228Y-64146455D01*
X100909772Y-64146455D01*
X100731538Y-64118225D01*
X100559914Y-64062461D01*
X100399127Y-63980536D01*
X100253135Y-63874467D01*
X100125533Y-63746865D01*
X100019464Y-63600873D01*
X99937539Y-63440086D01*
X99881775Y-63268462D01*
X99853545Y-63090228D01*
X99853545Y-62909772D01*
X99881775Y-62731538D01*
X99937539Y-62559914D01*
X100019464Y-62399127D01*
X100125533Y-62253135D01*
X100253135Y-62125533D01*
X100399127Y-62019464D01*
X100559914Y-61937539D01*
X100731538Y-61881775D01*
X100909772Y-61853545D01*
X101090228Y-61853545D01*
X101268462Y-61881775D01*
G37*
G36*
X107768462Y-61881775D02*
G01*
X107940086Y-61937539D01*
X108100873Y-62019464D01*
X108246865Y-62125533D01*
X108374467Y-62253135D01*
X108480536Y-62399127D01*
X108562461Y-62559914D01*
X108618225Y-62731538D01*
X108646455Y-62909772D01*
X108646455Y-63090228D01*
X108618225Y-63268462D01*
X108562461Y-63440086D01*
X108480536Y-63600873D01*
X108374467Y-63746865D01*
X108246865Y-63874467D01*
X108100873Y-63980536D01*
X107940086Y-64062461D01*
X107768462Y-64118225D01*
X107590228Y-64146455D01*
X107409772Y-64146455D01*
X107231538Y-64118225D01*
X107059914Y-64062461D01*
X106899127Y-63980536D01*
X106753135Y-63874467D01*
X106625533Y-63746865D01*
X106519464Y-63600873D01*
X106437539Y-63440086D01*
X106381775Y-63268462D01*
X106353545Y-63090228D01*
X106353545Y-62909772D01*
X106381775Y-62731538D01*
X106437539Y-62559914D01*
X106519464Y-62399127D01*
X106625533Y-62253135D01*
X106753135Y-62125533D01*
X106899127Y-62019464D01*
X107059914Y-61937539D01*
X107231538Y-61881775D01*
X107409772Y-61853545D01*
X107590228Y-61853545D01*
X107768462Y-61881775D01*
G37*
G36*
X142592388Y-61955056D02*
G01*
X142602918Y-61955056D01*
X142644067Y-61963241D01*
X142745067Y-61979238D01*
X142777554Y-61989793D01*
X142804799Y-61995213D01*
X142843242Y-62011136D01*
X142901729Y-62030140D01*
X142956521Y-62058058D01*
X142994967Y-62073983D01*
X143018064Y-62089416D01*
X143048498Y-62104923D01*
X143131226Y-62165028D01*
X143166113Y-62188339D01*
X143173558Y-62195784D01*
X143181772Y-62201752D01*
X143298247Y-62318227D01*
X143304214Y-62326440D01*
X143311661Y-62333887D01*
X143334974Y-62368778D01*
X143395076Y-62451501D01*
X143410581Y-62481932D01*
X143426017Y-62505033D01*
X143441943Y-62543483D01*
X143469859Y-62598270D01*
X143488860Y-62656749D01*
X143504787Y-62695201D01*
X143510207Y-62722451D01*
X143520761Y-62754932D01*
X143536757Y-62855924D01*
X143544944Y-62897082D01*
X143544944Y-62907612D01*
X143546532Y-62917638D01*
X143546532Y-63082361D01*
X143544944Y-63092386D01*
X143544944Y-63102918D01*
X143536756Y-63144079D01*
X143520761Y-63245067D01*
X143510207Y-63277546D01*
X143504787Y-63304799D01*
X143488858Y-63343253D01*
X143469859Y-63401729D01*
X143441945Y-63456511D01*
X143426017Y-63494967D01*
X143410579Y-63518070D01*
X143395076Y-63548498D01*
X143334983Y-63631208D01*
X143311661Y-63666113D01*
X143304211Y-63673562D01*
X143298247Y-63681772D01*
X143181772Y-63798247D01*
X143173562Y-63804211D01*
X143166113Y-63811661D01*
X143131208Y-63834983D01*
X143048498Y-63895076D01*
X143018070Y-63910579D01*
X142994967Y-63926017D01*
X142956511Y-63941945D01*
X142901729Y-63969859D01*
X142843253Y-63988858D01*
X142804799Y-64004787D01*
X142777546Y-64010207D01*
X142745067Y-64020761D01*
X142644076Y-64036756D01*
X142602918Y-64044944D01*
X142592388Y-64044944D01*
X142582362Y-64046532D01*
X142417638Y-64046532D01*
X142407612Y-64044944D01*
X142397082Y-64044944D01*
X142355924Y-64036757D01*
X142254932Y-64020761D01*
X142222451Y-64010207D01*
X142195201Y-64004787D01*
X142156749Y-63988860D01*
X142098270Y-63969859D01*
X142043483Y-63941943D01*
X142005033Y-63926017D01*
X141981932Y-63910581D01*
X141951501Y-63895076D01*
X141868778Y-63834974D01*
X141833887Y-63811661D01*
X141826440Y-63804214D01*
X141818227Y-63798247D01*
X141701752Y-63681772D01*
X141695784Y-63673558D01*
X141688339Y-63666113D01*
X141665028Y-63631226D01*
X141604923Y-63548498D01*
X141589416Y-63518064D01*
X141573983Y-63494967D01*
X141558058Y-63456521D01*
X141530140Y-63401729D01*
X141511136Y-63343242D01*
X141495213Y-63304799D01*
X141489793Y-63277554D01*
X141479238Y-63245067D01*
X141463241Y-63144069D01*
X141455056Y-63102918D01*
X141455056Y-63092387D01*
X141453468Y-63082361D01*
X141453468Y-62917638D01*
X141455056Y-62907611D01*
X141455056Y-62897082D01*
X141463240Y-62855934D01*
X141479238Y-62754932D01*
X141489794Y-62722443D01*
X141495213Y-62695201D01*
X141511135Y-62656761D01*
X141530140Y-62598270D01*
X141558060Y-62543472D01*
X141573983Y-62505033D01*
X141589414Y-62481938D01*
X141604923Y-62451501D01*
X141665036Y-62368761D01*
X141688339Y-62333887D01*
X141695782Y-62326443D01*
X141701752Y-62318227D01*
X141818227Y-62201752D01*
X141826443Y-62195782D01*
X141833887Y-62188339D01*
X141868761Y-62165036D01*
X141951501Y-62104923D01*
X141981938Y-62089414D01*
X142005033Y-62073983D01*
X142043472Y-62058060D01*
X142098270Y-62030140D01*
X142156761Y-62011135D01*
X142195201Y-61995213D01*
X142222443Y-61989794D01*
X142254932Y-61979238D01*
X142355934Y-61963240D01*
X142397082Y-61955056D01*
X142407612Y-61955056D01*
X142417638Y-61953468D01*
X142582362Y-61953468D01*
X142592388Y-61955056D01*
G37*
G36*
X156761256Y-61873754D02*
G01*
X156924257Y-61941271D01*
X157070954Y-62039291D01*
X157195709Y-62164046D01*
X157293729Y-62310743D01*
X157361246Y-62473744D01*
X157395666Y-62646785D01*
X157395666Y-62823215D01*
X157361246Y-62996256D01*
X157293729Y-63159257D01*
X157195709Y-63305954D01*
X157070954Y-63430709D01*
X156924257Y-63528729D01*
X156761256Y-63596246D01*
X156588215Y-63630666D01*
X156411785Y-63630666D01*
X156238744Y-63596246D01*
X156075743Y-63528729D01*
X155929046Y-63430709D01*
X155804291Y-63305954D01*
X155706271Y-63159257D01*
X155638754Y-62996256D01*
X155604334Y-62823215D01*
X155604334Y-62646785D01*
X155638754Y-62473744D01*
X155706271Y-62310743D01*
X155804291Y-62164046D01*
X155929046Y-62039291D01*
X156075743Y-61941271D01*
X156238744Y-61873754D01*
X156411785Y-61839334D01*
X156588215Y-61839334D01*
X156761256Y-61873754D01*
G37*
M02*
