%TF.GenerationSoftware,KiCad,Pcbnew,10.0.3+dfsg-1*%
%TF.CreationDate,2026-06-17T23:51:21+03:00*%
%TF.ProjectId,PWM_motor_speed_controller,50574d5f-6d6f-4746-9f72-5f7370656564,rev?*%
%TF.SameCoordinates,Original*%
%TF.FileFunction,Copper,L2,Bot*%
%TF.FilePolarity,Positive*%
%FSLAX46Y46*%
G04 Gerber Fmt 4.6, Leading zero omitted, Abs format (unit mm)*
G04 Created by KiCad (PCBNEW 10.0.3+dfsg-1) date 2026-06-17 23:51:21*
%MOMM*%
%LPD*%
G01*
G04 APERTURE LIST*
G04 Aperture macros list*
%AMRoundRect*
0 Rectangle with rounded corners*
0 $1 Rounding radius*
0 $2 $3 $4 $5 $6 $7 $8 $9 X,Y pos of 4 corners*
0 Add a 4 corners polygon primitive as box body*
4,1,4,$2,$3,$4,$5,$6,$7,$8,$9,$2,$3,0*
0 Add four circle primitives for the rounded corners*
1,1,$1+$1,$2,$3*
1,1,$1+$1,$4,$5*
1,1,$1+$1,$6,$7*
1,1,$1+$1,$8,$9*
0 Add four rect primitives between the rounded corners*
20,1,$1+$1,$2,$3,$4,$5,0*
20,1,$1+$1,$4,$5,$6,$7,0*
20,1,$1+$1,$6,$7,$8,$9,0*
20,1,$1+$1,$8,$9,$2,$3,0*%
G04 Aperture macros list end*
%TA.AperFunction,ComponentPad*%
%ADD10RoundRect,0.250000X-0.550000X-0.550000X0.550000X-0.550000X0.550000X0.550000X-0.550000X0.550000X0*%
%TD*%
%TA.AperFunction,ComponentPad*%
%ADD11C,1.600000*%
%TD*%
%TA.AperFunction,ComponentPad*%
%ADD12C,2.000000*%
%TD*%
%TA.AperFunction,ComponentPad*%
%ADD13RoundRect,0.249999X-0.850001X-0.850001X0.850001X-0.850001X0.850001X0.850001X-0.850001X0.850001X0*%
%TD*%
%TA.AperFunction,ComponentPad*%
%ADD14C,2.200000*%
%TD*%
%TA.AperFunction,ComponentPad*%
%ADD15R,1.700000X1.700000*%
%TD*%
%TA.AperFunction,ComponentPad*%
%ADD16C,1.700000*%
%TD*%
%TA.AperFunction,ComponentPad*%
%ADD17C,1.400000*%
%TD*%
%TA.AperFunction,ComponentPad*%
%ADD18R,1.800000X1.800000*%
%TD*%
%TA.AperFunction,ComponentPad*%
%ADD19C,1.800000*%
%TD*%
%TA.AperFunction,ComponentPad*%
%ADD20R,1.050000X1.500000*%
%TD*%
%TA.AperFunction,ComponentPad*%
%ADD21O,1.050000X1.500000*%
%TD*%
%TA.AperFunction,Conductor*%
%ADD22C,0.200000*%
%TD*%
G04 APERTURE END LIST*
D10*
%TO.P,U1,1,PB0_1*%
%TO.N,Net-(U1-PB0)*%
X129760000Y-77760000D03*
D11*
%TO.P,U1,2,PB1_2*%
%TO.N,Net-(U1-PB1)*%
X129760000Y-80300000D03*
%TO.P,U1,3,PB2_3*%
%TO.N,Net-(U1-PB2)*%
X129760000Y-82840000D03*
%TO.P,U1,4,PB3_4*%
%TO.N,Net-(U1-PB3)*%
X129760000Y-85380000D03*
%TO.P,U1,5,PB4_5*%
%TO.N,unconnected-(U1-PB4-Pad5)*%
X129760000Y-87920000D03*
%TO.P,U1,6,PB5_6*%
%TO.N,unconnected-(U1-PB5-Pad6)*%
X129760000Y-90460000D03*
%TO.P,U1,7,PB6_7*%
%TO.N,unconnected-(U1-PB6-Pad7)*%
X129760000Y-93000000D03*
%TO.P,U1,8,PB7_8*%
%TO.N,unconnected-(U1-PB7-Pad8)*%
X129760000Y-95540000D03*
%TO.P,U1,9,~{RESET}_9*%
%TO.N,Net-(U1-~{RESET})*%
X129760000Y-98080000D03*
%TO.P,U1,10,VCC_10*%
%TO.N,VCC*%
X129760000Y-100620000D03*
%TO.P,U1,11,GND_11*%
%TO.N,GND*%
X129760000Y-103160000D03*
%TO.P,U1,12,XTAL2_12*%
%TO.N,Net-(U1-XTAL2)*%
X129760000Y-105700000D03*
%TO.P,U1,13,XTAL1_13*%
%TO.N,Net-(U1-XTAL1)*%
X129760000Y-108240000D03*
%TO.P,U1,14,PD0_14*%
%TO.N,unconnected-(U1-PD0-Pad14)*%
X129760000Y-110780000D03*
%TO.P,U1,15,PD1_15*%
%TO.N,unconnected-(U1-PD1-Pad15)*%
X129760000Y-113320000D03*
%TO.P,U1,16,PD2_16*%
%TO.N,unconnected-(U1-PD2-Pad16)*%
X129760000Y-115860000D03*
%TO.P,U1,17,PD3_17*%
%TO.N,unconnected-(U1-PD3-Pad17)*%
X129760000Y-118400000D03*
%TO.P,U1,18,PD4_18*%
%TO.N,unconnected-(U1-PD4-Pad18)*%
X129760000Y-120940000D03*
%TO.P,U1,19,PD5_19*%
%TO.N,unconnected-(U1-PD5-Pad19)*%
X129760000Y-123480000D03*
%TO.P,U1,20,PD6_20*%
%TO.N,unconnected-(U1-PD6-Pad20)*%
X129760000Y-126020000D03*
%TO.P,U1,21,PD7_21*%
%TO.N,unconnected-(U1-PD7-Pad21)*%
X145000000Y-126020000D03*
%TO.P,U1,22,PC0_22*%
%TO.N,unconnected-(U1-PC0-Pad22)*%
X145000000Y-123480000D03*
%TO.P,U1,23,PC1_23*%
%TO.N,unconnected-(U1-PC1-Pad23)*%
X145000000Y-120940000D03*
%TO.P,U1,24,PC2_24*%
%TO.N,unconnected-(U1-PC2-Pad24)*%
X145000000Y-118400000D03*
%TO.P,U1,25,PC3_25*%
%TO.N,unconnected-(U1-PC3-Pad25)*%
X145000000Y-115860000D03*
%TO.P,U1,26,PC4_26*%
%TO.N,unconnected-(U1-PC4-Pad26)*%
X145000000Y-113320000D03*
%TO.P,U1,27,PC5_27*%
%TO.N,unconnected-(U1-PC5-Pad27)*%
X145000000Y-110780000D03*
%TO.P,U1,28,PC6_28*%
%TO.N,unconnected-(U1-PC6-Pad28)*%
X145000000Y-108240000D03*
%TO.P,U1,29,PC7_29*%
%TO.N,unconnected-(U1-PC7-Pad29)*%
X145000000Y-105700000D03*
%TO.P,U1,30,AVCC_30*%
%TO.N,VCC*%
X145000000Y-103160000D03*
%TO.P,U1,31,GND_31*%
%TO.N,GND*%
X145000000Y-100620000D03*
%TO.P,U1,32,AREF_32*%
%TO.N,unconnected-(U1-AREF-Pad32)*%
X145000000Y-98080000D03*
%TO.P,U1,33,PA7_33*%
%TO.N,unconnected-(U1-PA7-Pad33)*%
X145000000Y-95540000D03*
%TO.P,U1,34,PA6_34*%
%TO.N,unconnected-(U1-PA6-Pad34)*%
X145000000Y-93000000D03*
%TO.P,U1,35,PA5_35*%
%TO.N,unconnected-(U1-PA5-Pad35)*%
X145000000Y-90460000D03*
%TO.P,U1,36,PA4_36*%
%TO.N,unconnected-(U1-PA4-Pad36)*%
X145000000Y-87920000D03*
%TO.P,U1,37,PA3_37*%
%TO.N,unconnected-(U1-PA3-Pad37)*%
X145000000Y-85380000D03*
%TO.P,U1,38,PA2_38*%
%TO.N,Net-(U1-PA2)*%
X145000000Y-82840000D03*
%TO.P,U1,39,PA1_39*%
%TO.N,Net-(U1-PA1)*%
X145000000Y-80300000D03*
%TO.P,U1,40,PA0_40*%
%TO.N,Net-(U1-PA0)*%
X145000000Y-77760000D03*
%TD*%
D12*
%TO.P,SW4,1,1_1*%
%TO.N,Net-(U1-PA2)*%
X101000000Y-63000000D03*
X107500000Y-63000000D03*
%TO.P,SW4,2,2_2*%
%TO.N,GND*%
X101000000Y-67500000D03*
X107500000Y-67500000D03*
%TD*%
D13*
%TO.P,D4,1,K_1*%
%TO.N,Net-(D4-K)*%
X160920000Y-102000000D03*
D14*
%TO.P,D4,2,A_2*%
%TO.N,Net-(D4-A)*%
X171080000Y-102000000D03*
%TD*%
D15*
%TO.P,J1,1,Pin_1_1*%
%TO.N,Net-(D4-K)*%
X161000000Y-119500000D03*
D16*
%TO.P,J1,2,Pin_2_2*%
%TO.N,GND*%
X161000000Y-122040000D03*
%TD*%
D11*
%TO.P,C1,1*%
%TO.N,Net-(U1-XTAL1)*%
X116500000Y-123750000D03*
%TO.P,C1,2*%
%TO.N,GND*%
X116500000Y-126250000D03*
%TD*%
D17*
%TO.P,R2,1*%
%TO.N,Net-(U1-PB3)*%
X155190000Y-81000000D03*
%TO.P,R2,2*%
%TO.N,Net-(Q1-G)*%
X162810000Y-81000000D03*
%TD*%
%TO.P,R3,1*%
%TO.N,Net-(U1-PB1)*%
X152690000Y-72000000D03*
%TO.P,R3,2*%
%TO.N,Net-(D2-K)*%
X160310000Y-72000000D03*
%TD*%
%TO.P,R5,1*%
%TO.N,Net-(D1-K)*%
X138690000Y-72000000D03*
%TO.P,R5,2*%
%TO.N,Net-(U1-PB0)*%
X146310000Y-72000000D03*
%TD*%
D11*
%TO.P,C2,1*%
%TO.N,Net-(U1-XTAL2)*%
X109500000Y-123750000D03*
%TO.P,C2,2*%
%TO.N,GND*%
X109500000Y-126250000D03*
%TD*%
D12*
%TO.P,SW2,1,1_1*%
%TO.N,Net-(U1-PA0)*%
X100750000Y-95750000D03*
X107250000Y-95750000D03*
%TO.P,SW2,2,2_2*%
%TO.N,GND*%
X100750000Y-100250000D03*
X107250000Y-100250000D03*
%TD*%
D17*
%TO.P,R4,1*%
%TO.N,Net-(U1-PB2)*%
X123190000Y-72000000D03*
%TO.P,R4,2*%
%TO.N,Net-(D3-K)*%
X130810000Y-72000000D03*
%TD*%
%TO.P,R1,1*%
%TO.N,VCC*%
X108560000Y-75750000D03*
%TO.P,R1,2*%
%TO.N,Net-(U1-~{RESET})*%
X100940000Y-75750000D03*
%TD*%
D18*
%TO.P,D3,1,K_1*%
%TO.N,Net-(D3-K)*%
X156500000Y-65275000D03*
D19*
%TO.P,D3,2,A_2*%
%TO.N,GND*%
X156500000Y-62735000D03*
%TD*%
D20*
%TO.P,Q1,1,G_1*%
%TO.N,Net-(Q1-G)*%
X164000000Y-91500000D03*
D21*
%TO.P,Q1,2,D_2*%
%TO.N,Net-(D4-A)*%
X165270000Y-91500000D03*
%TO.P,Q1,3,S_3*%
%TO.N,GND*%
X166540000Y-91500000D03*
%TD*%
D15*
%TO.P,M1,1,+_1*%
%TO.N,Net-(D4-K)*%
X180000000Y-79500000D03*
D16*
%TO.P,M1,2,-_2*%
%TO.N,Net-(D4-A)*%
X180000000Y-82040000D03*
%TD*%
D18*
%TO.P,D2,1,K_1*%
%TO.N,Net-(D2-K)*%
X142500000Y-65540000D03*
D19*
%TO.P,D2,2,A_2*%
%TO.N,GND*%
X142500000Y-63000000D03*
%TD*%
D18*
%TO.P,D1,1,K_1*%
%TO.N,Net-(D1-K)*%
X127000000Y-65775000D03*
D19*
%TO.P,D1,2,A_2*%
%TO.N,GND*%
X127000000Y-63235000D03*
%TD*%
D12*
%TO.P,SW1,1,1_1*%
%TO.N,GND*%
X100750000Y-84250000D03*
X107250000Y-84250000D03*
%TO.P,SW1,2,2_2*%
%TO.N,Net-(U1-~{RESET})*%
X100750000Y-88750000D03*
X107250000Y-88750000D03*
%TD*%
%TO.P,SW3,1,1_1*%
%TO.N,Net-(U1-PA1)*%
X101000000Y-108000000D03*
X107500000Y-108000000D03*
%TO.P,SW3,2,2_2*%
%TO.N,GND*%
X101000000Y-112500000D03*
X107500000Y-112500000D03*
%TD*%
%TO.N,VCC*%
D22*
X108560000Y-75750000D02*
X108560000Y-76960000D01*
X108560000Y-79420000D02*
X129760000Y-100620000D01*
X108560000Y-76960000D02*
X108560000Y-79420000D01*
%TO.N,Net-(U1-PB2)*%
X123185000Y-73805000D02*
X123185000Y-73510000D01*
X123185000Y-76265000D02*
X123185000Y-73805000D01*
X129760000Y-82840000D02*
X123185000Y-76265000D01*
X123185000Y-72005000D02*
X123185000Y-73510000D01*
X123190000Y-72000000D02*
X123185000Y-72005000D01*
%TO.N,Net-(U1-PA1)*%
X143560200Y-81739800D02*
X145000000Y-80300000D01*
X143560200Y-88396500D02*
X143560200Y-81739800D01*
X130166600Y-101790100D02*
X143560200Y-88396500D01*
X113709900Y-101790100D02*
X130166600Y-101790100D01*
X107500000Y-108000000D02*
X113709900Y-101790100D01*
%TO.N,Net-(D2-K)*%
X153850000Y-65540000D02*
X142500000Y-65540000D01*
X160310000Y-72000000D02*
X153850000Y-65540000D01*
%TO.N,Net-(U1-~{RESET})*%
X100940000Y-75750000D02*
X100189000Y-76501300D01*
X99447300Y-77243000D02*
X100189000Y-76501300D01*
X99447300Y-87447300D02*
X99447300Y-77243000D01*
X100750000Y-88750000D02*
X99447300Y-87447300D01*
%TO.N,Net-(U1-PA2)*%
X117800000Y-63000000D02*
X107500000Y-63000000D01*
X133830000Y-79030000D02*
X117800000Y-63000000D01*
X145315700Y-79030000D02*
X133830000Y-79030000D01*
X146115300Y-79829600D02*
X145315700Y-79030000D01*
X146115300Y-81724700D02*
X146115300Y-79829600D01*
X145000000Y-82840000D02*
X146115300Y-81724700D01*
%TO.N,Net-(U1-XTAL1)*%
X116500000Y-121500000D02*
X116500000Y-123750000D01*
X129760000Y-108240000D02*
X116500000Y-121500000D01*
%TO.N,Net-(U1-XTAL2)*%
X111710000Y-123750000D02*
X109500000Y-123750000D01*
X129760000Y-105700000D02*
X111710000Y-123750000D01*
%TO.N,GND*%
X107500000Y-84000000D02*
X108000000Y-84500000D01*
X108607000Y-113857000D02*
X108000000Y-113250000D01*
X107500000Y-112750000D02*
X107500000Y-112500000D01*
X108000000Y-113250000D02*
X107500000Y-112750000D01*
X108390200Y-114073800D02*
X108607000Y-113857000D01*
X108390200Y-125140200D02*
X108390200Y-114073800D01*
X109500000Y-126250000D02*
X108390200Y-125140200D01*
X107250000Y-84250000D02*
X107500000Y-84000000D01*
X108594800Y-85094800D02*
X108000000Y-84500000D01*
X108594800Y-98905200D02*
X108594800Y-85094800D01*
X107250000Y-100250000D02*
X108594800Y-98905200D01*
X107500000Y-67500000D02*
X107500000Y-84000000D01*
X146671300Y-102291300D02*
X145000000Y-100620000D01*
X158131100Y-102291300D02*
X146671300Y-102291300D01*
X158131100Y-119171100D02*
X158131100Y-102291300D01*
X161000000Y-122040000D02*
X158131100Y-119171100D01*
X166540000Y-93882400D02*
X166540000Y-91500000D01*
X158131100Y-102291300D02*
X166540000Y-93882400D01*
%TO.N,Net-(Q1-G)*%
X163173300Y-81363300D02*
X162810000Y-81000000D01*
X163173300Y-91500000D02*
X163173300Y-81363300D01*
X164000000Y-91500000D02*
X163173300Y-91500000D01*
%TO.N,Net-(D4-A)*%
X165270000Y-91500000D02*
X165270000Y-90448300D01*
X170568300Y-90448300D02*
X171080000Y-90960000D01*
X165270000Y-90448300D02*
X170568300Y-90448300D01*
X180000000Y-82040000D02*
X171080000Y-90960000D01*
X171080000Y-90960000D02*
X171080000Y-102000000D01*
%TO.N,Net-(D4-K)*%
X181162500Y-114261500D02*
X177000000Y-118424000D01*
X181162500Y-81526300D02*
X181162500Y-114261500D01*
X180287900Y-80651700D02*
X181162500Y-81526300D01*
X180000000Y-80651700D02*
X180287900Y-80651700D01*
X180000000Y-79500000D02*
X180000000Y-80651700D01*
X161000000Y-119500000D02*
X161000000Y-118348300D01*
X160920000Y-118268300D02*
X161000000Y-118348300D01*
X160920000Y-102000000D02*
X160920000Y-118268300D01*
X176924300Y-118348300D02*
X177000000Y-118424000D01*
X161000000Y-118348300D02*
X176924300Y-118348300D01*
%TD*%
M02*
