%TF.GenerationSoftware,KiCad,Pcbnew,10.0.3+dfsg-1*%
%TF.CreationDate,2026-06-17T23:51:21+03:00*%
%TF.ProjectId,PWM_motor_speed_controller,50574d5f-6d6f-4746-9f72-5f7370656564,rev?*%
%TF.SameCoordinates,Original*%
%TF.FileFunction,Copper,L1,Top*%
%TF.FilePolarity,Positive*%
%FSLAX46Y46*%
G04 Gerber Fmt 4.6, Leading zero omitted, Abs format (unit mm)*
G04 Created by KiCad (PCBNEW 10.0.3+dfsg-1) date 2026-06-17 23:51:21*
%MOMM*%
%LPD*%
G01*
G04 APERTURE LIST*
G04 Aperture macros list*
%AMRoundRect*
0 Rectangle with rounded corners*
0 $1 Rounding radius*
0 $2 $3 $4 $5 $6 $7 $8 $9 X,Y pos of 4 corners*
0 Add a 4 corners polygon primitive as box body*
4,1,4,$2,$3,$4,$5,$6,$7,$8,$9,$2,$3,0*
0 Add four circle primitives for the rounded corners*
1,1,$1+$1,$2,$3*
1,1,$1+$1,$4,$5*
1,1,$1+$1,$6,$7*
1,1,$1+$1,$8,$9*
0 Add four rect primitives between the rounded corners*
20,1,$1+$1,$2,$3,$4,$5,0*
20,1,$1+$1,$4,$5,$6,$7,0*
20,1,$1+$1,$6,$7,$8,$9,0*
20,1,$1+$1,$8,$9,$2,$3,0*%
G04 Aperture macros list end*
%TA.AperFunction,ComponentPad*%
%ADD10RoundRect,0.250000X-0.550000X-0.550000X0.550000X-0.550000X0.550000X0.550000X-0.550000X0.550000X0*%
%TD*%
%TA.AperFunction,ComponentPad*%
%ADD11C,1.600000*%
%TD*%
%TA.AperFunction,ComponentPad*%
%ADD12C,2.000000*%
%TD*%
%TA.AperFunction,ComponentPad*%
%ADD13RoundRect,0.249999X-0.850001X-0.850001X0.850001X-0.850001X0.850001X0.850001X-0.850001X0.850001X0*%
%TD*%
%TA.AperFunction,ComponentPad*%
%ADD14C,2.200000*%
%TD*%
%TA.AperFunction,ComponentPad*%
%ADD15R,1.700000X1.700000*%
%TD*%
%TA.AperFunction,ComponentPad*%
%ADD16C,1.700000*%
%TD*%
%TA.AperFunction,ComponentPad*%
%ADD17C,1.400000*%
%TD*%
%TA.AperFunction,ComponentPad*%
%ADD18R,1.800000X1.800000*%
%TD*%
%TA.AperFunction,ComponentPad*%
%ADD19C,1.800000*%
%TD*%
%TA.AperFunction,ComponentPad*%
%ADD20R,1.050000X1.500000*%
%TD*%
%TA.AperFunction,ComponentPad*%
%ADD21O,1.050000X1.500000*%
%TD*%
%TA.AperFunction,Conductor*%
%ADD22C,0.200000*%
%TD*%
G04 APERTURE END LIST*
D10*
%TO.P,U1,1,PB0_1*%
%TO.N,Net-(U1-PB0)*%
X129760000Y-77760000D03*
D11*
%TO.P,U1,2,PB1_2*%
%TO.N,Net-(U1-PB1)*%
X129760000Y-80300000D03*
%TO.P,U1,3,PB2_3*%
%TO.N,Net-(U1-PB2)*%
X129760000Y-82840000D03*
%TO.P,U1,4,PB3_4*%
%TO.N,Net-(U1-PB3)*%
X129760000Y-85380000D03*
%TO.P,U1,5,PB4_5*%
%TO.N,unconnected-(U1-PB4-Pad5)*%
X129760000Y-87920000D03*
%TO.P,U1,6,PB5_6*%
%TO.N,unconnected-(U1-PB5-Pad6)*%
X129760000Y-90460000D03*
%TO.P,U1,7,PB6_7*%
%TO.N,unconnected-(U1-PB6-Pad7)*%
X129760000Y-93000000D03*
%TO.P,U1,8,PB7_8*%
%TO.N,unconnected-(U1-PB7-Pad8)*%
X129760000Y-95540000D03*
%TO.P,U1,9,~{RESET}_9*%
%TO.N,Net-(U1-~{RESET})*%
X129760000Y-98080000D03*
%TO.P,U1,10,VCC_10*%
%TO.N,VCC*%
X129760000Y-100620000D03*
%TO.P,U1,11,GND_11*%
%TO.N,GND*%
X129760000Y-103160000D03*
%TO.P,U1,12,XTAL2_12*%
%TO.N,Net-(U1-XTAL2)*%
X129760000Y-105700000D03*
%TO.P,U1,13,XTAL1_13*%
%TO.N,Net-(U1-XTAL1)*%
X129760000Y-108240000D03*
%TO.P,U1,14,PD0_14*%
%TO.N,unconnected-(U1-PD0-Pad14)*%
X129760000Y-110780000D03*
%TO.P,U1,15,PD1_15*%
%TO.N,unconnected-(U1-PD1-Pad15)*%
X129760000Y-113320000D03*
%TO.P,U1,16,PD2_16*%
%TO.N,unconnected-(U1-PD2-Pad16)*%
X129760000Y-115860000D03*
%TO.P,U1,17,PD3_17*%
%TO.N,unconnected-(U1-PD3-Pad17)*%
X129760000Y-118400000D03*
%TO.P,U1,18,PD4_18*%
%TO.N,unconnected-(U1-PD4-Pad18)*%
X129760000Y-120940000D03*
%TO.P,U1,19,PD5_19*%
%TO.N,unconnected-(U1-PD5-Pad19)*%
X129760000Y-123480000D03*
%TO.P,U1,20,PD6_20*%
%TO.N,unconnected-(U1-PD6-Pad20)*%
X129760000Y-126020000D03*
%TO.P,U1,21,PD7_21*%
%TO.N,unconnected-(U1-PD7-Pad21)*%
X145000000Y-126020000D03*
%TO.P,U1,22,PC0_22*%
%TO.N,unconnected-(U1-PC0-Pad22)*%
X145000000Y-123480000D03*
%TO.P,U1,23,PC1_23*%
%TO.N,unconnected-(U1-PC1-Pad23)*%
X145000000Y-120940000D03*
%TO.P,U1,24,PC2_24*%
%TO.N,unconnected-(U1-PC2-Pad24)*%
X145000000Y-118400000D03*
%TO.P,U1,25,PC3_25*%
%TO.N,unconnected-(U1-PC3-Pad25)*%
X145000000Y-115860000D03*
%TO.P,U1,26,PC4_26*%
%TO.N,unconnected-(U1-PC4-Pad26)*%
X145000000Y-113320000D03*
%TO.P,U1,27,PC5_27*%
%TO.N,unconnected-(U1-PC5-Pad27)*%
X145000000Y-110780000D03*
%TO.P,U1,28,PC6_28*%
%TO.N,unconnected-(U1-PC6-Pad28)*%
X145000000Y-108240000D03*
%TO.P,U1,29,PC7_29*%
%TO.N,unconnected-(U1-PC7-Pad29)*%
X145000000Y-105700000D03*
%TO.P,U1,30,AVCC_30*%
%TO.N,VCC*%
X145000000Y-103160000D03*
%TO.P,U1,31,GND_31*%
%TO.N,GND*%
X145000000Y-100620000D03*
%TO.P,U1,32,AREF_32*%
%TO.N,unconnected-(U1-AREF-Pad32)*%
X145000000Y-98080000D03*
%TO.P,U1,33,PA7_33*%
%TO.N,unconnected-(U1-PA7-Pad33)*%
X145000000Y-95540000D03*
%TO.P,U1,34,PA6_34*%
%TO.N,unconnected-(U1-PA6-Pad34)*%
X145000000Y-93000000D03*
%TO.P,U1,35,PA5_35*%
%TO.N,unconnected-(U1-PA5-Pad35)*%
X145000000Y-90460000D03*
%TO.P,U1,36,PA4_36*%
%TO.N,unconnected-(U1-PA4-Pad36)*%
X145000000Y-87920000D03*
%TO.P,U1,37,PA3_37*%
%TO.N,unconnected-(U1-PA3-Pad37)*%
X145000000Y-85380000D03*
%TO.P,U1,38,PA2_38*%
%TO.N,Net-(U1-PA2)*%
X145000000Y-82840000D03*
%TO.P,U1,39,PA1_39*%
%TO.N,Net-(U1-PA1)*%
X145000000Y-80300000D03*
%TO.P,U1,40,PA0_40*%
%TO.N,Net-(U1-PA0)*%
X145000000Y-77760000D03*
%TD*%
D12*
%TO.P,SW4,1,1_1*%
%TO.N,Net-(U1-PA2)*%
X101000000Y-63000000D03*
X107500000Y-63000000D03*
%TO.P,SW4,2,2_2*%
%TO.N,GND*%
X101000000Y-67500000D03*
X107500000Y-67500000D03*
%TD*%
D13*
%TO.P,D4,1,K_1*%
%TO.N,Net-(D4-K)*%
X160920000Y-102000000D03*
D14*
%TO.P,D4,2,A_2*%
%TO.N,Net-(D4-A)*%
X171080000Y-102000000D03*
%TD*%
D15*
%TO.P,J1,1,Pin_1_1*%
%TO.N,Net-(D4-K)*%
X161000000Y-119500000D03*
D16*
%TO.P,J1,2,Pin_2_2*%
%TO.N,GND*%
X161000000Y-122040000D03*
%TD*%
D11*
%TO.P,C1,1*%
%TO.N,Net-(U1-XTAL1)*%
X116500000Y-123750000D03*
%TO.P,C1,2*%
%TO.N,GND*%
X116500000Y-126250000D03*
%TD*%
D17*
%TO.P,R2,1*%
%TO.N,Net-(U1-PB3)*%
X155190000Y-81000000D03*
%TO.P,R2,2*%
%TO.N,Net-(Q1-G)*%
X162810000Y-81000000D03*
%TD*%
%TO.P,R3,1*%
%TO.N,Net-(U1-PB1)*%
X152690000Y-72000000D03*
%TO.P,R3,2*%
%TO.N,Net-(D2-K)*%
X160310000Y-72000000D03*
%TD*%
%TO.P,R5,1*%
%TO.N,Net-(D1-K)*%
X138690000Y-72000000D03*
%TO.P,R5,2*%
%TO.N,Net-(U1-PB0)*%
X146310000Y-72000000D03*
%TD*%
D11*
%TO.P,C2,1*%
%TO.N,Net-(U1-XTAL2)*%
X109500000Y-123750000D03*
%TO.P,C2,2*%
%TO.N,GND*%
X109500000Y-126250000D03*
%TD*%
D12*
%TO.P,SW2,1,1_1*%
%TO.N,Net-(U1-PA0)*%
X100750000Y-95750000D03*
X107250000Y-95750000D03*
%TO.P,SW2,2,2_2*%
%TO.N,GND*%
X100750000Y-100250000D03*
X107250000Y-100250000D03*
%TD*%
D17*
%TO.P,R4,1*%
%TO.N,Net-(U1-PB2)*%
X123190000Y-72000000D03*
%TO.P,R4,2*%
%TO.N,Net-(D3-K)*%
X130810000Y-72000000D03*
%TD*%
%TO.P,R1,1*%
%TO.N,VCC*%
X108560000Y-75750000D03*
%TO.P,R1,2*%
%TO.N,Net-(U1-~{RESET})*%
X100940000Y-75750000D03*
%TD*%
D18*
%TO.P,D3,1,K_1*%
%TO.N,Net-(D3-K)*%
X156500000Y-65275000D03*
D19*
%TO.P,D3,2,A_2*%
%TO.N,GND*%
X156500000Y-62735000D03*
%TD*%
D20*
%TO.P,Q1,1,G_1*%
%TO.N,Net-(Q1-G)*%
X164000000Y-91500000D03*
D21*
%TO.P,Q1,2,D_2*%
%TO.N,Net-(D4-A)*%
X165270000Y-91500000D03*
%TO.P,Q1,3,S_3*%
%TO.N,GND*%
X166540000Y-91500000D03*
%TD*%
D15*
%TO.P,M1,1,+_1*%
%TO.N,Net-(D4-K)*%
X180000000Y-79500000D03*
D16*
%TO.P,M1,2,-_2*%
%TO.N,Net-(D4-A)*%
X180000000Y-82040000D03*
%TD*%
D18*
%TO.P,D2,1,K_1*%
%TO.N,Net-(D2-K)*%
X142500000Y-65540000D03*
D19*
%TO.P,D2,2,A_2*%
%TO.N,GND*%
X142500000Y-63000000D03*
%TD*%
D18*
%TO.P,D1,1,K_1*%
%TO.N,Net-(D1-K)*%
X127000000Y-65775000D03*
D19*
%TO.P,D1,2,A_2*%
%TO.N,GND*%
X127000000Y-63235000D03*
%TD*%
D12*
%TO.P,SW1,1,1_1*%
%TO.N,GND*%
X100750000Y-84250000D03*
X107250000Y-84250000D03*
%TO.P,SW1,2,2_2*%
%TO.N,Net-(U1-~{RESET})*%
X100750000Y-88750000D03*
X107250000Y-88750000D03*
%TD*%
%TO.P,SW3,1,1_1*%
%TO.N,Net-(U1-PA1)*%
X101000000Y-108000000D03*
X107500000Y-108000000D03*
%TO.P,SW3,2,2_2*%
%TO.N,GND*%
X101000000Y-112500000D03*
X107500000Y-112500000D03*
%TD*%
%TO.N,VCC*%
D22*
X146107900Y-100121100D02*
X145433200Y-99446400D01*
%TO.N,Net-(U1-PA0)*%
X118890000Y-84110000D02*
X107250000Y-95750000D01*
X138650000Y-84110000D02*
X118890000Y-84110000D01*
X145000000Y-77760000D02*
X138650000Y-84110000D01*
X107250000Y-95750000D02*
X100750000Y-95750000D01*
%TO.N,VCC*%
X108560000Y-76060000D02*
X108560000Y-75750000D01*
X108560000Y-76060000D02*
X108750000Y-76250000D01*
X108560000Y-75750000D02*
X108560000Y-76060000D01*
X130933600Y-99446400D02*
X129760000Y-100620000D01*
X145433200Y-99446400D02*
X130933600Y-99446400D01*
X146107900Y-102052100D02*
X146107900Y-100121100D01*
X145000000Y-103160000D02*
X146107900Y-102052100D01*
%TO.N,Net-(U1-PB0)*%
X143955200Y-74354800D02*
X146310000Y-72000000D01*
X133165200Y-74354800D02*
X143955200Y-74354800D01*
X129760000Y-77760000D02*
X133165200Y-74354800D01*
%TO.N,Net-(D1-K)*%
X132465000Y-65775000D02*
X138690000Y-72000000D01*
X127000000Y-65775000D02*
X132465000Y-65775000D01*
%TO.N,Net-(U1-PA1)*%
X107500000Y-108000000D02*
X101000000Y-108000000D01*
%TO.N,Net-(U1-PB1)*%
X149711200Y-74978800D02*
X152690000Y-72000000D01*
X135081200Y-74978800D02*
X149711200Y-74978800D01*
X129760000Y-80300000D02*
X135081200Y-74978800D01*
%TO.N,Net-(U1-PB3)*%
X152184900Y-84005100D02*
X155190000Y-81000000D01*
X141860800Y-84005100D02*
X152184900Y-84005100D01*
X140485900Y-85380000D02*
X141860800Y-84005100D01*
X129760000Y-85380000D02*
X140485900Y-85380000D01*
%TO.N,Net-(U1-~{RESET})*%
X107250000Y-88750000D02*
X100750000Y-88750000D01*
X101157000Y-98080000D02*
X129760000Y-98080000D01*
X99403000Y-96326000D02*
X101157000Y-98080000D01*
X99403000Y-90097000D02*
X99403000Y-96326000D01*
X100750000Y-88750000D02*
X99403000Y-90097000D01*
%TO.N,Net-(U1-PA2)*%
X107500000Y-63000000D02*
X101000000Y-63000000D01*
%TO.N,Net-(D3-K)*%
X131827300Y-73017300D02*
X130810000Y-72000000D01*
X139496200Y-73017300D02*
X131827300Y-73017300D01*
X147238500Y-65275000D02*
X139496200Y-73017300D01*
X156500000Y-65275000D02*
X147238500Y-65275000D01*
%TO.N,GND*%
X142460000Y-103160000D02*
X129760000Y-103160000D01*
X145000000Y-100620000D02*
X142460000Y-103160000D01*
X142265000Y-63235000D02*
X142500000Y-63000000D01*
X127000000Y-63235000D02*
X142265000Y-63235000D01*
X156235000Y-63000000D02*
X156500000Y-62735000D01*
X142500000Y-63000000D02*
X156235000Y-63000000D01*
X111765000Y-63235000D02*
X107500000Y-67500000D01*
X127000000Y-63235000D02*
X111765000Y-63235000D01*
X109500000Y-126250000D02*
X116500000Y-126250000D01*
X107500000Y-112500000D02*
X101000000Y-112500000D01*
X110160000Y-109840000D02*
X107500000Y-112500000D01*
X110160000Y-103160000D02*
X110160000Y-109840000D01*
X129760000Y-103160000D02*
X110160000Y-103160000D01*
X110160000Y-103160000D02*
X107250000Y-100250000D01*
X100750000Y-84250000D02*
X107250000Y-84250000D01*
X107250000Y-100250000D02*
X100750000Y-100250000D01*
X107500000Y-67500000D02*
X101000000Y-67500000D01*
%TD*%
M02*
