M48
; DRILL file KiCad 10.0.3+dfsg-1 date 2026-07-14T21:06:43
; FORMAT={-:-/ absolute / metric / decimal}
; #@! TF.CreationDate,2026-07-14T21:06:43+03:00
; #@! TF.GenerationSoftware,Kicad,Pcbnew,10.0.3+dfsg-1
; #@! TF.FileFunction,Plated,1,2,PTH
FMAT,2
METRIC
; #@! TA.AperFunction,Plated,PTH,ViaDrill
T1C0.300
; #@! TA.AperFunction,Plated,PTH,ComponentDrill
T2C0.700
; #@! TA.AperFunction,Plated,PTH,ComponentDrill
T3C0.750
; #@! TA.AperFunction,Plated,PTH,ComponentDrill
T4C0.800
; #@! TA.AperFunction,Plated,PTH,ComponentDrill
T5C0.900
; #@! TA.AperFunction,Plated,PTH,ComponentDrill
T6C1.000
; #@! TA.AperFunction,Plated,PTH,ComponentDrill
T7C1.100
; #@! TA.AperFunction,Plated,PTH,ComponentDrill
T8C1.200
%
G90
G05
T1
X180.54Y-110.615
T2
X100.94Y-75.75
X108.56Y-75.75
X123.19Y-72.0
X130.81Y-72.0
X131.445Y-132.715
X131.445Y-139.065
X131.445Y-146.05
X138.69Y-72.0
X139.065Y-132.715
X139.065Y-139.065
X139.065Y-146.05
X146.31Y-72.0
X152.69Y-72.0
X155.19Y-81.0
X160.31Y-72.0
X162.81Y-81.0
T3
X164.0Y-91.5
X165.27Y-91.5
X166.54Y-91.5
T4
X99.695Y-135.045
X104.575Y-135.045
X109.5Y-123.75
X109.5Y-126.25
X116.5Y-123.75
X116.5Y-126.25
X120.015Y-137.16
X120.015Y-142.24
X122.555Y-139.7
X129.76Y-77.76
X129.76Y-80.3
X129.76Y-82.84
X129.76Y-85.38
X129.76Y-87.92
X129.76Y-90.46
X129.76Y-93.0
X129.76Y-95.54
X129.76Y-98.08
X129.76Y-100.62
X129.76Y-103.16
X129.76Y-105.7
X129.76Y-108.24
X129.76Y-110.78
X129.76Y-113.32
X129.76Y-115.86
X129.76Y-118.4
X129.76Y-120.94
X129.76Y-123.48
X129.76Y-126.02
X145.0Y-77.76
X145.0Y-80.3
X145.0Y-82.84
X145.0Y-85.38
X145.0Y-87.92
X145.0Y-90.46
X145.0Y-93.0
X145.0Y-95.54
X145.0Y-98.08
X145.0Y-100.62
X145.0Y-103.16
X145.0Y-105.7
X145.0Y-108.24
X145.0Y-110.78
X145.0Y-113.32
X145.0Y-115.86
X145.0Y-118.4
X145.0Y-120.94
X145.0Y-123.48
X145.0Y-126.02
T5
X127.0Y-63.235
X127.0Y-65.775
X142.5Y-63.0
X142.5Y-65.54
X156.5Y-62.735
X156.5Y-65.275
T6
X151.22Y-127.645
X151.22Y-130.185
X151.22Y-135.265
X151.22Y-137.805
X153.76Y-130.185
X153.76Y-135.265
X179.705Y-97.155
X179.705Y-99.695
X200.66Y-72.39
X200.66Y-74.93
T7
X100.75Y-84.25
X100.75Y-88.75
X100.75Y-95.75
X100.75Y-100.25
X101.0Y-63.0
X101.0Y-67.5
X101.0Y-108.0
X101.0Y-112.5
X107.25Y-84.25
X107.25Y-88.75
X107.25Y-95.75
X107.25Y-100.25
X107.5Y-63.0
X107.5Y-67.5
X107.5Y-108.0
X107.5Y-112.5
X194.31Y-90.805
X204.47Y-90.805
T8
X185.42Y-111.125
X187.965Y-111.128
X190.5Y-111.125
X193.04Y-111.125
X195.58Y-111.125
X198.12Y-111.125
X200.66Y-111.125
X203.2Y-111.125
X205.74Y-111.125
X208.28Y-111.125
X210.82Y-111.125
X213.36Y-111.125
X215.9Y-111.125
X218.44Y-111.125
X220.985Y-111.128
X223.52Y-111.125
M30
