%TF.GenerationSoftware,KiCad,Pcbnew,10.0.3+dfsg-1*%
%TF.CreationDate,2026-07-14T21:07:56+03:00*%
%TF.ProjectId,PWM_motor_speed_controller,50574d5f-6d6f-4746-9f72-5f7370656564,rev?*%
%TF.SameCoordinates,Original*%
%TF.FileFunction,Soldermask,Bot*%
%TF.FilePolarity,Negative*%
%FSLAX46Y46*%
G04 Gerber Fmt 4.6, Leading zero omitted, Abs format (unit mm)*
G04 Created by KiCad (PCBNEW 10.0.3+dfsg-1) date 2026-07-14 21:07:56*
%MOMM*%
%LPD*%
G01*
G04 APERTURE LIST*
G04 APERTURE END LIST*
G36*
X152546824Y-147763682D02*
G01*
X152755757Y-147831569D01*
X152951498Y-147931304D01*
X153129227Y-148060432D01*
X153284568Y-148215773D01*
X153413696Y-148393502D01*
X153513431Y-148589243D01*
X153581318Y-148798176D01*
X153615684Y-149015157D01*
X153615684Y-149234843D01*
X153581318Y-149451824D01*
X153513431Y-149660757D01*
X153413696Y-149856498D01*
X153284568Y-150034227D01*
X153129227Y-150189568D01*
X152951498Y-150318696D01*
X152755757Y-150418431D01*
X152546824Y-150486318D01*
X152329843Y-150520684D01*
X152110157Y-150520684D01*
X151893176Y-150486318D01*
X151684243Y-150418431D01*
X151488502Y-150318696D01*
X151310773Y-150189568D01*
X151155432Y-150034227D01*
X151026304Y-149856498D01*
X150926569Y-149660757D01*
X150858682Y-149451824D01*
X150824316Y-149234843D01*
X150824316Y-149015157D01*
X150858682Y-148798176D01*
X150926569Y-148589243D01*
X151026304Y-148393502D01*
X151155432Y-148215773D01*
X151310773Y-148060432D01*
X151488502Y-147931304D01*
X151684243Y-147831569D01*
X151893176Y-147763682D01*
X152110157Y-147729316D01*
X152329843Y-147729316D01*
X152546824Y-147763682D01*
G37*
G36*
X231546824Y-147763682D02*
G01*
X231755757Y-147831569D01*
X231951498Y-147931304D01*
X232129227Y-148060432D01*
X232284568Y-148215773D01*
X232413696Y-148393502D01*
X232513431Y-148589243D01*
X232581318Y-148798176D01*
X232615684Y-149015157D01*
X232615684Y-149234843D01*
X232581318Y-149451824D01*
X232513431Y-149660757D01*
X232413696Y-149856498D01*
X232284568Y-150034227D01*
X232129227Y-150189568D01*
X231951498Y-150318696D01*
X231755757Y-150418431D01*
X231546824Y-150486318D01*
X231329843Y-150520684D01*
X231110157Y-150520684D01*
X230893176Y-150486318D01*
X230684243Y-150418431D01*
X230488502Y-150318696D01*
X230310773Y-150189568D01*
X230155432Y-150034227D01*
X230026304Y-149856498D01*
X229926569Y-149660757D01*
X229858682Y-149451824D01*
X229824316Y-149234843D01*
X229824316Y-149015157D01*
X229858682Y-148798176D01*
X229926569Y-148589243D01*
X230026304Y-148393502D01*
X230155432Y-148215773D01*
X230310773Y-148060432D01*
X230488502Y-147931304D01*
X230684243Y-147831569D01*
X230893176Y-147763682D01*
X231110157Y-147729316D01*
X231329843Y-147729316D01*
X231546824Y-147763682D01*
G37*
G36*
X131691742Y-145236601D02*
G01*
X131845687Y-145300367D01*
X131984234Y-145392941D01*
X132102059Y-145510766D01*
X132194633Y-145649313D01*
X132258399Y-145803258D01*
X132290907Y-145966685D01*
X132290907Y-146133315D01*
X132258399Y-146296742D01*
X132194633Y-146450687D01*
X132102059Y-146589234D01*
X131984234Y-146707059D01*
X131845687Y-146799633D01*
X131691742Y-146863399D01*
X131528315Y-146895907D01*
X131361685Y-146895907D01*
X131198258Y-146863399D01*
X131044313Y-146799633D01*
X130905766Y-146707059D01*
X130787941Y-146589234D01*
X130695367Y-146450687D01*
X130631601Y-146296742D01*
X130599093Y-146133315D01*
X130599093Y-145966685D01*
X130631601Y-145803258D01*
X130695367Y-145649313D01*
X130787941Y-145510766D01*
X130905766Y-145392941D01*
X131044313Y-145300367D01*
X131198258Y-145236601D01*
X131361685Y-145204093D01*
X131528315Y-145204093D01*
X131691742Y-145236601D01*
G37*
G36*
X139311742Y-145236601D02*
G01*
X139465687Y-145300367D01*
X139604234Y-145392941D01*
X139722059Y-145510766D01*
X139814633Y-145649313D01*
X139878399Y-145803258D01*
X139910907Y-145966685D01*
X139910907Y-146133315D01*
X139878399Y-146296742D01*
X139814633Y-146450687D01*
X139722059Y-146589234D01*
X139604234Y-146707059D01*
X139465687Y-146799633D01*
X139311742Y-146863399D01*
X139148315Y-146895907D01*
X138981685Y-146895907D01*
X138818258Y-146863399D01*
X138664313Y-146799633D01*
X138525766Y-146707059D01*
X138407941Y-146589234D01*
X138315367Y-146450687D01*
X138251601Y-146296742D01*
X138219093Y-146133315D01*
X138219093Y-145966685D01*
X138251601Y-145803258D01*
X138315367Y-145649313D01*
X138407941Y-145510766D01*
X138525766Y-145392941D01*
X138664313Y-145300367D01*
X138818258Y-145236601D01*
X138981685Y-145204093D01*
X139148315Y-145204093D01*
X139311742Y-145236601D01*
G37*
G36*
X120267548Y-141407462D02*
G01*
X120425115Y-141472729D01*
X120566922Y-141567481D01*
X120687519Y-141688078D01*
X120782271Y-141829885D01*
X120847538Y-141987452D01*
X120880811Y-142154725D01*
X120880811Y-142325275D01*
X120847538Y-142492548D01*
X120782271Y-142650115D01*
X120687519Y-142791922D01*
X120566922Y-142912519D01*
X120425115Y-143007271D01*
X120267548Y-143072538D01*
X120100275Y-143105811D01*
X119929725Y-143105811D01*
X119762452Y-143072538D01*
X119604885Y-143007271D01*
X119463078Y-142912519D01*
X119342481Y-142791922D01*
X119247729Y-142650115D01*
X119182462Y-142492548D01*
X119149189Y-142325275D01*
X119149189Y-142154725D01*
X119182462Y-141987452D01*
X119247729Y-141829885D01*
X119342481Y-141688078D01*
X119463078Y-141567481D01*
X119604885Y-141472729D01*
X119762452Y-141407462D01*
X119929725Y-141374189D01*
X120100275Y-141374189D01*
X120267548Y-141407462D01*
G37*
G36*
X122807548Y-138867462D02*
G01*
X122965115Y-138932729D01*
X123106922Y-139027481D01*
X123227519Y-139148078D01*
X123322271Y-139289885D01*
X123387538Y-139447452D01*
X123420811Y-139614725D01*
X123420811Y-139785275D01*
X123387538Y-139952548D01*
X123322271Y-140110115D01*
X123227519Y-140251922D01*
X123106922Y-140372519D01*
X122965115Y-140467271D01*
X122807548Y-140532538D01*
X122640275Y-140565811D01*
X122469725Y-140565811D01*
X122302452Y-140532538D01*
X122144885Y-140467271D01*
X122003078Y-140372519D01*
X121882481Y-140251922D01*
X121787729Y-140110115D01*
X121722462Y-139952548D01*
X121689189Y-139785275D01*
X121689189Y-139614725D01*
X121722462Y-139447452D01*
X121787729Y-139289885D01*
X121882481Y-139148078D01*
X122003078Y-139027481D01*
X122144885Y-138932729D01*
X122302452Y-138867462D01*
X122469725Y-138834189D01*
X122640275Y-138834189D01*
X122807548Y-138867462D01*
G37*
G36*
X131691742Y-138251601D02*
G01*
X131845687Y-138315367D01*
X131984234Y-138407941D01*
X132102059Y-138525766D01*
X132194633Y-138664313D01*
X132258399Y-138818258D01*
X132290907Y-138981685D01*
X132290907Y-139148315D01*
X132258399Y-139311742D01*
X132194633Y-139465687D01*
X132102059Y-139604234D01*
X131984234Y-139722059D01*
X131845687Y-139814633D01*
X131691742Y-139878399D01*
X131528315Y-139910907D01*
X131361685Y-139910907D01*
X131198258Y-139878399D01*
X131044313Y-139814633D01*
X130905766Y-139722059D01*
X130787941Y-139604234D01*
X130695367Y-139465687D01*
X130631601Y-139311742D01*
X130599093Y-139148315D01*
X130599093Y-138981685D01*
X130631601Y-138818258D01*
X130695367Y-138664313D01*
X130787941Y-138525766D01*
X130905766Y-138407941D01*
X131044313Y-138315367D01*
X131198258Y-138251601D01*
X131361685Y-138219093D01*
X131528315Y-138219093D01*
X131691742Y-138251601D01*
G37*
G36*
X139311742Y-138251601D02*
G01*
X139465687Y-138315367D01*
X139604234Y-138407941D01*
X139722059Y-138525766D01*
X139814633Y-138664313D01*
X139878399Y-138818258D01*
X139910907Y-138981685D01*
X139910907Y-139148315D01*
X139878399Y-139311742D01*
X139814633Y-139465687D01*
X139722059Y-139604234D01*
X139604234Y-139722059D01*
X139465687Y-139814633D01*
X139311742Y-139878399D01*
X139148315Y-139910907D01*
X138981685Y-139910907D01*
X138818258Y-139878399D01*
X138664313Y-139814633D01*
X138525766Y-139722059D01*
X138407941Y-139604234D01*
X138315367Y-139465687D01*
X138251601Y-139311742D01*
X138219093Y-139148315D01*
X138219093Y-138981685D01*
X138251601Y-138818258D01*
X138315367Y-138664313D01*
X138407941Y-138525766D01*
X138525766Y-138407941D01*
X138664313Y-138315367D01*
X138818258Y-138251601D01*
X138981685Y-138219093D01*
X139148315Y-138219093D01*
X139311742Y-138251601D01*
G37*
G36*
X152277403Y-136666418D02*
G01*
X152326066Y-136698934D01*
X152358582Y-136747597D01*
X152370000Y-136805000D01*
X152370000Y-138805000D01*
X152358582Y-138862403D01*
X152326066Y-138911066D01*
X152277403Y-138943582D01*
X152220000Y-138955000D01*
X150220000Y-138955000D01*
X150162597Y-138943582D01*
X150113934Y-138911066D01*
X150081418Y-138862403D01*
X150070000Y-138805000D01*
X150070000Y-136805000D01*
X150081418Y-136747597D01*
X150113934Y-136698934D01*
X150162597Y-136666418D01*
X150220000Y-136655000D01*
X152220000Y-136655000D01*
X152277403Y-136666418D01*
G37*
G36*
X120267548Y-136327462D02*
G01*
X120425115Y-136392729D01*
X120566922Y-136487481D01*
X120687519Y-136608078D01*
X120782271Y-136749885D01*
X120847538Y-136907452D01*
X120880811Y-137074725D01*
X120880811Y-137245275D01*
X120847538Y-137412548D01*
X120782271Y-137570115D01*
X120687519Y-137711922D01*
X120566922Y-137832519D01*
X120425115Y-137927271D01*
X120267548Y-137992538D01*
X120100275Y-138025811D01*
X119929725Y-138025811D01*
X119762452Y-137992538D01*
X119604885Y-137927271D01*
X119463078Y-137832519D01*
X119342481Y-137711922D01*
X119247729Y-137570115D01*
X119182462Y-137412548D01*
X119149189Y-137245275D01*
X119149189Y-137074725D01*
X119182462Y-136907452D01*
X119247729Y-136749885D01*
X119342481Y-136608078D01*
X119463078Y-136487481D01*
X119604885Y-136392729D01*
X119762452Y-136327462D01*
X119929725Y-136294189D01*
X120100275Y-136294189D01*
X120267548Y-136327462D01*
G37*
G36*
X152277403Y-134126418D02*
G01*
X152326066Y-134158934D01*
X152358582Y-134207597D01*
X152370000Y-134265000D01*
X152370000Y-136265000D01*
X152358582Y-136322403D01*
X152326066Y-136371066D01*
X152277403Y-136403582D01*
X152220000Y-136415000D01*
X150220000Y-136415000D01*
X150162597Y-136403582D01*
X150113934Y-136371066D01*
X150081418Y-136322403D01*
X150070000Y-136265000D01*
X150070000Y-134265000D01*
X150081418Y-134207597D01*
X150113934Y-134158934D01*
X150162597Y-134126418D01*
X150220000Y-134115000D01*
X152220000Y-134115000D01*
X152277403Y-134126418D01*
G37*
G36*
X154817403Y-134126418D02*
G01*
X154866066Y-134158934D01*
X154898582Y-134207597D01*
X154910000Y-134265000D01*
X154910000Y-136265000D01*
X154898582Y-136322403D01*
X154866066Y-136371066D01*
X154817403Y-136403582D01*
X154760000Y-136415000D01*
X152760000Y-136415000D01*
X152702597Y-136403582D01*
X152653934Y-136371066D01*
X152621418Y-136322403D01*
X152610000Y-136265000D01*
X152610000Y-134265000D01*
X152621418Y-134207597D01*
X152653934Y-134158934D01*
X152702597Y-134126418D01*
X152760000Y-134115000D01*
X154760000Y-134115000D01*
X154817403Y-134126418D01*
G37*
G36*
X99956256Y-134183754D02*
G01*
X100119257Y-134251271D01*
X100265954Y-134349291D01*
X100390709Y-134474046D01*
X100488729Y-134620743D01*
X100556246Y-134783744D01*
X100590666Y-134956785D01*
X100590666Y-135133215D01*
X100556246Y-135306256D01*
X100488729Y-135469257D01*
X100390709Y-135615954D01*
X100265954Y-135740709D01*
X100119257Y-135838729D01*
X99956256Y-135906246D01*
X99783215Y-135940666D01*
X99606785Y-135940666D01*
X99433744Y-135906246D01*
X99270743Y-135838729D01*
X99124046Y-135740709D01*
X98999291Y-135615954D01*
X98901271Y-135469257D01*
X98833754Y-135306256D01*
X98799334Y-135133215D01*
X98799334Y-134956785D01*
X98833754Y-134783744D01*
X98901271Y-134620743D01*
X98999291Y-134474046D01*
X99124046Y-134349291D01*
X99270743Y-134251271D01*
X99433744Y-134183754D01*
X99606785Y-134149334D01*
X99783215Y-134149334D01*
X99956256Y-134183754D01*
G37*
G36*
X104836256Y-134183754D02*
G01*
X104999257Y-134251271D01*
X105145954Y-134349291D01*
X105270709Y-134474046D01*
X105368729Y-134620743D01*
X105436246Y-134783744D01*
X105470666Y-134956785D01*
X105470666Y-135133215D01*
X105436246Y-135306256D01*
X105368729Y-135469257D01*
X105270709Y-135615954D01*
X105145954Y-135740709D01*
X104999257Y-135838729D01*
X104836256Y-135906246D01*
X104663215Y-135940666D01*
X104486785Y-135940666D01*
X104313744Y-135906246D01*
X104150743Y-135838729D01*
X104004046Y-135740709D01*
X103879291Y-135615954D01*
X103781271Y-135469257D01*
X103713754Y-135306256D01*
X103679334Y-135133215D01*
X103679334Y-134956785D01*
X103713754Y-134783744D01*
X103781271Y-134620743D01*
X103879291Y-134474046D01*
X104004046Y-134349291D01*
X104150743Y-134251271D01*
X104313744Y-134183754D01*
X104486785Y-134149334D01*
X104663215Y-134149334D01*
X104836256Y-134183754D01*
G37*
G36*
X131691742Y-131901601D02*
G01*
X131845687Y-131965367D01*
X131984234Y-132057941D01*
X132102059Y-132175766D01*
X132194633Y-132314313D01*
X132258399Y-132468258D01*
X132290907Y-132631685D01*
X132290907Y-132798315D01*
X132258399Y-132961742D01*
X132194633Y-133115687D01*
X132102059Y-133254234D01*
X131984234Y-133372059D01*
X131845687Y-133464633D01*
X131691742Y-133528399D01*
X131528315Y-133560907D01*
X131361685Y-133560907D01*
X131198258Y-133528399D01*
X131044313Y-133464633D01*
X130905766Y-133372059D01*
X130787941Y-133254234D01*
X130695367Y-133115687D01*
X130631601Y-132961742D01*
X130599093Y-132798315D01*
X130599093Y-132631685D01*
X130631601Y-132468258D01*
X130695367Y-132314313D01*
X130787941Y-132175766D01*
X130905766Y-132057941D01*
X131044313Y-131965367D01*
X131198258Y-131901601D01*
X131361685Y-131869093D01*
X131528315Y-131869093D01*
X131691742Y-131901601D01*
G37*
G36*
X139311742Y-131901601D02*
G01*
X139465687Y-131965367D01*
X139604234Y-132057941D01*
X139722059Y-132175766D01*
X139814633Y-132314313D01*
X139878399Y-132468258D01*
X139910907Y-132631685D01*
X139910907Y-132798315D01*
X139878399Y-132961742D01*
X139814633Y-133115687D01*
X139722059Y-133254234D01*
X139604234Y-133372059D01*
X139465687Y-133464633D01*
X139311742Y-133528399D01*
X139148315Y-133560907D01*
X138981685Y-133560907D01*
X138818258Y-133528399D01*
X138664313Y-133464633D01*
X138525766Y-133372059D01*
X138407941Y-133254234D01*
X138315367Y-133115687D01*
X138251601Y-132961742D01*
X138219093Y-132798315D01*
X138219093Y-132631685D01*
X138251601Y-132468258D01*
X138315367Y-132314313D01*
X138407941Y-132175766D01*
X138525766Y-132057941D01*
X138664313Y-131965367D01*
X138818258Y-131901601D01*
X138981685Y-131869093D01*
X139148315Y-131869093D01*
X139311742Y-131901601D01*
G37*
G36*
X152277403Y-129046418D02*
G01*
X152326066Y-129078934D01*
X152358582Y-129127597D01*
X152370000Y-129185000D01*
X152370000Y-131185000D01*
X152358582Y-131242403D01*
X152326066Y-131291066D01*
X152277403Y-131323582D01*
X152220000Y-131335000D01*
X150220000Y-131335000D01*
X150162597Y-131323582D01*
X150113934Y-131291066D01*
X150081418Y-131242403D01*
X150070000Y-131185000D01*
X150070000Y-129185000D01*
X150081418Y-129127597D01*
X150113934Y-129078934D01*
X150162597Y-129046418D01*
X150220000Y-129035000D01*
X152220000Y-129035000D01*
X152277403Y-129046418D01*
G37*
G36*
X154817403Y-129046418D02*
G01*
X154866066Y-129078934D01*
X154898582Y-129127597D01*
X154910000Y-129185000D01*
X154910000Y-131185000D01*
X154898582Y-131242403D01*
X154866066Y-131291066D01*
X154817403Y-131323582D01*
X154760000Y-131335000D01*
X152760000Y-131335000D01*
X152702597Y-131323582D01*
X152653934Y-131291066D01*
X152621418Y-131242403D01*
X152610000Y-131185000D01*
X152610000Y-129185000D01*
X152621418Y-129127597D01*
X152653934Y-129078934D01*
X152702597Y-129046418D01*
X152760000Y-129035000D01*
X154760000Y-129035000D01*
X154817403Y-129046418D01*
G37*
G36*
X152277403Y-126506418D02*
G01*
X152326066Y-126538934D01*
X152358582Y-126587597D01*
X152370000Y-126645000D01*
X152370000Y-128645000D01*
X152358582Y-128702403D01*
X152326066Y-128751066D01*
X152277403Y-128783582D01*
X152220000Y-128795000D01*
X150220000Y-128795000D01*
X150162597Y-128783582D01*
X150113934Y-128751066D01*
X150081418Y-128702403D01*
X150070000Y-128645000D01*
X150070000Y-126645000D01*
X150081418Y-126587597D01*
X150113934Y-126538934D01*
X150162597Y-126506418D01*
X150220000Y-126495000D01*
X152220000Y-126495000D01*
X152277403Y-126506418D01*
G37*
G36*
X109775770Y-125340907D02*
G01*
X109947827Y-125412175D01*
X110102674Y-125515640D01*
X110234360Y-125647326D01*
X110337825Y-125802173D01*
X110409093Y-125974230D01*
X110445425Y-126156884D01*
X110445425Y-126343116D01*
X110409093Y-126525770D01*
X110337825Y-126697827D01*
X110234360Y-126852674D01*
X110102674Y-126984360D01*
X109947827Y-127087825D01*
X109775770Y-127159093D01*
X109593116Y-127195425D01*
X109406884Y-127195425D01*
X109224230Y-127159093D01*
X109052173Y-127087825D01*
X108897326Y-126984360D01*
X108765640Y-126852674D01*
X108662175Y-126697827D01*
X108590907Y-126525770D01*
X108554575Y-126343116D01*
X108554575Y-126156884D01*
X108590907Y-125974230D01*
X108662175Y-125802173D01*
X108765640Y-125647326D01*
X108897326Y-125515640D01*
X109052173Y-125412175D01*
X109224230Y-125340907D01*
X109406884Y-125304575D01*
X109593116Y-125304575D01*
X109775770Y-125340907D01*
G37*
G36*
X116775770Y-125340907D02*
G01*
X116947827Y-125412175D01*
X117102674Y-125515640D01*
X117234360Y-125647326D01*
X117337825Y-125802173D01*
X117409093Y-125974230D01*
X117445425Y-126156884D01*
X117445425Y-126343116D01*
X117409093Y-126525770D01*
X117337825Y-126697827D01*
X117234360Y-126852674D01*
X117102674Y-126984360D01*
X116947827Y-127087825D01*
X116775770Y-127159093D01*
X116593116Y-127195425D01*
X116406884Y-127195425D01*
X116224230Y-127159093D01*
X116052173Y-127087825D01*
X115897326Y-126984360D01*
X115765640Y-126852674D01*
X115662175Y-126697827D01*
X115590907Y-126525770D01*
X115554575Y-126343116D01*
X115554575Y-126156884D01*
X115590907Y-125974230D01*
X115662175Y-125802173D01*
X115765640Y-125647326D01*
X115897326Y-125515640D01*
X116052173Y-125412175D01*
X116224230Y-125340907D01*
X116406884Y-125304575D01*
X116593116Y-125304575D01*
X116775770Y-125340907D01*
G37*
G36*
X130035770Y-125110907D02*
G01*
X130207827Y-125182175D01*
X130362674Y-125285640D01*
X130494360Y-125417326D01*
X130597825Y-125572173D01*
X130669093Y-125744230D01*
X130705425Y-125926884D01*
X130705425Y-126113116D01*
X130669093Y-126295770D01*
X130597825Y-126467827D01*
X130494360Y-126622674D01*
X130362674Y-126754360D01*
X130207827Y-126857825D01*
X130035770Y-126929093D01*
X129853116Y-126965425D01*
X129666884Y-126965425D01*
X129484230Y-126929093D01*
X129312173Y-126857825D01*
X129157326Y-126754360D01*
X129025640Y-126622674D01*
X128922175Y-126467827D01*
X128850907Y-126295770D01*
X128814575Y-126113116D01*
X128814575Y-125926884D01*
X128850907Y-125744230D01*
X128922175Y-125572173D01*
X129025640Y-125417326D01*
X129157326Y-125285640D01*
X129312173Y-125182175D01*
X129484230Y-125110907D01*
X129666884Y-125074575D01*
X129853116Y-125074575D01*
X130035770Y-125110907D01*
G37*
G36*
X145275770Y-125110907D02*
G01*
X145447827Y-125182175D01*
X145602674Y-125285640D01*
X145734360Y-125417326D01*
X145837825Y-125572173D01*
X145909093Y-125744230D01*
X145945425Y-125926884D01*
X145945425Y-126113116D01*
X145909093Y-126295770D01*
X145837825Y-126467827D01*
X145734360Y-126622674D01*
X145602674Y-126754360D01*
X145447827Y-126857825D01*
X145275770Y-126929093D01*
X145093116Y-126965425D01*
X144906884Y-126965425D01*
X144724230Y-126929093D01*
X144552173Y-126857825D01*
X144397326Y-126754360D01*
X144265640Y-126622674D01*
X144162175Y-126467827D01*
X144090907Y-126295770D01*
X144054575Y-126113116D01*
X144054575Y-125926884D01*
X144090907Y-125744230D01*
X144162175Y-125572173D01*
X144265640Y-125417326D01*
X144397326Y-125285640D01*
X144552173Y-125182175D01*
X144724230Y-125110907D01*
X144906884Y-125074575D01*
X145093116Y-125074575D01*
X145275770Y-125110907D01*
G37*
G36*
X116775770Y-122840907D02*
G01*
X116947827Y-122912175D01*
X117102674Y-123015640D01*
X117234360Y-123147326D01*
X117337825Y-123302173D01*
X117409093Y-123474230D01*
X117445425Y-123656884D01*
X117445425Y-123843116D01*
X117409093Y-124025770D01*
X117337825Y-124197827D01*
X117234360Y-124352674D01*
X117102674Y-124484360D01*
X116947827Y-124587825D01*
X116775770Y-124659093D01*
X116593116Y-124695425D01*
X116406884Y-124695425D01*
X116224230Y-124659093D01*
X116052173Y-124587825D01*
X115897326Y-124484360D01*
X115765640Y-124352674D01*
X115662175Y-124197827D01*
X115590907Y-124025770D01*
X115554575Y-123843116D01*
X115554575Y-123656884D01*
X115590907Y-123474230D01*
X115662175Y-123302173D01*
X115765640Y-123147326D01*
X115897326Y-123015640D01*
X116052173Y-122912175D01*
X116224230Y-122840907D01*
X116406884Y-122804575D01*
X116593116Y-122804575D01*
X116775770Y-122840907D01*
G37*
G36*
X109732228Y-122984448D02*
G01*
X109877117Y-123044463D01*
X110007515Y-123131592D01*
X110118408Y-123242485D01*
X110205537Y-123372883D01*
X110265552Y-123517772D01*
X110296148Y-123671586D01*
X110296148Y-123828414D01*
X110265552Y-123982228D01*
X110205537Y-124127117D01*
X110118408Y-124257515D01*
X110007515Y-124368408D01*
X109877117Y-124455537D01*
X109732228Y-124515552D01*
X109578414Y-124546148D01*
X109421586Y-124546148D01*
X109267772Y-124515552D01*
X109122883Y-124455537D01*
X108992485Y-124368408D01*
X108881592Y-124257515D01*
X108794463Y-124127117D01*
X108734448Y-123982228D01*
X108703852Y-123828414D01*
X108703852Y-123671586D01*
X108734448Y-123517772D01*
X108794463Y-123372883D01*
X108881592Y-123242485D01*
X108992485Y-123131592D01*
X109122883Y-123044463D01*
X109267772Y-122984448D01*
X109421586Y-122953852D01*
X109578414Y-122953852D01*
X109732228Y-122984448D01*
G37*
G36*
X130035770Y-122570907D02*
G01*
X130207827Y-122642175D01*
X130362674Y-122745640D01*
X130494360Y-122877326D01*
X130597825Y-123032173D01*
X130669093Y-123204230D01*
X130705425Y-123386884D01*
X130705425Y-123573116D01*
X130669093Y-123755770D01*
X130597825Y-123927827D01*
X130494360Y-124082674D01*
X130362674Y-124214360D01*
X130207827Y-124317825D01*
X130035770Y-124389093D01*
X129853116Y-124425425D01*
X129666884Y-124425425D01*
X129484230Y-124389093D01*
X129312173Y-124317825D01*
X129157326Y-124214360D01*
X129025640Y-124082674D01*
X128922175Y-123927827D01*
X128850907Y-123755770D01*
X128814575Y-123573116D01*
X128814575Y-123386884D01*
X128850907Y-123204230D01*
X128922175Y-123032173D01*
X129025640Y-122877326D01*
X129157326Y-122745640D01*
X129312173Y-122642175D01*
X129484230Y-122570907D01*
X129666884Y-122534575D01*
X129853116Y-122534575D01*
X130035770Y-122570907D01*
G37*
G36*
X145275770Y-122570907D02*
G01*
X145447827Y-122642175D01*
X145602674Y-122745640D01*
X145734360Y-122877326D01*
X145837825Y-123032173D01*
X145909093Y-123204230D01*
X145945425Y-123386884D01*
X145945425Y-123573116D01*
X145909093Y-123755770D01*
X145837825Y-123927827D01*
X145734360Y-124082674D01*
X145602674Y-124214360D01*
X145447827Y-124317825D01*
X145275770Y-124389093D01*
X145093116Y-124425425D01*
X144906884Y-124425425D01*
X144724230Y-124389093D01*
X144552173Y-124317825D01*
X144397326Y-124214360D01*
X144265640Y-124082674D01*
X144162175Y-123927827D01*
X144090907Y-123755770D01*
X144054575Y-123573116D01*
X144054575Y-123386884D01*
X144090907Y-123204230D01*
X144162175Y-123032173D01*
X144265640Y-122877326D01*
X144397326Y-122745640D01*
X144552173Y-122642175D01*
X144724230Y-122570907D01*
X144906884Y-122534575D01*
X145093116Y-122534575D01*
X145275770Y-122570907D01*
G37*
G36*
X130035770Y-120030907D02*
G01*
X130207827Y-120102175D01*
X130362674Y-120205640D01*
X130494360Y-120337326D01*
X130597825Y-120492173D01*
X130669093Y-120664230D01*
X130705425Y-120846884D01*
X130705425Y-121033116D01*
X130669093Y-121215770D01*
X130597825Y-121387827D01*
X130494360Y-121542674D01*
X130362674Y-121674360D01*
X130207827Y-121777825D01*
X130035770Y-121849093D01*
X129853116Y-121885425D01*
X129666884Y-121885425D01*
X129484230Y-121849093D01*
X129312173Y-121777825D01*
X129157326Y-121674360D01*
X129025640Y-121542674D01*
X128922175Y-121387827D01*
X128850907Y-121215770D01*
X128814575Y-121033116D01*
X128814575Y-120846884D01*
X128850907Y-120664230D01*
X128922175Y-120492173D01*
X129025640Y-120337326D01*
X129157326Y-120205640D01*
X129312173Y-120102175D01*
X129484230Y-120030907D01*
X129666884Y-119994575D01*
X129853116Y-119994575D01*
X130035770Y-120030907D01*
G37*
G36*
X145275770Y-120030907D02*
G01*
X145447827Y-120102175D01*
X145602674Y-120205640D01*
X145734360Y-120337326D01*
X145837825Y-120492173D01*
X145909093Y-120664230D01*
X145945425Y-120846884D01*
X145945425Y-121033116D01*
X145909093Y-121215770D01*
X145837825Y-121387827D01*
X145734360Y-121542674D01*
X145602674Y-121674360D01*
X145447827Y-121777825D01*
X145275770Y-121849093D01*
X145093116Y-121885425D01*
X144906884Y-121885425D01*
X144724230Y-121849093D01*
X144552173Y-121777825D01*
X144397326Y-121674360D01*
X144265640Y-121542674D01*
X144162175Y-121387827D01*
X144090907Y-121215770D01*
X144054575Y-121033116D01*
X144054575Y-120846884D01*
X144090907Y-120664230D01*
X144162175Y-120492173D01*
X144265640Y-120337326D01*
X144397326Y-120205640D01*
X144552173Y-120102175D01*
X144724230Y-120030907D01*
X144906884Y-119994575D01*
X145093116Y-119994575D01*
X145275770Y-120030907D01*
G37*
G36*
X130035770Y-117490907D02*
G01*
X130207827Y-117562175D01*
X130362674Y-117665640D01*
X130494360Y-117797326D01*
X130597825Y-117952173D01*
X130669093Y-118124230D01*
X130705425Y-118306884D01*
X130705425Y-118493116D01*
X130669093Y-118675770D01*
X130597825Y-118847827D01*
X130494360Y-119002674D01*
X130362674Y-119134360D01*
X130207827Y-119237825D01*
X130035770Y-119309093D01*
X129853116Y-119345425D01*
X129666884Y-119345425D01*
X129484230Y-119309093D01*
X129312173Y-119237825D01*
X129157326Y-119134360D01*
X129025640Y-119002674D01*
X128922175Y-118847827D01*
X128850907Y-118675770D01*
X128814575Y-118493116D01*
X128814575Y-118306884D01*
X128850907Y-118124230D01*
X128922175Y-117952173D01*
X129025640Y-117797326D01*
X129157326Y-117665640D01*
X129312173Y-117562175D01*
X129484230Y-117490907D01*
X129666884Y-117454575D01*
X129853116Y-117454575D01*
X130035770Y-117490907D01*
G37*
G36*
X145275770Y-117490907D02*
G01*
X145447827Y-117562175D01*
X145602674Y-117665640D01*
X145734360Y-117797326D01*
X145837825Y-117952173D01*
X145909093Y-118124230D01*
X145945425Y-118306884D01*
X145945425Y-118493116D01*
X145909093Y-118675770D01*
X145837825Y-118847827D01*
X145734360Y-119002674D01*
X145602674Y-119134360D01*
X145447827Y-119237825D01*
X145275770Y-119309093D01*
X145093116Y-119345425D01*
X144906884Y-119345425D01*
X144724230Y-119309093D01*
X144552173Y-119237825D01*
X144397326Y-119134360D01*
X144265640Y-119002674D01*
X144162175Y-118847827D01*
X144090907Y-118675770D01*
X144054575Y-118493116D01*
X144054575Y-118306884D01*
X144090907Y-118124230D01*
X144162175Y-117952173D01*
X144265640Y-117797326D01*
X144397326Y-117665640D01*
X144552173Y-117562175D01*
X144724230Y-117490907D01*
X144906884Y-117454575D01*
X145093116Y-117454575D01*
X145275770Y-117490907D01*
G37*
G36*
X130035770Y-114950907D02*
G01*
X130207827Y-115022175D01*
X130362674Y-115125640D01*
X130494360Y-115257326D01*
X130597825Y-115412173D01*
X130669093Y-115584230D01*
X130705425Y-115766884D01*
X130705425Y-115953116D01*
X130669093Y-116135770D01*
X130597825Y-116307827D01*
X130494360Y-116462674D01*
X130362674Y-116594360D01*
X130207827Y-116697825D01*
X130035770Y-116769093D01*
X129853116Y-116805425D01*
X129666884Y-116805425D01*
X129484230Y-116769093D01*
X129312173Y-116697825D01*
X129157326Y-116594360D01*
X129025640Y-116462674D01*
X128922175Y-116307827D01*
X128850907Y-116135770D01*
X128814575Y-115953116D01*
X128814575Y-115766884D01*
X128850907Y-115584230D01*
X128922175Y-115412173D01*
X129025640Y-115257326D01*
X129157326Y-115125640D01*
X129312173Y-115022175D01*
X129484230Y-114950907D01*
X129666884Y-114914575D01*
X129853116Y-114914575D01*
X130035770Y-114950907D01*
G37*
G36*
X145275770Y-114950907D02*
G01*
X145447827Y-115022175D01*
X145602674Y-115125640D01*
X145734360Y-115257326D01*
X145837825Y-115412173D01*
X145909093Y-115584230D01*
X145945425Y-115766884D01*
X145945425Y-115953116D01*
X145909093Y-116135770D01*
X145837825Y-116307827D01*
X145734360Y-116462674D01*
X145602674Y-116594360D01*
X145447827Y-116697825D01*
X145275770Y-116769093D01*
X145093116Y-116805425D01*
X144906884Y-116805425D01*
X144724230Y-116769093D01*
X144552173Y-116697825D01*
X144397326Y-116594360D01*
X144265640Y-116462674D01*
X144162175Y-116307827D01*
X144090907Y-116135770D01*
X144054575Y-115953116D01*
X144054575Y-115766884D01*
X144090907Y-115584230D01*
X144162175Y-115412173D01*
X144265640Y-115257326D01*
X144397326Y-115125640D01*
X144552173Y-115022175D01*
X144724230Y-114950907D01*
X144906884Y-114914575D01*
X145093116Y-114914575D01*
X145275770Y-114950907D01*
G37*
G36*
X154046824Y-111763682D02*
G01*
X154255757Y-111831569D01*
X154451498Y-111931304D01*
X154629227Y-112060432D01*
X154784568Y-112215773D01*
X154913696Y-112393502D01*
X155013431Y-112589243D01*
X155081318Y-112798176D01*
X155115684Y-113015157D01*
X155115684Y-113234843D01*
X155081318Y-113451824D01*
X155013431Y-113660757D01*
X154913696Y-113856498D01*
X154784568Y-114034227D01*
X154629227Y-114189568D01*
X154451498Y-114318696D01*
X154255757Y-114418431D01*
X154046824Y-114486318D01*
X153829843Y-114520684D01*
X153610157Y-114520684D01*
X153393176Y-114486318D01*
X153184243Y-114418431D01*
X152988502Y-114318696D01*
X152810773Y-114189568D01*
X152655432Y-114034227D01*
X152526304Y-113856498D01*
X152426569Y-113660757D01*
X152358682Y-113451824D01*
X152324316Y-113234843D01*
X152324316Y-113015157D01*
X152358682Y-112798176D01*
X152426569Y-112589243D01*
X152526304Y-112393502D01*
X152655432Y-112215773D01*
X152810773Y-112060432D01*
X152988502Y-111931304D01*
X153184243Y-111831569D01*
X153393176Y-111763682D01*
X153610157Y-111729316D01*
X153829843Y-111729316D01*
X154046824Y-111763682D01*
G37*
G36*
X230046824Y-111763682D02*
G01*
X230255757Y-111831569D01*
X230451498Y-111931304D01*
X230629227Y-112060432D01*
X230784568Y-112215773D01*
X230913696Y-112393502D01*
X231013431Y-112589243D01*
X231081318Y-112798176D01*
X231115684Y-113015157D01*
X231115684Y-113234843D01*
X231081318Y-113451824D01*
X231013431Y-113660757D01*
X230913696Y-113856498D01*
X230784568Y-114034227D01*
X230629227Y-114189568D01*
X230451498Y-114318696D01*
X230255757Y-114418431D01*
X230046824Y-114486318D01*
X229829843Y-114520684D01*
X229610157Y-114520684D01*
X229393176Y-114486318D01*
X229184243Y-114418431D01*
X228988502Y-114318696D01*
X228810773Y-114189568D01*
X228655432Y-114034227D01*
X228526304Y-113856498D01*
X228426569Y-113660757D01*
X228358682Y-113451824D01*
X228324316Y-113234843D01*
X228324316Y-113015157D01*
X228358682Y-112798176D01*
X228426569Y-112589243D01*
X228526304Y-112393502D01*
X228655432Y-112215773D01*
X228810773Y-112060432D01*
X228988502Y-111931304D01*
X229184243Y-111831569D01*
X229393176Y-111763682D01*
X229610157Y-111729316D01*
X229829843Y-111729316D01*
X230046824Y-111763682D01*
G37*
G36*
X130035770Y-112410907D02*
G01*
X130207827Y-112482175D01*
X130362674Y-112585640D01*
X130494360Y-112717326D01*
X130597825Y-112872173D01*
X130669093Y-113044230D01*
X130705425Y-113226884D01*
X130705425Y-113413116D01*
X130669093Y-113595770D01*
X130597825Y-113767827D01*
X130494360Y-113922674D01*
X130362674Y-114054360D01*
X130207827Y-114157825D01*
X130035770Y-114229093D01*
X129853116Y-114265425D01*
X129666884Y-114265425D01*
X129484230Y-114229093D01*
X129312173Y-114157825D01*
X129157326Y-114054360D01*
X129025640Y-113922674D01*
X128922175Y-113767827D01*
X128850907Y-113595770D01*
X128814575Y-113413116D01*
X128814575Y-113226884D01*
X128850907Y-113044230D01*
X128922175Y-112872173D01*
X129025640Y-112717326D01*
X129157326Y-112585640D01*
X129312173Y-112482175D01*
X129484230Y-112410907D01*
X129666884Y-112374575D01*
X129853116Y-112374575D01*
X130035770Y-112410907D01*
G37*
G36*
X145275770Y-112410907D02*
G01*
X145447827Y-112482175D01*
X145602674Y-112585640D01*
X145734360Y-112717326D01*
X145837825Y-112872173D01*
X145909093Y-113044230D01*
X145945425Y-113226884D01*
X145945425Y-113413116D01*
X145909093Y-113595770D01*
X145837825Y-113767827D01*
X145734360Y-113922674D01*
X145602674Y-114054360D01*
X145447827Y-114157825D01*
X145275770Y-114229093D01*
X145093116Y-114265425D01*
X144906884Y-114265425D01*
X144724230Y-114229093D01*
X144552173Y-114157825D01*
X144397326Y-114054360D01*
X144265640Y-113922674D01*
X144162175Y-113767827D01*
X144090907Y-113595770D01*
X144054575Y-113413116D01*
X144054575Y-113226884D01*
X144090907Y-113044230D01*
X144162175Y-112872173D01*
X144265640Y-112717326D01*
X144397326Y-112585640D01*
X144552173Y-112482175D01*
X144724230Y-112410907D01*
X144906884Y-112374575D01*
X145093116Y-112374575D01*
X145275770Y-112410907D01*
G37*
G36*
X101268462Y-111381775D02*
G01*
X101440086Y-111437539D01*
X101600873Y-111519464D01*
X101746865Y-111625533D01*
X101874467Y-111753135D01*
X101980536Y-111899127D01*
X102062461Y-112059914D01*
X102118225Y-112231538D01*
X102146455Y-112409772D01*
X102146455Y-112590228D01*
X102118225Y-112768462D01*
X102062461Y-112940086D01*
X101980536Y-113100873D01*
X101874467Y-113246865D01*
X101746865Y-113374467D01*
X101600873Y-113480536D01*
X101440086Y-113562461D01*
X101268462Y-113618225D01*
X101090228Y-113646455D01*
X100909772Y-113646455D01*
X100731538Y-113618225D01*
X100559914Y-113562461D01*
X100399127Y-113480536D01*
X100253135Y-113374467D01*
X100125533Y-113246865D01*
X100019464Y-113100873D01*
X99937539Y-112940086D01*
X99881775Y-112768462D01*
X99853545Y-112590228D01*
X99853545Y-112409772D01*
X99881775Y-112231538D01*
X99937539Y-112059914D01*
X100019464Y-111899127D01*
X100125533Y-111753135D01*
X100253135Y-111625533D01*
X100399127Y-111519464D01*
X100559914Y-111437539D01*
X100731538Y-111381775D01*
X100909772Y-111353545D01*
X101090228Y-111353545D01*
X101268462Y-111381775D01*
G37*
G36*
X107768462Y-111381775D02*
G01*
X107940086Y-111437539D01*
X108100873Y-111519464D01*
X108246865Y-111625533D01*
X108374467Y-111753135D01*
X108480536Y-111899127D01*
X108562461Y-112059914D01*
X108618225Y-112231538D01*
X108646455Y-112409772D01*
X108646455Y-112590228D01*
X108618225Y-112768462D01*
X108562461Y-112940086D01*
X108480536Y-113100873D01*
X108374467Y-113246865D01*
X108246865Y-113374467D01*
X108100873Y-113480536D01*
X107940086Y-113562461D01*
X107768462Y-113618225D01*
X107590228Y-113646455D01*
X107409772Y-113646455D01*
X107231538Y-113618225D01*
X107059914Y-113562461D01*
X106899127Y-113480536D01*
X106753135Y-113374467D01*
X106625533Y-113246865D01*
X106519464Y-113100873D01*
X106437539Y-112940086D01*
X106381775Y-112768462D01*
X106353545Y-112590228D01*
X106353545Y-112409772D01*
X106381775Y-112231538D01*
X106437539Y-112059914D01*
X106519464Y-111899127D01*
X106625533Y-111753135D01*
X106753135Y-111625533D01*
X106899127Y-111519464D01*
X107059914Y-111437539D01*
X107231538Y-111381775D01*
X107409772Y-111353545D01*
X107590228Y-111353545D01*
X107768462Y-111381775D01*
G37*
G36*
X191457403Y-109686418D02*
G01*
X191506066Y-109718934D01*
X191538582Y-109767597D01*
X191550000Y-109825000D01*
X191550000Y-112425000D01*
X191538582Y-112482403D01*
X191506066Y-112531066D01*
X191457403Y-112563582D01*
X191400000Y-112575000D01*
X189600000Y-112575000D01*
X189542597Y-112563582D01*
X189493934Y-112531066D01*
X189461418Y-112482403D01*
X189450000Y-112425000D01*
X189450000Y-109825000D01*
X189461418Y-109767597D01*
X189493934Y-109718934D01*
X189542597Y-109686418D01*
X189600000Y-109675000D01*
X191400000Y-109675000D01*
X191457403Y-109686418D01*
G37*
G36*
X188057468Y-109682596D02*
G01*
X188067998Y-109682596D01*
X188109147Y-109690781D01*
X188210147Y-109706778D01*
X188242634Y-109717333D01*
X188269879Y-109722753D01*
X188308322Y-109738676D01*
X188366809Y-109757680D01*
X188421601Y-109785598D01*
X188460047Y-109801523D01*
X188483144Y-109816956D01*
X188513578Y-109832463D01*
X188596306Y-109892568D01*
X188631193Y-109915879D01*
X188638638Y-109923324D01*
X188646852Y-109929292D01*
X188763327Y-110045767D01*
X188769294Y-110053980D01*
X188776741Y-110061427D01*
X188800054Y-110096318D01*
X188860156Y-110179041D01*
X188875661Y-110209472D01*
X188891097Y-110232573D01*
X188907023Y-110271023D01*
X188934939Y-110325810D01*
X188953940Y-110384289D01*
X188969867Y-110422741D01*
X188975287Y-110449991D01*
X188985841Y-110482472D01*
X189001834Y-110583451D01*
X189010024Y-110624622D01*
X189010774Y-110639894D01*
X189011843Y-110646642D01*
X189014791Y-110721672D01*
X189015080Y-110727540D01*
X189015080Y-111527540D01*
X189014791Y-111533411D01*
X189011843Y-111608437D01*
X189010774Y-111615184D01*
X189010024Y-111630458D01*
X189001833Y-111671632D01*
X188985841Y-111772607D01*
X188975287Y-111805086D01*
X188969867Y-111832339D01*
X188953938Y-111870793D01*
X188934939Y-111929269D01*
X188907025Y-111984051D01*
X188891097Y-112022507D01*
X188875659Y-112045610D01*
X188860156Y-112076038D01*
X188800063Y-112158748D01*
X188776741Y-112193653D01*
X188769291Y-112201102D01*
X188763327Y-112209312D01*
X188646852Y-112325787D01*
X188638642Y-112331751D01*
X188631193Y-112339201D01*
X188596288Y-112362523D01*
X188513578Y-112422616D01*
X188483150Y-112438119D01*
X188460047Y-112453557D01*
X188421591Y-112469485D01*
X188366809Y-112497399D01*
X188308333Y-112516398D01*
X188269879Y-112532327D01*
X188242626Y-112537747D01*
X188210147Y-112548301D01*
X188109156Y-112564296D01*
X188067998Y-112572484D01*
X188057468Y-112572484D01*
X188047442Y-112574072D01*
X187882718Y-112574072D01*
X187872692Y-112572484D01*
X187862162Y-112572484D01*
X187821004Y-112564297D01*
X187720012Y-112548301D01*
X187687531Y-112537747D01*
X187660281Y-112532327D01*
X187621829Y-112516400D01*
X187563350Y-112497399D01*
X187508563Y-112469483D01*
X187470113Y-112453557D01*
X187447012Y-112438121D01*
X187416581Y-112422616D01*
X187333858Y-112362514D01*
X187298967Y-112339201D01*
X187291520Y-112331754D01*
X187283307Y-112325787D01*
X187166832Y-112209312D01*
X187160864Y-112201098D01*
X187153419Y-112193653D01*
X187130108Y-112158766D01*
X187070003Y-112076038D01*
X187054496Y-112045604D01*
X187039063Y-112022507D01*
X187023138Y-111984061D01*
X186995220Y-111929269D01*
X186976216Y-111870782D01*
X186960293Y-111832339D01*
X186954873Y-111805094D01*
X186944318Y-111772607D01*
X186928321Y-111671607D01*
X186920136Y-111630458D01*
X186919386Y-111615193D01*
X186918316Y-111608437D01*
X186915368Y-111533402D01*
X186915080Y-111527540D01*
X186915080Y-110727540D01*
X186915367Y-110721681D01*
X186918316Y-110646642D01*
X186919386Y-110639885D01*
X186920136Y-110624622D01*
X186928320Y-110583476D01*
X186944318Y-110482472D01*
X186954874Y-110449983D01*
X186960293Y-110422741D01*
X186976215Y-110384301D01*
X186995220Y-110325810D01*
X187023140Y-110271012D01*
X187039063Y-110232573D01*
X187054494Y-110209478D01*
X187070003Y-110179041D01*
X187130116Y-110096301D01*
X187153419Y-110061427D01*
X187160862Y-110053983D01*
X187166832Y-110045767D01*
X187283307Y-109929292D01*
X187291523Y-109923322D01*
X187298967Y-109915879D01*
X187333841Y-109892576D01*
X187416581Y-109832463D01*
X187447018Y-109816954D01*
X187470113Y-109801523D01*
X187508552Y-109785600D01*
X187563350Y-109757680D01*
X187621841Y-109738675D01*
X187660281Y-109722753D01*
X187687523Y-109717334D01*
X187720012Y-109706778D01*
X187821014Y-109690780D01*
X187862162Y-109682596D01*
X187872692Y-109682596D01*
X187882718Y-109681008D01*
X188047442Y-109681008D01*
X188057468Y-109682596D01*
G37*
G36*
X221077468Y-109682596D02*
G01*
X221087998Y-109682596D01*
X221129147Y-109690781D01*
X221230147Y-109706778D01*
X221262634Y-109717333D01*
X221289879Y-109722753D01*
X221328322Y-109738676D01*
X221386809Y-109757680D01*
X221441601Y-109785598D01*
X221480047Y-109801523D01*
X221503144Y-109816956D01*
X221533578Y-109832463D01*
X221616306Y-109892568D01*
X221651193Y-109915879D01*
X221658638Y-109923324D01*
X221666852Y-109929292D01*
X221783327Y-110045767D01*
X221789294Y-110053980D01*
X221796741Y-110061427D01*
X221820054Y-110096318D01*
X221880156Y-110179041D01*
X221895661Y-110209472D01*
X221911097Y-110232573D01*
X221927023Y-110271023D01*
X221954939Y-110325810D01*
X221973940Y-110384289D01*
X221989867Y-110422741D01*
X221995287Y-110449991D01*
X222005841Y-110482472D01*
X222021834Y-110583451D01*
X222030024Y-110624622D01*
X222030774Y-110639894D01*
X222031843Y-110646642D01*
X222034791Y-110721672D01*
X222035080Y-110727540D01*
X222035080Y-111527540D01*
X222034791Y-111533411D01*
X222031843Y-111608437D01*
X222030774Y-111615184D01*
X222030024Y-111630458D01*
X222021833Y-111671632D01*
X222005841Y-111772607D01*
X221995287Y-111805086D01*
X221989867Y-111832339D01*
X221973938Y-111870793D01*
X221954939Y-111929269D01*
X221927025Y-111984051D01*
X221911097Y-112022507D01*
X221895659Y-112045610D01*
X221880156Y-112076038D01*
X221820063Y-112158748D01*
X221796741Y-112193653D01*
X221789291Y-112201102D01*
X221783327Y-112209312D01*
X221666852Y-112325787D01*
X221658642Y-112331751D01*
X221651193Y-112339201D01*
X221616288Y-112362523D01*
X221533578Y-112422616D01*
X221503150Y-112438119D01*
X221480047Y-112453557D01*
X221441591Y-112469485D01*
X221386809Y-112497399D01*
X221328333Y-112516398D01*
X221289879Y-112532327D01*
X221262626Y-112537747D01*
X221230147Y-112548301D01*
X221129156Y-112564296D01*
X221087998Y-112572484D01*
X221077468Y-112572484D01*
X221067442Y-112574072D01*
X220902718Y-112574072D01*
X220892692Y-112572484D01*
X220882162Y-112572484D01*
X220841004Y-112564297D01*
X220740012Y-112548301D01*
X220707531Y-112537747D01*
X220680281Y-112532327D01*
X220641829Y-112516400D01*
X220583350Y-112497399D01*
X220528563Y-112469483D01*
X220490113Y-112453557D01*
X220467012Y-112438121D01*
X220436581Y-112422616D01*
X220353858Y-112362514D01*
X220318967Y-112339201D01*
X220311520Y-112331754D01*
X220303307Y-112325787D01*
X220186832Y-112209312D01*
X220180864Y-112201098D01*
X220173419Y-112193653D01*
X220150108Y-112158766D01*
X220090003Y-112076038D01*
X220074496Y-112045604D01*
X220059063Y-112022507D01*
X220043138Y-111984061D01*
X220015220Y-111929269D01*
X219996216Y-111870782D01*
X219980293Y-111832339D01*
X219974873Y-111805094D01*
X219964318Y-111772607D01*
X219948321Y-111671607D01*
X219940136Y-111630458D01*
X219939386Y-111615193D01*
X219938316Y-111608437D01*
X219935368Y-111533402D01*
X219935080Y-111527540D01*
X219935080Y-110727540D01*
X219935367Y-110721681D01*
X219938316Y-110646642D01*
X219939386Y-110639885D01*
X219940136Y-110624622D01*
X219948320Y-110583476D01*
X219964318Y-110482472D01*
X219974874Y-110449983D01*
X219980293Y-110422741D01*
X219996215Y-110384301D01*
X220015220Y-110325810D01*
X220043140Y-110271012D01*
X220059063Y-110232573D01*
X220074494Y-110209478D01*
X220090003Y-110179041D01*
X220150116Y-110096301D01*
X220173419Y-110061427D01*
X220180862Y-110053983D01*
X220186832Y-110045767D01*
X220303307Y-109929292D01*
X220311523Y-109923322D01*
X220318967Y-109915879D01*
X220353841Y-109892576D01*
X220436581Y-109832463D01*
X220467018Y-109816954D01*
X220490113Y-109801523D01*
X220528552Y-109785600D01*
X220583350Y-109757680D01*
X220641841Y-109738675D01*
X220680281Y-109722753D01*
X220707523Y-109717334D01*
X220740012Y-109706778D01*
X220841014Y-109690780D01*
X220882162Y-109682596D01*
X220892692Y-109682596D01*
X220902718Y-109681008D01*
X221067442Y-109681008D01*
X221077468Y-109682596D01*
G37*
G36*
X185512388Y-109680056D02*
G01*
X185522918Y-109680056D01*
X185564067Y-109688241D01*
X185665067Y-109704238D01*
X185697554Y-109714793D01*
X185724799Y-109720213D01*
X185763242Y-109736136D01*
X185821729Y-109755140D01*
X185876521Y-109783058D01*
X185914967Y-109798983D01*
X185938064Y-109814416D01*
X185968498Y-109829923D01*
X186051226Y-109890028D01*
X186086113Y-109913339D01*
X186093558Y-109920784D01*
X186101772Y-109926752D01*
X186218247Y-110043227D01*
X186224214Y-110051440D01*
X186231661Y-110058887D01*
X186254974Y-110093778D01*
X186315076Y-110176501D01*
X186330581Y-110206932D01*
X186346017Y-110230033D01*
X186361943Y-110268483D01*
X186389859Y-110323270D01*
X186408860Y-110381749D01*
X186424787Y-110420201D01*
X186430207Y-110447451D01*
X186440761Y-110479932D01*
X186456754Y-110580911D01*
X186464944Y-110622082D01*
X186465694Y-110637354D01*
X186466763Y-110644102D01*
X186469711Y-110719132D01*
X186470000Y-110725000D01*
X186470000Y-111525000D01*
X186469711Y-111530871D01*
X186466763Y-111605897D01*
X186465694Y-111612644D01*
X186464944Y-111627918D01*
X186456753Y-111669092D01*
X186440761Y-111770067D01*
X186430207Y-111802546D01*
X186424787Y-111829799D01*
X186408858Y-111868253D01*
X186389859Y-111926729D01*
X186361945Y-111981511D01*
X186346017Y-112019967D01*
X186330579Y-112043070D01*
X186315076Y-112073498D01*
X186254983Y-112156208D01*
X186231661Y-112191113D01*
X186224211Y-112198562D01*
X186218247Y-112206772D01*
X186101772Y-112323247D01*
X186093562Y-112329211D01*
X186086113Y-112336661D01*
X186051208Y-112359983D01*
X185968498Y-112420076D01*
X185938070Y-112435579D01*
X185914967Y-112451017D01*
X185876511Y-112466945D01*
X185821729Y-112494859D01*
X185763253Y-112513858D01*
X185724799Y-112529787D01*
X185697546Y-112535207D01*
X185665067Y-112545761D01*
X185564076Y-112561756D01*
X185522918Y-112569944D01*
X185512388Y-112569944D01*
X185502362Y-112571532D01*
X185337638Y-112571532D01*
X185327612Y-112569944D01*
X185317082Y-112569944D01*
X185275924Y-112561757D01*
X185174932Y-112545761D01*
X185142451Y-112535207D01*
X185115201Y-112529787D01*
X185076749Y-112513860D01*
X185018270Y-112494859D01*
X184963483Y-112466943D01*
X184925033Y-112451017D01*
X184901932Y-112435581D01*
X184871501Y-112420076D01*
X184788778Y-112359974D01*
X184753887Y-112336661D01*
X184746440Y-112329214D01*
X184738227Y-112323247D01*
X184621752Y-112206772D01*
X184615784Y-112198558D01*
X184608339Y-112191113D01*
X184585028Y-112156226D01*
X184524923Y-112073498D01*
X184509416Y-112043064D01*
X184493983Y-112019967D01*
X184478058Y-111981521D01*
X184450140Y-111926729D01*
X184431136Y-111868242D01*
X184415213Y-111829799D01*
X184409793Y-111802554D01*
X184399238Y-111770067D01*
X184383241Y-111669067D01*
X184375056Y-111627918D01*
X184374306Y-111612653D01*
X184373236Y-111605897D01*
X184370288Y-111530862D01*
X184370000Y-111525000D01*
X184370000Y-110725000D01*
X184370287Y-110719141D01*
X184373236Y-110644102D01*
X184374306Y-110637345D01*
X184375056Y-110622082D01*
X184383240Y-110580936D01*
X184399238Y-110479932D01*
X184409794Y-110447443D01*
X184415213Y-110420201D01*
X184431135Y-110381761D01*
X184450140Y-110323270D01*
X184478060Y-110268472D01*
X184493983Y-110230033D01*
X184509414Y-110206938D01*
X184524923Y-110176501D01*
X184585036Y-110093761D01*
X184608339Y-110058887D01*
X184615782Y-110051443D01*
X184621752Y-110043227D01*
X184738227Y-109926752D01*
X184746443Y-109920782D01*
X184753887Y-109913339D01*
X184788761Y-109890036D01*
X184871501Y-109829923D01*
X184901938Y-109814414D01*
X184925033Y-109798983D01*
X184963472Y-109783060D01*
X185018270Y-109755140D01*
X185076761Y-109736135D01*
X185115201Y-109720213D01*
X185142443Y-109714794D01*
X185174932Y-109704238D01*
X185275934Y-109688240D01*
X185317082Y-109680056D01*
X185327612Y-109680056D01*
X185337638Y-109678468D01*
X185502362Y-109678468D01*
X185512388Y-109680056D01*
G37*
G36*
X193132388Y-109680056D02*
G01*
X193142918Y-109680056D01*
X193184067Y-109688241D01*
X193285067Y-109704238D01*
X193317554Y-109714793D01*
X193344799Y-109720213D01*
X193383242Y-109736136D01*
X193441729Y-109755140D01*
X193496521Y-109783058D01*
X193534967Y-109798983D01*
X193558064Y-109814416D01*
X193588498Y-109829923D01*
X193671226Y-109890028D01*
X193706113Y-109913339D01*
X193713558Y-109920784D01*
X193721772Y-109926752D01*
X193838247Y-110043227D01*
X193844214Y-110051440D01*
X193851661Y-110058887D01*
X193874974Y-110093778D01*
X193935076Y-110176501D01*
X193950581Y-110206932D01*
X193966017Y-110230033D01*
X193981943Y-110268483D01*
X194009859Y-110323270D01*
X194028860Y-110381749D01*
X194044787Y-110420201D01*
X194050207Y-110447451D01*
X194060761Y-110479932D01*
X194076754Y-110580911D01*
X194084944Y-110622082D01*
X194085694Y-110637354D01*
X194086763Y-110644102D01*
X194089711Y-110719132D01*
X194090000Y-110725000D01*
X194090000Y-111525000D01*
X194089711Y-111530871D01*
X194086763Y-111605897D01*
X194085694Y-111612644D01*
X194084944Y-111627918D01*
X194076753Y-111669092D01*
X194060761Y-111770067D01*
X194050207Y-111802546D01*
X194044787Y-111829799D01*
X194028858Y-111868253D01*
X194009859Y-111926729D01*
X193981945Y-111981511D01*
X193966017Y-112019967D01*
X193950579Y-112043070D01*
X193935076Y-112073498D01*
X193874983Y-112156208D01*
X193851661Y-112191113D01*
X193844211Y-112198562D01*
X193838247Y-112206772D01*
X193721772Y-112323247D01*
X193713562Y-112329211D01*
X193706113Y-112336661D01*
X193671208Y-112359983D01*
X193588498Y-112420076D01*
X193558070Y-112435579D01*
X193534967Y-112451017D01*
X193496511Y-112466945D01*
X193441729Y-112494859D01*
X193383253Y-112513858D01*
X193344799Y-112529787D01*
X193317546Y-112535207D01*
X193285067Y-112545761D01*
X193184076Y-112561756D01*
X193142918Y-112569944D01*
X193132388Y-112569944D01*
X193122362Y-112571532D01*
X192957638Y-112571532D01*
X192947612Y-112569944D01*
X192937082Y-112569944D01*
X192895924Y-112561757D01*
X192794932Y-112545761D01*
X192762451Y-112535207D01*
X192735201Y-112529787D01*
X192696749Y-112513860D01*
X192638270Y-112494859D01*
X192583483Y-112466943D01*
X192545033Y-112451017D01*
X192521932Y-112435581D01*
X192491501Y-112420076D01*
X192408778Y-112359974D01*
X192373887Y-112336661D01*
X192366440Y-112329214D01*
X192358227Y-112323247D01*
X192241752Y-112206772D01*
X192235784Y-112198558D01*
X192228339Y-112191113D01*
X192205028Y-112156226D01*
X192144923Y-112073498D01*
X192129416Y-112043064D01*
X192113983Y-112019967D01*
X192098058Y-111981521D01*
X192070140Y-111926729D01*
X192051136Y-111868242D01*
X192035213Y-111829799D01*
X192029793Y-111802554D01*
X192019238Y-111770067D01*
X192003241Y-111669067D01*
X191995056Y-111627918D01*
X191994306Y-111612653D01*
X191993236Y-111605897D01*
X191990288Y-111530862D01*
X191990000Y-111525000D01*
X191990000Y-110725000D01*
X191990287Y-110719141D01*
X191993236Y-110644102D01*
X191994306Y-110637345D01*
X191995056Y-110622082D01*
X192003240Y-110580936D01*
X192019238Y-110479932D01*
X192029794Y-110447443D01*
X192035213Y-110420201D01*
X192051135Y-110381761D01*
X192070140Y-110323270D01*
X192098060Y-110268472D01*
X192113983Y-110230033D01*
X192129414Y-110206938D01*
X192144923Y-110176501D01*
X192205036Y-110093761D01*
X192228339Y-110058887D01*
X192235782Y-110051443D01*
X192241752Y-110043227D01*
X192358227Y-109926752D01*
X192366443Y-109920782D01*
X192373887Y-109913339D01*
X192408761Y-109890036D01*
X192491501Y-109829923D01*
X192521938Y-109814414D01*
X192545033Y-109798983D01*
X192583472Y-109783060D01*
X192638270Y-109755140D01*
X192696761Y-109736135D01*
X192735201Y-109720213D01*
X192762443Y-109714794D01*
X192794932Y-109704238D01*
X192895934Y-109688240D01*
X192937082Y-109680056D01*
X192947612Y-109680056D01*
X192957638Y-109678468D01*
X193122362Y-109678468D01*
X193132388Y-109680056D01*
G37*
G36*
X195672388Y-109680056D02*
G01*
X195682918Y-109680056D01*
X195724067Y-109688241D01*
X195825067Y-109704238D01*
X195857554Y-109714793D01*
X195884799Y-109720213D01*
X195923242Y-109736136D01*
X195981729Y-109755140D01*
X196036521Y-109783058D01*
X196074967Y-109798983D01*
X196098064Y-109814416D01*
X196128498Y-109829923D01*
X196211226Y-109890028D01*
X196246113Y-109913339D01*
X196253558Y-109920784D01*
X196261772Y-109926752D01*
X196378247Y-110043227D01*
X196384214Y-110051440D01*
X196391661Y-110058887D01*
X196414974Y-110093778D01*
X196475076Y-110176501D01*
X196490581Y-110206932D01*
X196506017Y-110230033D01*
X196521943Y-110268483D01*
X196549859Y-110323270D01*
X196568860Y-110381749D01*
X196584787Y-110420201D01*
X196590207Y-110447451D01*
X196600761Y-110479932D01*
X196616754Y-110580911D01*
X196624944Y-110622082D01*
X196625694Y-110637354D01*
X196626763Y-110644102D01*
X196629711Y-110719132D01*
X196630000Y-110725000D01*
X196630000Y-111525000D01*
X196629711Y-111530871D01*
X196626763Y-111605897D01*
X196625694Y-111612644D01*
X196624944Y-111627918D01*
X196616753Y-111669092D01*
X196600761Y-111770067D01*
X196590207Y-111802546D01*
X196584787Y-111829799D01*
X196568858Y-111868253D01*
X196549859Y-111926729D01*
X196521945Y-111981511D01*
X196506017Y-112019967D01*
X196490579Y-112043070D01*
X196475076Y-112073498D01*
X196414983Y-112156208D01*
X196391661Y-112191113D01*
X196384211Y-112198562D01*
X196378247Y-112206772D01*
X196261772Y-112323247D01*
X196253562Y-112329211D01*
X196246113Y-112336661D01*
X196211208Y-112359983D01*
X196128498Y-112420076D01*
X196098070Y-112435579D01*
X196074967Y-112451017D01*
X196036511Y-112466945D01*
X195981729Y-112494859D01*
X195923253Y-112513858D01*
X195884799Y-112529787D01*
X195857546Y-112535207D01*
X195825067Y-112545761D01*
X195724076Y-112561756D01*
X195682918Y-112569944D01*
X195672388Y-112569944D01*
X195662362Y-112571532D01*
X195497638Y-112571532D01*
X195487612Y-112569944D01*
X195477082Y-112569944D01*
X195435924Y-112561757D01*
X195334932Y-112545761D01*
X195302451Y-112535207D01*
X195275201Y-112529787D01*
X195236749Y-112513860D01*
X195178270Y-112494859D01*
X195123483Y-112466943D01*
X195085033Y-112451017D01*
X195061932Y-112435581D01*
X195031501Y-112420076D01*
X194948778Y-112359974D01*
X194913887Y-112336661D01*
X194906440Y-112329214D01*
X194898227Y-112323247D01*
X194781752Y-112206772D01*
X194775784Y-112198558D01*
X194768339Y-112191113D01*
X194745028Y-112156226D01*
X194684923Y-112073498D01*
X194669416Y-112043064D01*
X194653983Y-112019967D01*
X194638058Y-111981521D01*
X194610140Y-111926729D01*
X194591136Y-111868242D01*
X194575213Y-111829799D01*
X194569793Y-111802554D01*
X194559238Y-111770067D01*
X194543241Y-111669067D01*
X194535056Y-111627918D01*
X194534306Y-111612653D01*
X194533236Y-111605897D01*
X194530288Y-111530862D01*
X194530000Y-111525000D01*
X194530000Y-110725000D01*
X194530287Y-110719141D01*
X194533236Y-110644102D01*
X194534306Y-110637345D01*
X194535056Y-110622082D01*
X194543240Y-110580936D01*
X194559238Y-110479932D01*
X194569794Y-110447443D01*
X194575213Y-110420201D01*
X194591135Y-110381761D01*
X194610140Y-110323270D01*
X194638060Y-110268472D01*
X194653983Y-110230033D01*
X194669414Y-110206938D01*
X194684923Y-110176501D01*
X194745036Y-110093761D01*
X194768339Y-110058887D01*
X194775782Y-110051443D01*
X194781752Y-110043227D01*
X194898227Y-109926752D01*
X194906443Y-109920782D01*
X194913887Y-109913339D01*
X194948761Y-109890036D01*
X195031501Y-109829923D01*
X195061938Y-109814414D01*
X195085033Y-109798983D01*
X195123472Y-109783060D01*
X195178270Y-109755140D01*
X195236761Y-109736135D01*
X195275201Y-109720213D01*
X195302443Y-109714794D01*
X195334932Y-109704238D01*
X195435934Y-109688240D01*
X195477082Y-109680056D01*
X195487612Y-109680056D01*
X195497638Y-109678468D01*
X195662362Y-109678468D01*
X195672388Y-109680056D01*
G37*
G36*
X198212388Y-109680056D02*
G01*
X198222918Y-109680056D01*
X198264067Y-109688241D01*
X198365067Y-109704238D01*
X198397554Y-109714793D01*
X198424799Y-109720213D01*
X198463242Y-109736136D01*
X198521729Y-109755140D01*
X198576521Y-109783058D01*
X198614967Y-109798983D01*
X198638064Y-109814416D01*
X198668498Y-109829923D01*
X198751226Y-109890028D01*
X198786113Y-109913339D01*
X198793558Y-109920784D01*
X198801772Y-109926752D01*
X198918247Y-110043227D01*
X198924214Y-110051440D01*
X198931661Y-110058887D01*
X198954974Y-110093778D01*
X199015076Y-110176501D01*
X199030581Y-110206932D01*
X199046017Y-110230033D01*
X199061943Y-110268483D01*
X199089859Y-110323270D01*
X199108860Y-110381749D01*
X199124787Y-110420201D01*
X199130207Y-110447451D01*
X199140761Y-110479932D01*
X199156754Y-110580911D01*
X199164944Y-110622082D01*
X199165694Y-110637354D01*
X199166763Y-110644102D01*
X199169711Y-110719132D01*
X199170000Y-110725000D01*
X199170000Y-111525000D01*
X199169711Y-111530871D01*
X199166763Y-111605897D01*
X199165694Y-111612644D01*
X199164944Y-111627918D01*
X199156753Y-111669092D01*
X199140761Y-111770067D01*
X199130207Y-111802546D01*
X199124787Y-111829799D01*
X199108858Y-111868253D01*
X199089859Y-111926729D01*
X199061945Y-111981511D01*
X199046017Y-112019967D01*
X199030579Y-112043070D01*
X199015076Y-112073498D01*
X198954983Y-112156208D01*
X198931661Y-112191113D01*
X198924211Y-112198562D01*
X198918247Y-112206772D01*
X198801772Y-112323247D01*
X198793562Y-112329211D01*
X198786113Y-112336661D01*
X198751208Y-112359983D01*
X198668498Y-112420076D01*
X198638070Y-112435579D01*
X198614967Y-112451017D01*
X198576511Y-112466945D01*
X198521729Y-112494859D01*
X198463253Y-112513858D01*
X198424799Y-112529787D01*
X198397546Y-112535207D01*
X198365067Y-112545761D01*
X198264076Y-112561756D01*
X198222918Y-112569944D01*
X198212388Y-112569944D01*
X198202362Y-112571532D01*
X198037638Y-112571532D01*
X198027612Y-112569944D01*
X198017082Y-112569944D01*
X197975924Y-112561757D01*
X197874932Y-112545761D01*
X197842451Y-112535207D01*
X197815201Y-112529787D01*
X197776749Y-112513860D01*
X197718270Y-112494859D01*
X197663483Y-112466943D01*
X197625033Y-112451017D01*
X197601932Y-112435581D01*
X197571501Y-112420076D01*
X197488778Y-112359974D01*
X197453887Y-112336661D01*
X197446440Y-112329214D01*
X197438227Y-112323247D01*
X197321752Y-112206772D01*
X197315784Y-112198558D01*
X197308339Y-112191113D01*
X197285028Y-112156226D01*
X197224923Y-112073498D01*
X197209416Y-112043064D01*
X197193983Y-112019967D01*
X197178058Y-111981521D01*
X197150140Y-111926729D01*
X197131136Y-111868242D01*
X197115213Y-111829799D01*
X197109793Y-111802554D01*
X197099238Y-111770067D01*
X197083241Y-111669067D01*
X197075056Y-111627918D01*
X197074306Y-111612653D01*
X197073236Y-111605897D01*
X197070288Y-111530862D01*
X197070000Y-111525000D01*
X197070000Y-110725000D01*
X197070287Y-110719141D01*
X197073236Y-110644102D01*
X197074306Y-110637345D01*
X197075056Y-110622082D01*
X197083240Y-110580936D01*
X197099238Y-110479932D01*
X197109794Y-110447443D01*
X197115213Y-110420201D01*
X197131135Y-110381761D01*
X197150140Y-110323270D01*
X197178060Y-110268472D01*
X197193983Y-110230033D01*
X197209414Y-110206938D01*
X197224923Y-110176501D01*
X197285036Y-110093761D01*
X197308339Y-110058887D01*
X197315782Y-110051443D01*
X197321752Y-110043227D01*
X197438227Y-109926752D01*
X197446443Y-109920782D01*
X197453887Y-109913339D01*
X197488761Y-109890036D01*
X197571501Y-109829923D01*
X197601938Y-109814414D01*
X197625033Y-109798983D01*
X197663472Y-109783060D01*
X197718270Y-109755140D01*
X197776761Y-109736135D01*
X197815201Y-109720213D01*
X197842443Y-109714794D01*
X197874932Y-109704238D01*
X197975934Y-109688240D01*
X198017082Y-109680056D01*
X198027612Y-109680056D01*
X198037638Y-109678468D01*
X198202362Y-109678468D01*
X198212388Y-109680056D01*
G37*
G36*
X200752388Y-109680056D02*
G01*
X200762918Y-109680056D01*
X200804067Y-109688241D01*
X200905067Y-109704238D01*
X200937554Y-109714793D01*
X200964799Y-109720213D01*
X201003242Y-109736136D01*
X201061729Y-109755140D01*
X201116521Y-109783058D01*
X201154967Y-109798983D01*
X201178064Y-109814416D01*
X201208498Y-109829923D01*
X201291226Y-109890028D01*
X201326113Y-109913339D01*
X201333558Y-109920784D01*
X201341772Y-109926752D01*
X201458247Y-110043227D01*
X201464214Y-110051440D01*
X201471661Y-110058887D01*
X201494974Y-110093778D01*
X201555076Y-110176501D01*
X201570581Y-110206932D01*
X201586017Y-110230033D01*
X201601943Y-110268483D01*
X201629859Y-110323270D01*
X201648860Y-110381749D01*
X201664787Y-110420201D01*
X201670207Y-110447451D01*
X201680761Y-110479932D01*
X201696754Y-110580911D01*
X201704944Y-110622082D01*
X201705694Y-110637354D01*
X201706763Y-110644102D01*
X201709711Y-110719132D01*
X201710000Y-110725000D01*
X201710000Y-111525000D01*
X201709711Y-111530871D01*
X201706763Y-111605897D01*
X201705694Y-111612644D01*
X201704944Y-111627918D01*
X201696753Y-111669092D01*
X201680761Y-111770067D01*
X201670207Y-111802546D01*
X201664787Y-111829799D01*
X201648858Y-111868253D01*
X201629859Y-111926729D01*
X201601945Y-111981511D01*
X201586017Y-112019967D01*
X201570579Y-112043070D01*
X201555076Y-112073498D01*
X201494983Y-112156208D01*
X201471661Y-112191113D01*
X201464211Y-112198562D01*
X201458247Y-112206772D01*
X201341772Y-112323247D01*
X201333562Y-112329211D01*
X201326113Y-112336661D01*
X201291208Y-112359983D01*
X201208498Y-112420076D01*
X201178070Y-112435579D01*
X201154967Y-112451017D01*
X201116511Y-112466945D01*
X201061729Y-112494859D01*
X201003253Y-112513858D01*
X200964799Y-112529787D01*
X200937546Y-112535207D01*
X200905067Y-112545761D01*
X200804076Y-112561756D01*
X200762918Y-112569944D01*
X200752388Y-112569944D01*
X200742362Y-112571532D01*
X200577638Y-112571532D01*
X200567612Y-112569944D01*
X200557082Y-112569944D01*
X200515924Y-112561757D01*
X200414932Y-112545761D01*
X200382451Y-112535207D01*
X200355201Y-112529787D01*
X200316749Y-112513860D01*
X200258270Y-112494859D01*
X200203483Y-112466943D01*
X200165033Y-112451017D01*
X200141932Y-112435581D01*
X200111501Y-112420076D01*
X200028778Y-112359974D01*
X199993887Y-112336661D01*
X199986440Y-112329214D01*
X199978227Y-112323247D01*
X199861752Y-112206772D01*
X199855784Y-112198558D01*
X199848339Y-112191113D01*
X199825028Y-112156226D01*
X199764923Y-112073498D01*
X199749416Y-112043064D01*
X199733983Y-112019967D01*
X199718058Y-111981521D01*
X199690140Y-111926729D01*
X199671136Y-111868242D01*
X199655213Y-111829799D01*
X199649793Y-111802554D01*
X199639238Y-111770067D01*
X199623241Y-111669067D01*
X199615056Y-111627918D01*
X199614306Y-111612653D01*
X199613236Y-111605897D01*
X199610288Y-111530862D01*
X199610000Y-111525000D01*
X199610000Y-110725000D01*
X199610287Y-110719141D01*
X199613236Y-110644102D01*
X199614306Y-110637345D01*
X199615056Y-110622082D01*
X199623240Y-110580936D01*
X199639238Y-110479932D01*
X199649794Y-110447443D01*
X199655213Y-110420201D01*
X199671135Y-110381761D01*
X199690140Y-110323270D01*
X199718060Y-110268472D01*
X199733983Y-110230033D01*
X199749414Y-110206938D01*
X199764923Y-110176501D01*
X199825036Y-110093761D01*
X199848339Y-110058887D01*
X199855782Y-110051443D01*
X199861752Y-110043227D01*
X199978227Y-109926752D01*
X199986443Y-109920782D01*
X199993887Y-109913339D01*
X200028761Y-109890036D01*
X200111501Y-109829923D01*
X200141938Y-109814414D01*
X200165033Y-109798983D01*
X200203472Y-109783060D01*
X200258270Y-109755140D01*
X200316761Y-109736135D01*
X200355201Y-109720213D01*
X200382443Y-109714794D01*
X200414932Y-109704238D01*
X200515934Y-109688240D01*
X200557082Y-109680056D01*
X200567612Y-109680056D01*
X200577638Y-109678468D01*
X200742362Y-109678468D01*
X200752388Y-109680056D01*
G37*
G36*
X203292388Y-109680056D02*
G01*
X203302918Y-109680056D01*
X203344067Y-109688241D01*
X203445067Y-109704238D01*
X203477554Y-109714793D01*
X203504799Y-109720213D01*
X203543242Y-109736136D01*
X203601729Y-109755140D01*
X203656521Y-109783058D01*
X203694967Y-109798983D01*
X203718064Y-109814416D01*
X203748498Y-109829923D01*
X203831226Y-109890028D01*
X203866113Y-109913339D01*
X203873558Y-109920784D01*
X203881772Y-109926752D01*
X203998247Y-110043227D01*
X204004214Y-110051440D01*
X204011661Y-110058887D01*
X204034974Y-110093778D01*
X204095076Y-110176501D01*
X204110581Y-110206932D01*
X204126017Y-110230033D01*
X204141943Y-110268483D01*
X204169859Y-110323270D01*
X204188860Y-110381749D01*
X204204787Y-110420201D01*
X204210207Y-110447451D01*
X204220761Y-110479932D01*
X204236754Y-110580911D01*
X204244944Y-110622082D01*
X204245694Y-110637354D01*
X204246763Y-110644102D01*
X204249711Y-110719132D01*
X204250000Y-110725000D01*
X204250000Y-111525000D01*
X204249711Y-111530871D01*
X204246763Y-111605897D01*
X204245694Y-111612644D01*
X204244944Y-111627918D01*
X204236753Y-111669092D01*
X204220761Y-111770067D01*
X204210207Y-111802546D01*
X204204787Y-111829799D01*
X204188858Y-111868253D01*
X204169859Y-111926729D01*
X204141945Y-111981511D01*
X204126017Y-112019967D01*
X204110579Y-112043070D01*
X204095076Y-112073498D01*
X204034983Y-112156208D01*
X204011661Y-112191113D01*
X204004211Y-112198562D01*
X203998247Y-112206772D01*
X203881772Y-112323247D01*
X203873562Y-112329211D01*
X203866113Y-112336661D01*
X203831208Y-112359983D01*
X203748498Y-112420076D01*
X203718070Y-112435579D01*
X203694967Y-112451017D01*
X203656511Y-112466945D01*
X203601729Y-112494859D01*
X203543253Y-112513858D01*
X203504799Y-112529787D01*
X203477546Y-112535207D01*
X203445067Y-112545761D01*
X203344076Y-112561756D01*
X203302918Y-112569944D01*
X203292388Y-112569944D01*
X203282362Y-112571532D01*
X203117638Y-112571532D01*
X203107612Y-112569944D01*
X203097082Y-112569944D01*
X203055924Y-112561757D01*
X202954932Y-112545761D01*
X202922451Y-112535207D01*
X202895201Y-112529787D01*
X202856749Y-112513860D01*
X202798270Y-112494859D01*
X202743483Y-112466943D01*
X202705033Y-112451017D01*
X202681932Y-112435581D01*
X202651501Y-112420076D01*
X202568778Y-112359974D01*
X202533887Y-112336661D01*
X202526440Y-112329214D01*
X202518227Y-112323247D01*
X202401752Y-112206772D01*
X202395784Y-112198558D01*
X202388339Y-112191113D01*
X202365028Y-112156226D01*
X202304923Y-112073498D01*
X202289416Y-112043064D01*
X202273983Y-112019967D01*
X202258058Y-111981521D01*
X202230140Y-111926729D01*
X202211136Y-111868242D01*
X202195213Y-111829799D01*
X202189793Y-111802554D01*
X202179238Y-111770067D01*
X202163241Y-111669067D01*
X202155056Y-111627918D01*
X202154306Y-111612653D01*
X202153236Y-111605897D01*
X202150288Y-111530862D01*
X202150000Y-111525000D01*
X202150000Y-110725000D01*
X202150287Y-110719141D01*
X202153236Y-110644102D01*
X202154306Y-110637345D01*
X202155056Y-110622082D01*
X202163240Y-110580936D01*
X202179238Y-110479932D01*
X202189794Y-110447443D01*
X202195213Y-110420201D01*
X202211135Y-110381761D01*
X202230140Y-110323270D01*
X202258060Y-110268472D01*
X202273983Y-110230033D01*
X202289414Y-110206938D01*
X202304923Y-110176501D01*
X202365036Y-110093761D01*
X202388339Y-110058887D01*
X202395782Y-110051443D01*
X202401752Y-110043227D01*
X202518227Y-109926752D01*
X202526443Y-109920782D01*
X202533887Y-109913339D01*
X202568761Y-109890036D01*
X202651501Y-109829923D01*
X202681938Y-109814414D01*
X202705033Y-109798983D01*
X202743472Y-109783060D01*
X202798270Y-109755140D01*
X202856761Y-109736135D01*
X202895201Y-109720213D01*
X202922443Y-109714794D01*
X202954932Y-109704238D01*
X203055934Y-109688240D01*
X203097082Y-109680056D01*
X203107612Y-109680056D01*
X203117638Y-109678468D01*
X203282362Y-109678468D01*
X203292388Y-109680056D01*
G37*
G36*
X205832388Y-109680056D02*
G01*
X205842918Y-109680056D01*
X205884067Y-109688241D01*
X205985067Y-109704238D01*
X206017554Y-109714793D01*
X206044799Y-109720213D01*
X206083242Y-109736136D01*
X206141729Y-109755140D01*
X206196521Y-109783058D01*
X206234967Y-109798983D01*
X206258064Y-109814416D01*
X206288498Y-109829923D01*
X206371226Y-109890028D01*
X206406113Y-109913339D01*
X206413558Y-109920784D01*
X206421772Y-109926752D01*
X206538247Y-110043227D01*
X206544214Y-110051440D01*
X206551661Y-110058887D01*
X206574974Y-110093778D01*
X206635076Y-110176501D01*
X206650581Y-110206932D01*
X206666017Y-110230033D01*
X206681943Y-110268483D01*
X206709859Y-110323270D01*
X206728860Y-110381749D01*
X206744787Y-110420201D01*
X206750207Y-110447451D01*
X206760761Y-110479932D01*
X206776754Y-110580911D01*
X206784944Y-110622082D01*
X206785694Y-110637354D01*
X206786763Y-110644102D01*
X206789711Y-110719132D01*
X206790000Y-110725000D01*
X206790000Y-111525000D01*
X206789711Y-111530871D01*
X206786763Y-111605897D01*
X206785694Y-111612644D01*
X206784944Y-111627918D01*
X206776753Y-111669092D01*
X206760761Y-111770067D01*
X206750207Y-111802546D01*
X206744787Y-111829799D01*
X206728858Y-111868253D01*
X206709859Y-111926729D01*
X206681945Y-111981511D01*
X206666017Y-112019967D01*
X206650579Y-112043070D01*
X206635076Y-112073498D01*
X206574983Y-112156208D01*
X206551661Y-112191113D01*
X206544211Y-112198562D01*
X206538247Y-112206772D01*
X206421772Y-112323247D01*
X206413562Y-112329211D01*
X206406113Y-112336661D01*
X206371208Y-112359983D01*
X206288498Y-112420076D01*
X206258070Y-112435579D01*
X206234967Y-112451017D01*
X206196511Y-112466945D01*
X206141729Y-112494859D01*
X206083253Y-112513858D01*
X206044799Y-112529787D01*
X206017546Y-112535207D01*
X205985067Y-112545761D01*
X205884076Y-112561756D01*
X205842918Y-112569944D01*
X205832388Y-112569944D01*
X205822362Y-112571532D01*
X205657638Y-112571532D01*
X205647612Y-112569944D01*
X205637082Y-112569944D01*
X205595924Y-112561757D01*
X205494932Y-112545761D01*
X205462451Y-112535207D01*
X205435201Y-112529787D01*
X205396749Y-112513860D01*
X205338270Y-112494859D01*
X205283483Y-112466943D01*
X205245033Y-112451017D01*
X205221932Y-112435581D01*
X205191501Y-112420076D01*
X205108778Y-112359974D01*
X205073887Y-112336661D01*
X205066440Y-112329214D01*
X205058227Y-112323247D01*
X204941752Y-112206772D01*
X204935784Y-112198558D01*
X204928339Y-112191113D01*
X204905028Y-112156226D01*
X204844923Y-112073498D01*
X204829416Y-112043064D01*
X204813983Y-112019967D01*
X204798058Y-111981521D01*
X204770140Y-111926729D01*
X204751136Y-111868242D01*
X204735213Y-111829799D01*
X204729793Y-111802554D01*
X204719238Y-111770067D01*
X204703241Y-111669067D01*
X204695056Y-111627918D01*
X204694306Y-111612653D01*
X204693236Y-111605897D01*
X204690288Y-111530862D01*
X204690000Y-111525000D01*
X204690000Y-110725000D01*
X204690287Y-110719141D01*
X204693236Y-110644102D01*
X204694306Y-110637345D01*
X204695056Y-110622082D01*
X204703240Y-110580936D01*
X204719238Y-110479932D01*
X204729794Y-110447443D01*
X204735213Y-110420201D01*
X204751135Y-110381761D01*
X204770140Y-110323270D01*
X204798060Y-110268472D01*
X204813983Y-110230033D01*
X204829414Y-110206938D01*
X204844923Y-110176501D01*
X204905036Y-110093761D01*
X204928339Y-110058887D01*
X204935782Y-110051443D01*
X204941752Y-110043227D01*
X205058227Y-109926752D01*
X205066443Y-109920782D01*
X205073887Y-109913339D01*
X205108761Y-109890036D01*
X205191501Y-109829923D01*
X205221938Y-109814414D01*
X205245033Y-109798983D01*
X205283472Y-109783060D01*
X205338270Y-109755140D01*
X205396761Y-109736135D01*
X205435201Y-109720213D01*
X205462443Y-109714794D01*
X205494932Y-109704238D01*
X205595934Y-109688240D01*
X205637082Y-109680056D01*
X205647612Y-109680056D01*
X205657638Y-109678468D01*
X205822362Y-109678468D01*
X205832388Y-109680056D01*
G37*
G36*
X208372388Y-109680056D02*
G01*
X208382918Y-109680056D01*
X208424067Y-109688241D01*
X208525067Y-109704238D01*
X208557554Y-109714793D01*
X208584799Y-109720213D01*
X208623242Y-109736136D01*
X208681729Y-109755140D01*
X208736521Y-109783058D01*
X208774967Y-109798983D01*
X208798064Y-109814416D01*
X208828498Y-109829923D01*
X208911226Y-109890028D01*
X208946113Y-109913339D01*
X208953558Y-109920784D01*
X208961772Y-109926752D01*
X209078247Y-110043227D01*
X209084214Y-110051440D01*
X209091661Y-110058887D01*
X209114974Y-110093778D01*
X209175076Y-110176501D01*
X209190581Y-110206932D01*
X209206017Y-110230033D01*
X209221943Y-110268483D01*
X209249859Y-110323270D01*
X209268860Y-110381749D01*
X209284787Y-110420201D01*
X209290207Y-110447451D01*
X209300761Y-110479932D01*
X209316754Y-110580911D01*
X209324944Y-110622082D01*
X209325694Y-110637354D01*
X209326763Y-110644102D01*
X209329711Y-110719132D01*
X209330000Y-110725000D01*
X209330000Y-111525000D01*
X209329711Y-111530871D01*
X209326763Y-111605897D01*
X209325694Y-111612644D01*
X209324944Y-111627918D01*
X209316753Y-111669092D01*
X209300761Y-111770067D01*
X209290207Y-111802546D01*
X209284787Y-111829799D01*
X209268858Y-111868253D01*
X209249859Y-111926729D01*
X209221945Y-111981511D01*
X209206017Y-112019967D01*
X209190579Y-112043070D01*
X209175076Y-112073498D01*
X209114983Y-112156208D01*
X209091661Y-112191113D01*
X209084211Y-112198562D01*
X209078247Y-112206772D01*
X208961772Y-112323247D01*
X208953562Y-112329211D01*
X208946113Y-112336661D01*
X208911208Y-112359983D01*
X208828498Y-112420076D01*
X208798070Y-112435579D01*
X208774967Y-112451017D01*
X208736511Y-112466945D01*
X208681729Y-112494859D01*
X208623253Y-112513858D01*
X208584799Y-112529787D01*
X208557546Y-112535207D01*
X208525067Y-112545761D01*
X208424076Y-112561756D01*
X208382918Y-112569944D01*
X208372388Y-112569944D01*
X208362362Y-112571532D01*
X208197638Y-112571532D01*
X208187612Y-112569944D01*
X208177082Y-112569944D01*
X208135924Y-112561757D01*
X208034932Y-112545761D01*
X208002451Y-112535207D01*
X207975201Y-112529787D01*
X207936749Y-112513860D01*
X207878270Y-112494859D01*
X207823483Y-112466943D01*
X207785033Y-112451017D01*
X207761932Y-112435581D01*
X207731501Y-112420076D01*
X207648778Y-112359974D01*
X207613887Y-112336661D01*
X207606440Y-112329214D01*
X207598227Y-112323247D01*
X207481752Y-112206772D01*
X207475784Y-112198558D01*
X207468339Y-112191113D01*
X207445028Y-112156226D01*
X207384923Y-112073498D01*
X207369416Y-112043064D01*
X207353983Y-112019967D01*
X207338058Y-111981521D01*
X207310140Y-111926729D01*
X207291136Y-111868242D01*
X207275213Y-111829799D01*
X207269793Y-111802554D01*
X207259238Y-111770067D01*
X207243241Y-111669067D01*
X207235056Y-111627918D01*
X207234306Y-111612653D01*
X207233236Y-111605897D01*
X207230288Y-111530862D01*
X207230000Y-111525000D01*
X207230000Y-110725000D01*
X207230287Y-110719141D01*
X207233236Y-110644102D01*
X207234306Y-110637345D01*
X207235056Y-110622082D01*
X207243240Y-110580936D01*
X207259238Y-110479932D01*
X207269794Y-110447443D01*
X207275213Y-110420201D01*
X207291135Y-110381761D01*
X207310140Y-110323270D01*
X207338060Y-110268472D01*
X207353983Y-110230033D01*
X207369414Y-110206938D01*
X207384923Y-110176501D01*
X207445036Y-110093761D01*
X207468339Y-110058887D01*
X207475782Y-110051443D01*
X207481752Y-110043227D01*
X207598227Y-109926752D01*
X207606443Y-109920782D01*
X207613887Y-109913339D01*
X207648761Y-109890036D01*
X207731501Y-109829923D01*
X207761938Y-109814414D01*
X207785033Y-109798983D01*
X207823472Y-109783060D01*
X207878270Y-109755140D01*
X207936761Y-109736135D01*
X207975201Y-109720213D01*
X208002443Y-109714794D01*
X208034932Y-109704238D01*
X208135934Y-109688240D01*
X208177082Y-109680056D01*
X208187612Y-109680056D01*
X208197638Y-109678468D01*
X208362362Y-109678468D01*
X208372388Y-109680056D01*
G37*
G36*
X210912388Y-109680056D02*
G01*
X210922918Y-109680056D01*
X210964067Y-109688241D01*
X211065067Y-109704238D01*
X211097554Y-109714793D01*
X211124799Y-109720213D01*
X211163242Y-109736136D01*
X211221729Y-109755140D01*
X211276521Y-109783058D01*
X211314967Y-109798983D01*
X211338064Y-109814416D01*
X211368498Y-109829923D01*
X211451226Y-109890028D01*
X211486113Y-109913339D01*
X211493558Y-109920784D01*
X211501772Y-109926752D01*
X211618247Y-110043227D01*
X211624214Y-110051440D01*
X211631661Y-110058887D01*
X211654974Y-110093778D01*
X211715076Y-110176501D01*
X211730581Y-110206932D01*
X211746017Y-110230033D01*
X211761943Y-110268483D01*
X211789859Y-110323270D01*
X211808860Y-110381749D01*
X211824787Y-110420201D01*
X211830207Y-110447451D01*
X211840761Y-110479932D01*
X211856754Y-110580911D01*
X211864944Y-110622082D01*
X211865694Y-110637354D01*
X211866763Y-110644102D01*
X211869711Y-110719132D01*
X211870000Y-110725000D01*
X211870000Y-111525000D01*
X211869711Y-111530871D01*
X211866763Y-111605897D01*
X211865694Y-111612644D01*
X211864944Y-111627918D01*
X211856753Y-111669092D01*
X211840761Y-111770067D01*
X211830207Y-111802546D01*
X211824787Y-111829799D01*
X211808858Y-111868253D01*
X211789859Y-111926729D01*
X211761945Y-111981511D01*
X211746017Y-112019967D01*
X211730579Y-112043070D01*
X211715076Y-112073498D01*
X211654983Y-112156208D01*
X211631661Y-112191113D01*
X211624211Y-112198562D01*
X211618247Y-112206772D01*
X211501772Y-112323247D01*
X211493562Y-112329211D01*
X211486113Y-112336661D01*
X211451208Y-112359983D01*
X211368498Y-112420076D01*
X211338070Y-112435579D01*
X211314967Y-112451017D01*
X211276511Y-112466945D01*
X211221729Y-112494859D01*
X211163253Y-112513858D01*
X211124799Y-112529787D01*
X211097546Y-112535207D01*
X211065067Y-112545761D01*
X210964076Y-112561756D01*
X210922918Y-112569944D01*
X210912388Y-112569944D01*
X210902362Y-112571532D01*
X210737638Y-112571532D01*
X210727612Y-112569944D01*
X210717082Y-112569944D01*
X210675924Y-112561757D01*
X210574932Y-112545761D01*
X210542451Y-112535207D01*
X210515201Y-112529787D01*
X210476749Y-112513860D01*
X210418270Y-112494859D01*
X210363483Y-112466943D01*
X210325033Y-112451017D01*
X210301932Y-112435581D01*
X210271501Y-112420076D01*
X210188778Y-112359974D01*
X210153887Y-112336661D01*
X210146440Y-112329214D01*
X210138227Y-112323247D01*
X210021752Y-112206772D01*
X210015784Y-112198558D01*
X210008339Y-112191113D01*
X209985028Y-112156226D01*
X209924923Y-112073498D01*
X209909416Y-112043064D01*
X209893983Y-112019967D01*
X209878058Y-111981521D01*
X209850140Y-111926729D01*
X209831136Y-111868242D01*
X209815213Y-111829799D01*
X209809793Y-111802554D01*
X209799238Y-111770067D01*
X209783241Y-111669067D01*
X209775056Y-111627918D01*
X209774306Y-111612653D01*
X209773236Y-111605897D01*
X209770288Y-111530862D01*
X209770000Y-111525000D01*
X209770000Y-110725000D01*
X209770287Y-110719141D01*
X209773236Y-110644102D01*
X209774306Y-110637345D01*
X209775056Y-110622082D01*
X209783240Y-110580936D01*
X209799238Y-110479932D01*
X209809794Y-110447443D01*
X209815213Y-110420201D01*
X209831135Y-110381761D01*
X209850140Y-110323270D01*
X209878060Y-110268472D01*
X209893983Y-110230033D01*
X209909414Y-110206938D01*
X209924923Y-110176501D01*
X209985036Y-110093761D01*
X210008339Y-110058887D01*
X210015782Y-110051443D01*
X210021752Y-110043227D01*
X210138227Y-109926752D01*
X210146443Y-109920782D01*
X210153887Y-109913339D01*
X210188761Y-109890036D01*
X210271501Y-109829923D01*
X210301938Y-109814414D01*
X210325033Y-109798983D01*
X210363472Y-109783060D01*
X210418270Y-109755140D01*
X210476761Y-109736135D01*
X210515201Y-109720213D01*
X210542443Y-109714794D01*
X210574932Y-109704238D01*
X210675934Y-109688240D01*
X210717082Y-109680056D01*
X210727612Y-109680056D01*
X210737638Y-109678468D01*
X210902362Y-109678468D01*
X210912388Y-109680056D01*
G37*
G36*
X213452388Y-109680056D02*
G01*
X213462918Y-109680056D01*
X213504067Y-109688241D01*
X213605067Y-109704238D01*
X213637554Y-109714793D01*
X213664799Y-109720213D01*
X213703242Y-109736136D01*
X213761729Y-109755140D01*
X213816521Y-109783058D01*
X213854967Y-109798983D01*
X213878064Y-109814416D01*
X213908498Y-109829923D01*
X213991226Y-109890028D01*
X214026113Y-109913339D01*
X214033558Y-109920784D01*
X214041772Y-109926752D01*
X214158247Y-110043227D01*
X214164214Y-110051440D01*
X214171661Y-110058887D01*
X214194974Y-110093778D01*
X214255076Y-110176501D01*
X214270581Y-110206932D01*
X214286017Y-110230033D01*
X214301943Y-110268483D01*
X214329859Y-110323270D01*
X214348860Y-110381749D01*
X214364787Y-110420201D01*
X214370207Y-110447451D01*
X214380761Y-110479932D01*
X214396754Y-110580911D01*
X214404944Y-110622082D01*
X214405694Y-110637354D01*
X214406763Y-110644102D01*
X214409711Y-110719132D01*
X214410000Y-110725000D01*
X214410000Y-111525000D01*
X214409711Y-111530871D01*
X214406763Y-111605897D01*
X214405694Y-111612644D01*
X214404944Y-111627918D01*
X214396753Y-111669092D01*
X214380761Y-111770067D01*
X214370207Y-111802546D01*
X214364787Y-111829799D01*
X214348858Y-111868253D01*
X214329859Y-111926729D01*
X214301945Y-111981511D01*
X214286017Y-112019967D01*
X214270579Y-112043070D01*
X214255076Y-112073498D01*
X214194983Y-112156208D01*
X214171661Y-112191113D01*
X214164211Y-112198562D01*
X214158247Y-112206772D01*
X214041772Y-112323247D01*
X214033562Y-112329211D01*
X214026113Y-112336661D01*
X213991208Y-112359983D01*
X213908498Y-112420076D01*
X213878070Y-112435579D01*
X213854967Y-112451017D01*
X213816511Y-112466945D01*
X213761729Y-112494859D01*
X213703253Y-112513858D01*
X213664799Y-112529787D01*
X213637546Y-112535207D01*
X213605067Y-112545761D01*
X213504076Y-112561756D01*
X213462918Y-112569944D01*
X213452388Y-112569944D01*
X213442362Y-112571532D01*
X213277638Y-112571532D01*
X213267612Y-112569944D01*
X213257082Y-112569944D01*
X213215924Y-112561757D01*
X213114932Y-112545761D01*
X213082451Y-112535207D01*
X213055201Y-112529787D01*
X213016749Y-112513860D01*
X212958270Y-112494859D01*
X212903483Y-112466943D01*
X212865033Y-112451017D01*
X212841932Y-112435581D01*
X212811501Y-112420076D01*
X212728778Y-112359974D01*
X212693887Y-112336661D01*
X212686440Y-112329214D01*
X212678227Y-112323247D01*
X212561752Y-112206772D01*
X212555784Y-112198558D01*
X212548339Y-112191113D01*
X212525028Y-112156226D01*
X212464923Y-112073498D01*
X212449416Y-112043064D01*
X212433983Y-112019967D01*
X212418058Y-111981521D01*
X212390140Y-111926729D01*
X212371136Y-111868242D01*
X212355213Y-111829799D01*
X212349793Y-111802554D01*
X212339238Y-111770067D01*
X212323241Y-111669067D01*
X212315056Y-111627918D01*
X212314306Y-111612653D01*
X212313236Y-111605897D01*
X212310288Y-111530862D01*
X212310000Y-111525000D01*
X212310000Y-110725000D01*
X212310287Y-110719141D01*
X212313236Y-110644102D01*
X212314306Y-110637345D01*
X212315056Y-110622082D01*
X212323240Y-110580936D01*
X212339238Y-110479932D01*
X212349794Y-110447443D01*
X212355213Y-110420201D01*
X212371135Y-110381761D01*
X212390140Y-110323270D01*
X212418060Y-110268472D01*
X212433983Y-110230033D01*
X212449414Y-110206938D01*
X212464923Y-110176501D01*
X212525036Y-110093761D01*
X212548339Y-110058887D01*
X212555782Y-110051443D01*
X212561752Y-110043227D01*
X212678227Y-109926752D01*
X212686443Y-109920782D01*
X212693887Y-109913339D01*
X212728761Y-109890036D01*
X212811501Y-109829923D01*
X212841938Y-109814414D01*
X212865033Y-109798983D01*
X212903472Y-109783060D01*
X212958270Y-109755140D01*
X213016761Y-109736135D01*
X213055201Y-109720213D01*
X213082443Y-109714794D01*
X213114932Y-109704238D01*
X213215934Y-109688240D01*
X213257082Y-109680056D01*
X213267612Y-109680056D01*
X213277638Y-109678468D01*
X213442362Y-109678468D01*
X213452388Y-109680056D01*
G37*
G36*
X215992388Y-109680056D02*
G01*
X216002918Y-109680056D01*
X216044067Y-109688241D01*
X216145067Y-109704238D01*
X216177554Y-109714793D01*
X216204799Y-109720213D01*
X216243242Y-109736136D01*
X216301729Y-109755140D01*
X216356521Y-109783058D01*
X216394967Y-109798983D01*
X216418064Y-109814416D01*
X216448498Y-109829923D01*
X216531226Y-109890028D01*
X216566113Y-109913339D01*
X216573558Y-109920784D01*
X216581772Y-109926752D01*
X216698247Y-110043227D01*
X216704214Y-110051440D01*
X216711661Y-110058887D01*
X216734974Y-110093778D01*
X216795076Y-110176501D01*
X216810581Y-110206932D01*
X216826017Y-110230033D01*
X216841943Y-110268483D01*
X216869859Y-110323270D01*
X216888860Y-110381749D01*
X216904787Y-110420201D01*
X216910207Y-110447451D01*
X216920761Y-110479932D01*
X216936754Y-110580911D01*
X216944944Y-110622082D01*
X216945694Y-110637354D01*
X216946763Y-110644102D01*
X216949711Y-110719132D01*
X216950000Y-110725000D01*
X216950000Y-111525000D01*
X216949711Y-111530871D01*
X216946763Y-111605897D01*
X216945694Y-111612644D01*
X216944944Y-111627918D01*
X216936753Y-111669092D01*
X216920761Y-111770067D01*
X216910207Y-111802546D01*
X216904787Y-111829799D01*
X216888858Y-111868253D01*
X216869859Y-111926729D01*
X216841945Y-111981511D01*
X216826017Y-112019967D01*
X216810579Y-112043070D01*
X216795076Y-112073498D01*
X216734983Y-112156208D01*
X216711661Y-112191113D01*
X216704211Y-112198562D01*
X216698247Y-112206772D01*
X216581772Y-112323247D01*
X216573562Y-112329211D01*
X216566113Y-112336661D01*
X216531208Y-112359983D01*
X216448498Y-112420076D01*
X216418070Y-112435579D01*
X216394967Y-112451017D01*
X216356511Y-112466945D01*
X216301729Y-112494859D01*
X216243253Y-112513858D01*
X216204799Y-112529787D01*
X216177546Y-112535207D01*
X216145067Y-112545761D01*
X216044076Y-112561756D01*
X216002918Y-112569944D01*
X215992388Y-112569944D01*
X215982362Y-112571532D01*
X215817638Y-112571532D01*
X215807612Y-112569944D01*
X215797082Y-112569944D01*
X215755924Y-112561757D01*
X215654932Y-112545761D01*
X215622451Y-112535207D01*
X215595201Y-112529787D01*
X215556749Y-112513860D01*
X215498270Y-112494859D01*
X215443483Y-112466943D01*
X215405033Y-112451017D01*
X215381932Y-112435581D01*
X215351501Y-112420076D01*
X215268778Y-112359974D01*
X215233887Y-112336661D01*
X215226440Y-112329214D01*
X215218227Y-112323247D01*
X215101752Y-112206772D01*
X215095784Y-112198558D01*
X215088339Y-112191113D01*
X215065028Y-112156226D01*
X215004923Y-112073498D01*
X214989416Y-112043064D01*
X214973983Y-112019967D01*
X214958058Y-111981521D01*
X214930140Y-111926729D01*
X214911136Y-111868242D01*
X214895213Y-111829799D01*
X214889793Y-111802554D01*
X214879238Y-111770067D01*
X214863241Y-111669067D01*
X214855056Y-111627918D01*
X214854306Y-111612653D01*
X214853236Y-111605897D01*
X214850288Y-111530862D01*
X214850000Y-111525000D01*
X214850000Y-110725000D01*
X214850287Y-110719141D01*
X214853236Y-110644102D01*
X214854306Y-110637345D01*
X214855056Y-110622082D01*
X214863240Y-110580936D01*
X214879238Y-110479932D01*
X214889794Y-110447443D01*
X214895213Y-110420201D01*
X214911135Y-110381761D01*
X214930140Y-110323270D01*
X214958060Y-110268472D01*
X214973983Y-110230033D01*
X214989414Y-110206938D01*
X215004923Y-110176501D01*
X215065036Y-110093761D01*
X215088339Y-110058887D01*
X215095782Y-110051443D01*
X215101752Y-110043227D01*
X215218227Y-109926752D01*
X215226443Y-109920782D01*
X215233887Y-109913339D01*
X215268761Y-109890036D01*
X215351501Y-109829923D01*
X215381938Y-109814414D01*
X215405033Y-109798983D01*
X215443472Y-109783060D01*
X215498270Y-109755140D01*
X215556761Y-109736135D01*
X215595201Y-109720213D01*
X215622443Y-109714794D01*
X215654932Y-109704238D01*
X215755934Y-109688240D01*
X215797082Y-109680056D01*
X215807612Y-109680056D01*
X215817638Y-109678468D01*
X215982362Y-109678468D01*
X215992388Y-109680056D01*
G37*
G36*
X218532388Y-109680056D02*
G01*
X218542918Y-109680056D01*
X218584067Y-109688241D01*
X218685067Y-109704238D01*
X218717554Y-109714793D01*
X218744799Y-109720213D01*
X218783242Y-109736136D01*
X218841729Y-109755140D01*
X218896521Y-109783058D01*
X218934967Y-109798983D01*
X218958064Y-109814416D01*
X218988498Y-109829923D01*
X219071226Y-109890028D01*
X219106113Y-109913339D01*
X219113558Y-109920784D01*
X219121772Y-109926752D01*
X219238247Y-110043227D01*
X219244214Y-110051440D01*
X219251661Y-110058887D01*
X219274974Y-110093778D01*
X219335076Y-110176501D01*
X219350581Y-110206932D01*
X219366017Y-110230033D01*
X219381943Y-110268483D01*
X219409859Y-110323270D01*
X219428860Y-110381749D01*
X219444787Y-110420201D01*
X219450207Y-110447451D01*
X219460761Y-110479932D01*
X219476754Y-110580911D01*
X219484944Y-110622082D01*
X219485694Y-110637354D01*
X219486763Y-110644102D01*
X219489711Y-110719132D01*
X219490000Y-110725000D01*
X219490000Y-111525000D01*
X219489711Y-111530871D01*
X219486763Y-111605897D01*
X219485694Y-111612644D01*
X219484944Y-111627918D01*
X219476753Y-111669092D01*
X219460761Y-111770067D01*
X219450207Y-111802546D01*
X219444787Y-111829799D01*
X219428858Y-111868253D01*
X219409859Y-111926729D01*
X219381945Y-111981511D01*
X219366017Y-112019967D01*
X219350579Y-112043070D01*
X219335076Y-112073498D01*
X219274983Y-112156208D01*
X219251661Y-112191113D01*
X219244211Y-112198562D01*
X219238247Y-112206772D01*
X219121772Y-112323247D01*
X219113562Y-112329211D01*
X219106113Y-112336661D01*
X219071208Y-112359983D01*
X218988498Y-112420076D01*
X218958070Y-112435579D01*
X218934967Y-112451017D01*
X218896511Y-112466945D01*
X218841729Y-112494859D01*
X218783253Y-112513858D01*
X218744799Y-112529787D01*
X218717546Y-112535207D01*
X218685067Y-112545761D01*
X218584076Y-112561756D01*
X218542918Y-112569944D01*
X218532388Y-112569944D01*
X218522362Y-112571532D01*
X218357638Y-112571532D01*
X218347612Y-112569944D01*
X218337082Y-112569944D01*
X218295924Y-112561757D01*
X218194932Y-112545761D01*
X218162451Y-112535207D01*
X218135201Y-112529787D01*
X218096749Y-112513860D01*
X218038270Y-112494859D01*
X217983483Y-112466943D01*
X217945033Y-112451017D01*
X217921932Y-112435581D01*
X217891501Y-112420076D01*
X217808778Y-112359974D01*
X217773887Y-112336661D01*
X217766440Y-112329214D01*
X217758227Y-112323247D01*
X217641752Y-112206772D01*
X217635784Y-112198558D01*
X217628339Y-112191113D01*
X217605028Y-112156226D01*
X217544923Y-112073498D01*
X217529416Y-112043064D01*
X217513983Y-112019967D01*
X217498058Y-111981521D01*
X217470140Y-111926729D01*
X217451136Y-111868242D01*
X217435213Y-111829799D01*
X217429793Y-111802554D01*
X217419238Y-111770067D01*
X217403241Y-111669067D01*
X217395056Y-111627918D01*
X217394306Y-111612653D01*
X217393236Y-111605897D01*
X217390288Y-111530862D01*
X217390000Y-111525000D01*
X217390000Y-110725000D01*
X217390287Y-110719141D01*
X217393236Y-110644102D01*
X217394306Y-110637345D01*
X217395056Y-110622082D01*
X217403240Y-110580936D01*
X217419238Y-110479932D01*
X217429794Y-110447443D01*
X217435213Y-110420201D01*
X217451135Y-110381761D01*
X217470140Y-110323270D01*
X217498060Y-110268472D01*
X217513983Y-110230033D01*
X217529414Y-110206938D01*
X217544923Y-110176501D01*
X217605036Y-110093761D01*
X217628339Y-110058887D01*
X217635782Y-110051443D01*
X217641752Y-110043227D01*
X217758227Y-109926752D01*
X217766443Y-109920782D01*
X217773887Y-109913339D01*
X217808761Y-109890036D01*
X217891501Y-109829923D01*
X217921938Y-109814414D01*
X217945033Y-109798983D01*
X217983472Y-109783060D01*
X218038270Y-109755140D01*
X218096761Y-109736135D01*
X218135201Y-109720213D01*
X218162443Y-109714794D01*
X218194932Y-109704238D01*
X218295934Y-109688240D01*
X218337082Y-109680056D01*
X218347612Y-109680056D01*
X218357638Y-109678468D01*
X218522362Y-109678468D01*
X218532388Y-109680056D01*
G37*
G36*
X223612388Y-109680056D02*
G01*
X223622918Y-109680056D01*
X223664067Y-109688241D01*
X223765067Y-109704238D01*
X223797554Y-109714793D01*
X223824799Y-109720213D01*
X223863242Y-109736136D01*
X223921729Y-109755140D01*
X223976521Y-109783058D01*
X224014967Y-109798983D01*
X224038064Y-109814416D01*
X224068498Y-109829923D01*
X224151226Y-109890028D01*
X224186113Y-109913339D01*
X224193558Y-109920784D01*
X224201772Y-109926752D01*
X224318247Y-110043227D01*
X224324214Y-110051440D01*
X224331661Y-110058887D01*
X224354974Y-110093778D01*
X224415076Y-110176501D01*
X224430581Y-110206932D01*
X224446017Y-110230033D01*
X224461943Y-110268483D01*
X224489859Y-110323270D01*
X224508860Y-110381749D01*
X224524787Y-110420201D01*
X224530207Y-110447451D01*
X224540761Y-110479932D01*
X224556754Y-110580911D01*
X224564944Y-110622082D01*
X224565694Y-110637354D01*
X224566763Y-110644102D01*
X224569711Y-110719132D01*
X224570000Y-110725000D01*
X224570000Y-111525000D01*
X224569711Y-111530871D01*
X224566763Y-111605897D01*
X224565694Y-111612644D01*
X224564944Y-111627918D01*
X224556753Y-111669092D01*
X224540761Y-111770067D01*
X224530207Y-111802546D01*
X224524787Y-111829799D01*
X224508858Y-111868253D01*
X224489859Y-111926729D01*
X224461945Y-111981511D01*
X224446017Y-112019967D01*
X224430579Y-112043070D01*
X224415076Y-112073498D01*
X224354983Y-112156208D01*
X224331661Y-112191113D01*
X224324211Y-112198562D01*
X224318247Y-112206772D01*
X224201772Y-112323247D01*
X224193562Y-112329211D01*
X224186113Y-112336661D01*
X224151208Y-112359983D01*
X224068498Y-112420076D01*
X224038070Y-112435579D01*
X224014967Y-112451017D01*
X223976511Y-112466945D01*
X223921729Y-112494859D01*
X223863253Y-112513858D01*
X223824799Y-112529787D01*
X223797546Y-112535207D01*
X223765067Y-112545761D01*
X223664076Y-112561756D01*
X223622918Y-112569944D01*
X223612388Y-112569944D01*
X223602362Y-112571532D01*
X223437638Y-112571532D01*
X223427612Y-112569944D01*
X223417082Y-112569944D01*
X223375924Y-112561757D01*
X223274932Y-112545761D01*
X223242451Y-112535207D01*
X223215201Y-112529787D01*
X223176749Y-112513860D01*
X223118270Y-112494859D01*
X223063483Y-112466943D01*
X223025033Y-112451017D01*
X223001932Y-112435581D01*
X222971501Y-112420076D01*
X222888778Y-112359974D01*
X222853887Y-112336661D01*
X222846440Y-112329214D01*
X222838227Y-112323247D01*
X222721752Y-112206772D01*
X222715784Y-112198558D01*
X222708339Y-112191113D01*
X222685028Y-112156226D01*
X222624923Y-112073498D01*
X222609416Y-112043064D01*
X222593983Y-112019967D01*
X222578058Y-111981521D01*
X222550140Y-111926729D01*
X222531136Y-111868242D01*
X222515213Y-111829799D01*
X222509793Y-111802554D01*
X222499238Y-111770067D01*
X222483241Y-111669067D01*
X222475056Y-111627918D01*
X222474306Y-111612653D01*
X222473236Y-111605897D01*
X222470288Y-111530862D01*
X222470000Y-111525000D01*
X222470000Y-110725000D01*
X222470287Y-110719141D01*
X222473236Y-110644102D01*
X222474306Y-110637345D01*
X222475056Y-110622082D01*
X222483240Y-110580936D01*
X222499238Y-110479932D01*
X222509794Y-110447443D01*
X222515213Y-110420201D01*
X222531135Y-110381761D01*
X222550140Y-110323270D01*
X222578060Y-110268472D01*
X222593983Y-110230033D01*
X222609414Y-110206938D01*
X222624923Y-110176501D01*
X222685036Y-110093761D01*
X222708339Y-110058887D01*
X222715782Y-110051443D01*
X222721752Y-110043227D01*
X222838227Y-109926752D01*
X222846443Y-109920782D01*
X222853887Y-109913339D01*
X222888761Y-109890036D01*
X222971501Y-109829923D01*
X223001938Y-109814414D01*
X223025033Y-109798983D01*
X223063472Y-109783060D01*
X223118270Y-109755140D01*
X223176761Y-109736135D01*
X223215201Y-109720213D01*
X223242443Y-109714794D01*
X223274932Y-109704238D01*
X223375934Y-109688240D01*
X223417082Y-109680056D01*
X223427612Y-109680056D01*
X223437638Y-109678468D01*
X223602362Y-109678468D01*
X223612388Y-109680056D01*
G37*
G36*
X130035770Y-109870907D02*
G01*
X130207827Y-109942175D01*
X130362674Y-110045640D01*
X130494360Y-110177326D01*
X130597825Y-110332173D01*
X130669093Y-110504230D01*
X130705425Y-110686884D01*
X130705425Y-110873116D01*
X130669093Y-111055770D01*
X130597825Y-111227827D01*
X130494360Y-111382674D01*
X130362674Y-111514360D01*
X130207827Y-111617825D01*
X130035770Y-111689093D01*
X129853116Y-111725425D01*
X129666884Y-111725425D01*
X129484230Y-111689093D01*
X129312173Y-111617825D01*
X129157326Y-111514360D01*
X129025640Y-111382674D01*
X128922175Y-111227827D01*
X128850907Y-111055770D01*
X128814575Y-110873116D01*
X128814575Y-110686884D01*
X128850907Y-110504230D01*
X128922175Y-110332173D01*
X129025640Y-110177326D01*
X129157326Y-110045640D01*
X129312173Y-109942175D01*
X129484230Y-109870907D01*
X129666884Y-109834575D01*
X129853116Y-109834575D01*
X130035770Y-109870907D01*
G37*
G36*
X145275770Y-109870907D02*
G01*
X145447827Y-109942175D01*
X145602674Y-110045640D01*
X145734360Y-110177326D01*
X145837825Y-110332173D01*
X145909093Y-110504230D01*
X145945425Y-110686884D01*
X145945425Y-110873116D01*
X145909093Y-111055770D01*
X145837825Y-111227827D01*
X145734360Y-111382674D01*
X145602674Y-111514360D01*
X145447827Y-111617825D01*
X145275770Y-111689093D01*
X145093116Y-111725425D01*
X144906884Y-111725425D01*
X144724230Y-111689093D01*
X144552173Y-111617825D01*
X144397326Y-111514360D01*
X144265640Y-111382674D01*
X144162175Y-111227827D01*
X144090907Y-111055770D01*
X144054575Y-110873116D01*
X144054575Y-110686884D01*
X144090907Y-110504230D01*
X144162175Y-110332173D01*
X144265640Y-110177326D01*
X144397326Y-110045640D01*
X144552173Y-109942175D01*
X144724230Y-109870907D01*
X144906884Y-109834575D01*
X145093116Y-109834575D01*
X145275770Y-109870907D01*
G37*
G36*
X130035770Y-107330907D02*
G01*
X130207827Y-107402175D01*
X130362674Y-107505640D01*
X130494360Y-107637326D01*
X130597825Y-107792173D01*
X130669093Y-107964230D01*
X130705425Y-108146884D01*
X130705425Y-108333116D01*
X130669093Y-108515770D01*
X130597825Y-108687827D01*
X130494360Y-108842674D01*
X130362674Y-108974360D01*
X130207827Y-109077825D01*
X130035770Y-109149093D01*
X129853116Y-109185425D01*
X129666884Y-109185425D01*
X129484230Y-109149093D01*
X129312173Y-109077825D01*
X129157326Y-108974360D01*
X129025640Y-108842674D01*
X128922175Y-108687827D01*
X128850907Y-108515770D01*
X128814575Y-108333116D01*
X128814575Y-108146884D01*
X128850907Y-107964230D01*
X128922175Y-107792173D01*
X129025640Y-107637326D01*
X129157326Y-107505640D01*
X129312173Y-107402175D01*
X129484230Y-107330907D01*
X129666884Y-107294575D01*
X129853116Y-107294575D01*
X130035770Y-107330907D01*
G37*
G36*
X145275770Y-107330907D02*
G01*
X145447827Y-107402175D01*
X145602674Y-107505640D01*
X145734360Y-107637326D01*
X145837825Y-107792173D01*
X145909093Y-107964230D01*
X145945425Y-108146884D01*
X145945425Y-108333116D01*
X145909093Y-108515770D01*
X145837825Y-108687827D01*
X145734360Y-108842674D01*
X145602674Y-108974360D01*
X145447827Y-109077825D01*
X145275770Y-109149093D01*
X145093116Y-109185425D01*
X144906884Y-109185425D01*
X144724230Y-109149093D01*
X144552173Y-109077825D01*
X144397326Y-108974360D01*
X144265640Y-108842674D01*
X144162175Y-108687827D01*
X144090907Y-108515770D01*
X144054575Y-108333116D01*
X144054575Y-108146884D01*
X144090907Y-107964230D01*
X144162175Y-107792173D01*
X144265640Y-107637326D01*
X144397326Y-107505640D01*
X144552173Y-107402175D01*
X144724230Y-107330907D01*
X144906884Y-107294575D01*
X145093116Y-107294575D01*
X145275770Y-107330907D01*
G37*
G36*
X101268462Y-106881775D02*
G01*
X101440086Y-106937539D01*
X101600873Y-107019464D01*
X101746865Y-107125533D01*
X101874467Y-107253135D01*
X101980536Y-107399127D01*
X102062461Y-107559914D01*
X102118225Y-107731538D01*
X102146455Y-107909772D01*
X102146455Y-108090228D01*
X102118225Y-108268462D01*
X102062461Y-108440086D01*
X101980536Y-108600873D01*
X101874467Y-108746865D01*
X101746865Y-108874467D01*
X101600873Y-108980536D01*
X101440086Y-109062461D01*
X101268462Y-109118225D01*
X101090228Y-109146455D01*
X100909772Y-109146455D01*
X100731538Y-109118225D01*
X100559914Y-109062461D01*
X100399127Y-108980536D01*
X100253135Y-108874467D01*
X100125533Y-108746865D01*
X100019464Y-108600873D01*
X99937539Y-108440086D01*
X99881775Y-108268462D01*
X99853545Y-108090228D01*
X99853545Y-107909772D01*
X99881775Y-107731538D01*
X99937539Y-107559914D01*
X100019464Y-107399127D01*
X100125533Y-107253135D01*
X100253135Y-107125533D01*
X100399127Y-107019464D01*
X100559914Y-106937539D01*
X100731538Y-106881775D01*
X100909772Y-106853545D01*
X101090228Y-106853545D01*
X101268462Y-106881775D01*
G37*
G36*
X107768462Y-106881775D02*
G01*
X107940086Y-106937539D01*
X108100873Y-107019464D01*
X108246865Y-107125533D01*
X108374467Y-107253135D01*
X108480536Y-107399127D01*
X108562461Y-107559914D01*
X108618225Y-107731538D01*
X108646455Y-107909772D01*
X108646455Y-108090228D01*
X108618225Y-108268462D01*
X108562461Y-108440086D01*
X108480536Y-108600873D01*
X108374467Y-108746865D01*
X108246865Y-108874467D01*
X108100873Y-108980536D01*
X107940086Y-109062461D01*
X107768462Y-109118225D01*
X107590228Y-109146455D01*
X107409772Y-109146455D01*
X107231538Y-109118225D01*
X107059914Y-109062461D01*
X106899127Y-108980536D01*
X106753135Y-108874467D01*
X106625533Y-108746865D01*
X106519464Y-108600873D01*
X106437539Y-108440086D01*
X106381775Y-108268462D01*
X106353545Y-108090228D01*
X106353545Y-107909772D01*
X106381775Y-107731538D01*
X106437539Y-107559914D01*
X106519464Y-107399127D01*
X106625533Y-107253135D01*
X106753135Y-107125533D01*
X106899127Y-107019464D01*
X107059914Y-106937539D01*
X107231538Y-106881775D01*
X107409772Y-106853545D01*
X107590228Y-106853545D01*
X107768462Y-106881775D01*
G37*
G36*
X130035770Y-104790907D02*
G01*
X130207827Y-104862175D01*
X130362674Y-104965640D01*
X130494360Y-105097326D01*
X130597825Y-105252173D01*
X130669093Y-105424230D01*
X130705425Y-105606884D01*
X130705425Y-105793116D01*
X130669093Y-105975770D01*
X130597825Y-106147827D01*
X130494360Y-106302674D01*
X130362674Y-106434360D01*
X130207827Y-106537825D01*
X130035770Y-106609093D01*
X129853116Y-106645425D01*
X129666884Y-106645425D01*
X129484230Y-106609093D01*
X129312173Y-106537825D01*
X129157326Y-106434360D01*
X129025640Y-106302674D01*
X128922175Y-106147827D01*
X128850907Y-105975770D01*
X128814575Y-105793116D01*
X128814575Y-105606884D01*
X128850907Y-105424230D01*
X128922175Y-105252173D01*
X129025640Y-105097326D01*
X129157326Y-104965640D01*
X129312173Y-104862175D01*
X129484230Y-104790907D01*
X129666884Y-104754575D01*
X129853116Y-104754575D01*
X130035770Y-104790907D01*
G37*
G36*
X145275770Y-104790907D02*
G01*
X145447827Y-104862175D01*
X145602674Y-104965640D01*
X145734360Y-105097326D01*
X145837825Y-105252173D01*
X145909093Y-105424230D01*
X145945425Y-105606884D01*
X145945425Y-105793116D01*
X145909093Y-105975770D01*
X145837825Y-106147827D01*
X145734360Y-106302674D01*
X145602674Y-106434360D01*
X145447827Y-106537825D01*
X145275770Y-106609093D01*
X145093116Y-106645425D01*
X144906884Y-106645425D01*
X144724230Y-106609093D01*
X144552173Y-106537825D01*
X144397326Y-106434360D01*
X144265640Y-106302674D01*
X144162175Y-106147827D01*
X144090907Y-105975770D01*
X144054575Y-105793116D01*
X144054575Y-105606884D01*
X144090907Y-105424230D01*
X144162175Y-105252173D01*
X144265640Y-105097326D01*
X144397326Y-104965640D01*
X144552173Y-104862175D01*
X144724230Y-104790907D01*
X144906884Y-104754575D01*
X145093116Y-104754575D01*
X145275770Y-104790907D01*
G37*
G36*
X130035770Y-102250907D02*
G01*
X130207827Y-102322175D01*
X130362674Y-102425640D01*
X130494360Y-102557326D01*
X130597825Y-102712173D01*
X130669093Y-102884230D01*
X130705425Y-103066884D01*
X130705425Y-103253116D01*
X130669093Y-103435770D01*
X130597825Y-103607827D01*
X130494360Y-103762674D01*
X130362674Y-103894360D01*
X130207827Y-103997825D01*
X130035770Y-104069093D01*
X129853116Y-104105425D01*
X129666884Y-104105425D01*
X129484230Y-104069093D01*
X129312173Y-103997825D01*
X129157326Y-103894360D01*
X129025640Y-103762674D01*
X128922175Y-103607827D01*
X128850907Y-103435770D01*
X128814575Y-103253116D01*
X128814575Y-103066884D01*
X128850907Y-102884230D01*
X128922175Y-102712173D01*
X129025640Y-102557326D01*
X129157326Y-102425640D01*
X129312173Y-102322175D01*
X129484230Y-102250907D01*
X129666884Y-102214575D01*
X129853116Y-102214575D01*
X130035770Y-102250907D01*
G37*
G36*
X145275770Y-102250907D02*
G01*
X145447827Y-102322175D01*
X145602674Y-102425640D01*
X145734360Y-102557326D01*
X145837825Y-102712173D01*
X145909093Y-102884230D01*
X145945425Y-103066884D01*
X145945425Y-103253116D01*
X145909093Y-103435770D01*
X145837825Y-103607827D01*
X145734360Y-103762674D01*
X145602674Y-103894360D01*
X145447827Y-103997825D01*
X145275770Y-104069093D01*
X145093116Y-104105425D01*
X144906884Y-104105425D01*
X144724230Y-104069093D01*
X144552173Y-103997825D01*
X144397326Y-103894360D01*
X144265640Y-103762674D01*
X144162175Y-103607827D01*
X144090907Y-103435770D01*
X144054575Y-103253116D01*
X144054575Y-103066884D01*
X144090907Y-102884230D01*
X144162175Y-102712173D01*
X144265640Y-102557326D01*
X144397326Y-102425640D01*
X144552173Y-102322175D01*
X144724230Y-102250907D01*
X144906884Y-102214575D01*
X145093116Y-102214575D01*
X145275770Y-102250907D01*
G37*
G36*
X129992228Y-99854448D02*
G01*
X130137117Y-99914463D01*
X130267515Y-100001592D01*
X130378408Y-100112485D01*
X130465537Y-100242883D01*
X130525552Y-100387772D01*
X130556148Y-100541586D01*
X130556148Y-100698414D01*
X130525552Y-100852228D01*
X130465537Y-100997117D01*
X130378408Y-101127515D01*
X130267515Y-101238408D01*
X130137117Y-101325537D01*
X129992228Y-101385552D01*
X129838414Y-101416148D01*
X129681586Y-101416148D01*
X129527772Y-101385552D01*
X129382883Y-101325537D01*
X129252485Y-101238408D01*
X129141592Y-101127515D01*
X129054463Y-100997117D01*
X128994448Y-100852228D01*
X128963852Y-100698414D01*
X128963852Y-100541586D01*
X128994448Y-100387772D01*
X129054463Y-100242883D01*
X129141592Y-100112485D01*
X129252485Y-100001592D01*
X129382883Y-99914463D01*
X129527772Y-99854448D01*
X129681586Y-99823852D01*
X129838414Y-99823852D01*
X129992228Y-99854448D01*
G37*
G36*
X145232228Y-99854448D02*
G01*
X145377117Y-99914463D01*
X145507515Y-100001592D01*
X145618408Y-100112485D01*
X145705537Y-100242883D01*
X145765552Y-100387772D01*
X145796148Y-100541586D01*
X145796148Y-100698414D01*
X145765552Y-100852228D01*
X145705537Y-100997117D01*
X145618408Y-101127515D01*
X145507515Y-101238408D01*
X145377117Y-101325537D01*
X145232228Y-101385552D01*
X145078414Y-101416148D01*
X144921586Y-101416148D01*
X144767772Y-101385552D01*
X144622883Y-101325537D01*
X144492485Y-101238408D01*
X144381592Y-101127515D01*
X144294463Y-100997117D01*
X144234448Y-100852228D01*
X144203852Y-100698414D01*
X144203852Y-100541586D01*
X144234448Y-100387772D01*
X144294463Y-100242883D01*
X144381592Y-100112485D01*
X144492485Y-100001592D01*
X144622883Y-99914463D01*
X144767772Y-99854448D01*
X144921586Y-99823852D01*
X145078414Y-99823852D01*
X145232228Y-99854448D01*
G37*
G36*
X101018462Y-99131775D02*
G01*
X101190086Y-99187539D01*
X101350873Y-99269464D01*
X101496865Y-99375533D01*
X101624467Y-99503135D01*
X101730536Y-99649127D01*
X101812461Y-99809914D01*
X101868225Y-99981538D01*
X101896455Y-100159772D01*
X101896455Y-100340228D01*
X101868225Y-100518462D01*
X101812461Y-100690086D01*
X101730536Y-100850873D01*
X101624467Y-100996865D01*
X101496865Y-101124467D01*
X101350873Y-101230536D01*
X101190086Y-101312461D01*
X101018462Y-101368225D01*
X100840228Y-101396455D01*
X100659772Y-101396455D01*
X100481538Y-101368225D01*
X100309914Y-101312461D01*
X100149127Y-101230536D01*
X100003135Y-101124467D01*
X99875533Y-100996865D01*
X99769464Y-100850873D01*
X99687539Y-100690086D01*
X99631775Y-100518462D01*
X99603545Y-100340228D01*
X99603545Y-100159772D01*
X99631775Y-99981538D01*
X99687539Y-99809914D01*
X99769464Y-99649127D01*
X99875533Y-99503135D01*
X100003135Y-99375533D01*
X100149127Y-99269464D01*
X100309914Y-99187539D01*
X100481538Y-99131775D01*
X100659772Y-99103545D01*
X100840228Y-99103545D01*
X101018462Y-99131775D01*
G37*
G36*
X107518462Y-99131775D02*
G01*
X107690086Y-99187539D01*
X107850873Y-99269464D01*
X107996865Y-99375533D01*
X108124467Y-99503135D01*
X108230536Y-99649127D01*
X108312461Y-99809914D01*
X108368225Y-99981538D01*
X108396455Y-100159772D01*
X108396455Y-100340228D01*
X108368225Y-100518462D01*
X108312461Y-100690086D01*
X108230536Y-100850873D01*
X108124467Y-100996865D01*
X107996865Y-101124467D01*
X107850873Y-101230536D01*
X107690086Y-101312461D01*
X107518462Y-101368225D01*
X107340228Y-101396455D01*
X107159772Y-101396455D01*
X106981538Y-101368225D01*
X106809914Y-101312461D01*
X106649127Y-101230536D01*
X106503135Y-101124467D01*
X106375533Y-100996865D01*
X106269464Y-100850873D01*
X106187539Y-100690086D01*
X106131775Y-100518462D01*
X106103545Y-100340228D01*
X106103545Y-100159772D01*
X106131775Y-99981538D01*
X106187539Y-99809914D01*
X106269464Y-99649127D01*
X106375533Y-99503135D01*
X106503135Y-99375533D01*
X106649127Y-99269464D01*
X106809914Y-99187539D01*
X106981538Y-99131775D01*
X107159772Y-99103545D01*
X107340228Y-99103545D01*
X107518462Y-99131775D01*
G37*
G36*
X179792916Y-98699815D02*
G01*
X179803017Y-98699815D01*
X179842483Y-98707665D01*
X179938395Y-98722856D01*
X179969248Y-98732881D01*
X179995285Y-98738060D01*
X180032025Y-98753278D01*
X180087595Y-98771334D01*
X180139653Y-98797859D01*
X180176397Y-98813079D01*
X180198471Y-98827829D01*
X180227373Y-98842555D01*
X180305949Y-98899643D01*
X180339393Y-98921990D01*
X180346529Y-98929126D01*
X180354300Y-98934772D01*
X180465227Y-99045699D01*
X180470872Y-99053469D01*
X180478010Y-99060607D01*
X180500359Y-99094054D01*
X180557444Y-99172626D01*
X180572168Y-99201525D01*
X180586921Y-99223603D01*
X180602142Y-99260351D01*
X180628665Y-99312404D01*
X180646718Y-99367967D01*
X180661940Y-99404715D01*
X180667120Y-99430756D01*
X180677143Y-99461604D01*
X180692332Y-99557508D01*
X180700185Y-99596983D01*
X180700185Y-99607084D01*
X180701686Y-99616561D01*
X180701686Y-99773438D01*
X180700185Y-99782914D01*
X180700185Y-99793017D01*
X180692332Y-99832495D01*
X180677143Y-99928395D01*
X180667120Y-99959240D01*
X180661940Y-99985285D01*
X180646717Y-100022036D01*
X180628665Y-100077595D01*
X180602144Y-100129643D01*
X180586921Y-100166397D01*
X180572166Y-100188478D01*
X180557444Y-100217373D01*
X180500367Y-100295932D01*
X180478010Y-100329393D01*
X180470870Y-100336532D01*
X180465227Y-100344300D01*
X180354300Y-100455227D01*
X180346532Y-100460870D01*
X180339393Y-100468010D01*
X180305932Y-100490367D01*
X180227373Y-100547444D01*
X180198478Y-100562166D01*
X180176397Y-100576921D01*
X180139643Y-100592144D01*
X180087595Y-100618665D01*
X180032036Y-100636717D01*
X179995285Y-100651940D01*
X179969240Y-100657120D01*
X179938395Y-100667143D01*
X179842493Y-100682332D01*
X179803017Y-100690185D01*
X179792916Y-100690185D01*
X179783439Y-100691686D01*
X179626561Y-100691686D01*
X179617084Y-100690185D01*
X179606983Y-100690185D01*
X179567508Y-100682332D01*
X179471604Y-100667143D01*
X179440756Y-100657120D01*
X179414715Y-100651940D01*
X179377967Y-100636718D01*
X179322404Y-100618665D01*
X179270351Y-100592142D01*
X179233603Y-100576921D01*
X179211525Y-100562168D01*
X179182626Y-100547444D01*
X179104054Y-100490359D01*
X179070607Y-100468010D01*
X179063469Y-100460872D01*
X179055699Y-100455227D01*
X178944772Y-100344300D01*
X178939126Y-100336529D01*
X178931990Y-100329393D01*
X178909643Y-100295949D01*
X178852555Y-100217373D01*
X178837829Y-100188471D01*
X178823079Y-100166397D01*
X178807859Y-100129653D01*
X178781334Y-100077595D01*
X178763278Y-100022025D01*
X178748060Y-99985285D01*
X178742881Y-99959248D01*
X178732856Y-99928395D01*
X178717666Y-99832486D01*
X178709815Y-99793017D01*
X178709815Y-99782915D01*
X178708314Y-99773438D01*
X178708314Y-99616561D01*
X178709815Y-99607083D01*
X178709815Y-99596983D01*
X178717665Y-99557517D01*
X178732856Y-99461604D01*
X178742881Y-99430748D01*
X178748060Y-99404715D01*
X178763276Y-99367978D01*
X178781334Y-99312404D01*
X178807861Y-99260340D01*
X178823079Y-99223603D01*
X178837826Y-99201531D01*
X178852555Y-99172626D01*
X178909652Y-99094037D01*
X178931990Y-99060607D01*
X178939123Y-99053473D01*
X178944772Y-99045699D01*
X179055699Y-98934772D01*
X179063473Y-98929123D01*
X179070607Y-98921990D01*
X179104037Y-98899652D01*
X179182626Y-98842555D01*
X179211531Y-98827826D01*
X179233603Y-98813079D01*
X179270340Y-98797861D01*
X179322404Y-98771334D01*
X179377978Y-98753276D01*
X179414715Y-98738060D01*
X179440748Y-98732881D01*
X179471604Y-98722856D01*
X179567517Y-98707665D01*
X179606983Y-98699815D01*
X179617084Y-98699815D01*
X179626561Y-98698314D01*
X179783439Y-98698314D01*
X179792916Y-98699815D01*
G37*
G36*
X130035770Y-97170907D02*
G01*
X130207827Y-97242175D01*
X130362674Y-97345640D01*
X130494360Y-97477326D01*
X130597825Y-97632173D01*
X130669093Y-97804230D01*
X130705425Y-97986884D01*
X130705425Y-98173116D01*
X130669093Y-98355770D01*
X130597825Y-98527827D01*
X130494360Y-98682674D01*
X130362674Y-98814360D01*
X130207827Y-98917825D01*
X130035770Y-98989093D01*
X129853116Y-99025425D01*
X129666884Y-99025425D01*
X129484230Y-98989093D01*
X129312173Y-98917825D01*
X129157326Y-98814360D01*
X129025640Y-98682674D01*
X128922175Y-98527827D01*
X128850907Y-98355770D01*
X128814575Y-98173116D01*
X128814575Y-97986884D01*
X128850907Y-97804230D01*
X128922175Y-97632173D01*
X129025640Y-97477326D01*
X129157326Y-97345640D01*
X129312173Y-97242175D01*
X129484230Y-97170907D01*
X129666884Y-97134575D01*
X129853116Y-97134575D01*
X130035770Y-97170907D01*
G37*
G36*
X145275770Y-97170907D02*
G01*
X145447827Y-97242175D01*
X145602674Y-97345640D01*
X145734360Y-97477326D01*
X145837825Y-97632173D01*
X145909093Y-97804230D01*
X145945425Y-97986884D01*
X145945425Y-98173116D01*
X145909093Y-98355770D01*
X145837825Y-98527827D01*
X145734360Y-98682674D01*
X145602674Y-98814360D01*
X145447827Y-98917825D01*
X145275770Y-98989093D01*
X145093116Y-99025425D01*
X144906884Y-99025425D01*
X144724230Y-98989093D01*
X144552173Y-98917825D01*
X144397326Y-98814360D01*
X144265640Y-98682674D01*
X144162175Y-98527827D01*
X144090907Y-98355770D01*
X144054575Y-98173116D01*
X144054575Y-97986884D01*
X144090907Y-97804230D01*
X144162175Y-97632173D01*
X144265640Y-97477326D01*
X144397326Y-97345640D01*
X144552173Y-97242175D01*
X144724230Y-97170907D01*
X144906884Y-97134575D01*
X145093116Y-97134575D01*
X145275770Y-97170907D01*
G37*
G36*
X180612403Y-96166418D02*
G01*
X180661066Y-96198934D01*
X180693582Y-96247597D01*
X180705000Y-96305000D01*
X180705000Y-98005000D01*
X180693582Y-98062403D01*
X180661066Y-98111066D01*
X180612403Y-98143582D01*
X180555000Y-98155000D01*
X178855000Y-98155000D01*
X178797597Y-98143582D01*
X178748934Y-98111066D01*
X178716418Y-98062403D01*
X178705000Y-98005000D01*
X178705000Y-96305000D01*
X178716418Y-96247597D01*
X178748934Y-96198934D01*
X178797597Y-96166418D01*
X178855000Y-96155000D01*
X180555000Y-96155000D01*
X180612403Y-96166418D01*
G37*
G36*
X100837916Y-94754815D02*
G01*
X100848017Y-94754815D01*
X100887483Y-94762665D01*
X100983395Y-94777856D01*
X101014248Y-94787881D01*
X101040285Y-94793060D01*
X101077025Y-94808278D01*
X101132595Y-94826334D01*
X101184653Y-94852859D01*
X101221397Y-94868079D01*
X101243471Y-94882829D01*
X101272373Y-94897555D01*
X101350949Y-94954643D01*
X101384393Y-94976990D01*
X101391529Y-94984126D01*
X101399300Y-94989772D01*
X101510227Y-95100699D01*
X101515872Y-95108469D01*
X101523010Y-95115607D01*
X101545359Y-95149054D01*
X101602444Y-95227626D01*
X101617168Y-95256525D01*
X101631921Y-95278603D01*
X101647142Y-95315351D01*
X101673665Y-95367404D01*
X101691718Y-95422967D01*
X101706940Y-95459715D01*
X101712120Y-95485756D01*
X101722143Y-95516604D01*
X101737332Y-95612508D01*
X101745185Y-95651983D01*
X101745185Y-95662084D01*
X101746686Y-95671561D01*
X101746686Y-95828438D01*
X101745185Y-95837914D01*
X101745185Y-95848017D01*
X101737332Y-95887495D01*
X101722143Y-95983395D01*
X101712120Y-96014240D01*
X101706940Y-96040285D01*
X101691717Y-96077036D01*
X101673665Y-96132595D01*
X101647144Y-96184643D01*
X101631921Y-96221397D01*
X101617166Y-96243478D01*
X101602444Y-96272373D01*
X101545367Y-96350932D01*
X101523010Y-96384393D01*
X101515870Y-96391532D01*
X101510227Y-96399300D01*
X101399300Y-96510227D01*
X101391532Y-96515870D01*
X101384393Y-96523010D01*
X101350932Y-96545367D01*
X101272373Y-96602444D01*
X101243478Y-96617166D01*
X101221397Y-96631921D01*
X101184643Y-96647144D01*
X101132595Y-96673665D01*
X101077036Y-96691717D01*
X101040285Y-96706940D01*
X101014240Y-96712120D01*
X100983395Y-96722143D01*
X100887493Y-96737332D01*
X100848017Y-96745185D01*
X100837916Y-96745185D01*
X100828439Y-96746686D01*
X100671561Y-96746686D01*
X100662084Y-96745185D01*
X100651983Y-96745185D01*
X100612508Y-96737332D01*
X100516604Y-96722143D01*
X100485756Y-96712120D01*
X100459715Y-96706940D01*
X100422967Y-96691718D01*
X100367404Y-96673665D01*
X100315351Y-96647142D01*
X100278603Y-96631921D01*
X100256525Y-96617168D01*
X100227626Y-96602444D01*
X100149054Y-96545359D01*
X100115607Y-96523010D01*
X100108469Y-96515872D01*
X100100699Y-96510227D01*
X99989772Y-96399300D01*
X99984126Y-96391529D01*
X99976990Y-96384393D01*
X99954643Y-96350949D01*
X99897555Y-96272373D01*
X99882829Y-96243471D01*
X99868079Y-96221397D01*
X99852859Y-96184653D01*
X99826334Y-96132595D01*
X99808278Y-96077025D01*
X99793060Y-96040285D01*
X99787881Y-96014248D01*
X99777856Y-95983395D01*
X99762666Y-95887486D01*
X99754815Y-95848017D01*
X99754815Y-95837915D01*
X99753314Y-95828438D01*
X99753314Y-95671561D01*
X99754815Y-95662083D01*
X99754815Y-95651983D01*
X99762665Y-95612517D01*
X99777856Y-95516604D01*
X99787881Y-95485748D01*
X99793060Y-95459715D01*
X99808276Y-95422978D01*
X99826334Y-95367404D01*
X99852861Y-95315340D01*
X99868079Y-95278603D01*
X99882826Y-95256531D01*
X99897555Y-95227626D01*
X99954652Y-95149037D01*
X99976990Y-95115607D01*
X99984123Y-95108473D01*
X99989772Y-95100699D01*
X100100699Y-94989772D01*
X100108473Y-94984123D01*
X100115607Y-94976990D01*
X100149037Y-94954652D01*
X100227626Y-94897555D01*
X100256531Y-94882826D01*
X100278603Y-94868079D01*
X100315340Y-94852861D01*
X100367404Y-94826334D01*
X100422978Y-94808276D01*
X100459715Y-94793060D01*
X100485748Y-94787881D01*
X100516604Y-94777856D01*
X100612517Y-94762665D01*
X100651983Y-94754815D01*
X100662084Y-94754815D01*
X100671561Y-94753314D01*
X100828439Y-94753314D01*
X100837916Y-94754815D01*
G37*
G36*
X107337916Y-94754815D02*
G01*
X107348017Y-94754815D01*
X107387483Y-94762665D01*
X107483395Y-94777856D01*
X107514248Y-94787881D01*
X107540285Y-94793060D01*
X107577025Y-94808278D01*
X107632595Y-94826334D01*
X107684653Y-94852859D01*
X107721397Y-94868079D01*
X107743471Y-94882829D01*
X107772373Y-94897555D01*
X107850949Y-94954643D01*
X107884393Y-94976990D01*
X107891529Y-94984126D01*
X107899300Y-94989772D01*
X108010227Y-95100699D01*
X108015872Y-95108469D01*
X108023010Y-95115607D01*
X108045359Y-95149054D01*
X108102444Y-95227626D01*
X108117168Y-95256525D01*
X108131921Y-95278603D01*
X108147142Y-95315351D01*
X108173665Y-95367404D01*
X108191718Y-95422967D01*
X108206940Y-95459715D01*
X108212120Y-95485756D01*
X108222143Y-95516604D01*
X108237332Y-95612508D01*
X108245185Y-95651983D01*
X108245185Y-95662084D01*
X108246686Y-95671561D01*
X108246686Y-95828438D01*
X108245185Y-95837914D01*
X108245185Y-95848017D01*
X108237332Y-95887495D01*
X108222143Y-95983395D01*
X108212120Y-96014240D01*
X108206940Y-96040285D01*
X108191717Y-96077036D01*
X108173665Y-96132595D01*
X108147144Y-96184643D01*
X108131921Y-96221397D01*
X108117166Y-96243478D01*
X108102444Y-96272373D01*
X108045367Y-96350932D01*
X108023010Y-96384393D01*
X108015870Y-96391532D01*
X108010227Y-96399300D01*
X107899300Y-96510227D01*
X107891532Y-96515870D01*
X107884393Y-96523010D01*
X107850932Y-96545367D01*
X107772373Y-96602444D01*
X107743478Y-96617166D01*
X107721397Y-96631921D01*
X107684643Y-96647144D01*
X107632595Y-96673665D01*
X107577036Y-96691717D01*
X107540285Y-96706940D01*
X107514240Y-96712120D01*
X107483395Y-96722143D01*
X107387493Y-96737332D01*
X107348017Y-96745185D01*
X107337916Y-96745185D01*
X107328439Y-96746686D01*
X107171561Y-96746686D01*
X107162084Y-96745185D01*
X107151983Y-96745185D01*
X107112508Y-96737332D01*
X107016604Y-96722143D01*
X106985756Y-96712120D01*
X106959715Y-96706940D01*
X106922967Y-96691718D01*
X106867404Y-96673665D01*
X106815351Y-96647142D01*
X106778603Y-96631921D01*
X106756525Y-96617168D01*
X106727626Y-96602444D01*
X106649054Y-96545359D01*
X106615607Y-96523010D01*
X106608469Y-96515872D01*
X106600699Y-96510227D01*
X106489772Y-96399300D01*
X106484126Y-96391529D01*
X106476990Y-96384393D01*
X106454643Y-96350949D01*
X106397555Y-96272373D01*
X106382829Y-96243471D01*
X106368079Y-96221397D01*
X106352859Y-96184653D01*
X106326334Y-96132595D01*
X106308278Y-96077025D01*
X106293060Y-96040285D01*
X106287881Y-96014248D01*
X106277856Y-95983395D01*
X106262666Y-95887486D01*
X106254815Y-95848017D01*
X106254815Y-95837915D01*
X106253314Y-95828438D01*
X106253314Y-95671561D01*
X106254815Y-95662083D01*
X106254815Y-95651983D01*
X106262665Y-95612517D01*
X106277856Y-95516604D01*
X106287881Y-95485748D01*
X106293060Y-95459715D01*
X106308276Y-95422978D01*
X106326334Y-95367404D01*
X106352861Y-95315340D01*
X106368079Y-95278603D01*
X106382826Y-95256531D01*
X106397555Y-95227626D01*
X106454652Y-95149037D01*
X106476990Y-95115607D01*
X106484123Y-95108473D01*
X106489772Y-95100699D01*
X106600699Y-94989772D01*
X106608473Y-94984123D01*
X106615607Y-94976990D01*
X106649037Y-94954652D01*
X106727626Y-94897555D01*
X106756531Y-94882826D01*
X106778603Y-94868079D01*
X106815340Y-94852861D01*
X106867404Y-94826334D01*
X106922978Y-94808276D01*
X106959715Y-94793060D01*
X106985748Y-94787881D01*
X107016604Y-94777856D01*
X107112517Y-94762665D01*
X107151983Y-94754815D01*
X107162084Y-94754815D01*
X107171561Y-94753314D01*
X107328439Y-94753314D01*
X107337916Y-94754815D01*
G37*
G36*
X130035770Y-94630907D02*
G01*
X130207827Y-94702175D01*
X130362674Y-94805640D01*
X130494360Y-94937326D01*
X130597825Y-95092173D01*
X130669093Y-95264230D01*
X130705425Y-95446884D01*
X130705425Y-95633116D01*
X130669093Y-95815770D01*
X130597825Y-95987827D01*
X130494360Y-96142674D01*
X130362674Y-96274360D01*
X130207827Y-96377825D01*
X130035770Y-96449093D01*
X129853116Y-96485425D01*
X129666884Y-96485425D01*
X129484230Y-96449093D01*
X129312173Y-96377825D01*
X129157326Y-96274360D01*
X129025640Y-96142674D01*
X128922175Y-95987827D01*
X128850907Y-95815770D01*
X128814575Y-95633116D01*
X128814575Y-95446884D01*
X128850907Y-95264230D01*
X128922175Y-95092173D01*
X129025640Y-94937326D01*
X129157326Y-94805640D01*
X129312173Y-94702175D01*
X129484230Y-94630907D01*
X129666884Y-94594575D01*
X129853116Y-94594575D01*
X130035770Y-94630907D01*
G37*
G36*
X145275770Y-94630907D02*
G01*
X145447827Y-94702175D01*
X145602674Y-94805640D01*
X145734360Y-94937326D01*
X145837825Y-95092173D01*
X145909093Y-95264230D01*
X145945425Y-95446884D01*
X145945425Y-95633116D01*
X145909093Y-95815770D01*
X145837825Y-95987827D01*
X145734360Y-96142674D01*
X145602674Y-96274360D01*
X145447827Y-96377825D01*
X145275770Y-96449093D01*
X145093116Y-96485425D01*
X144906884Y-96485425D01*
X144724230Y-96449093D01*
X144552173Y-96377825D01*
X144397326Y-96274360D01*
X144265640Y-96142674D01*
X144162175Y-95987827D01*
X144090907Y-95815770D01*
X144054575Y-95633116D01*
X144054575Y-95446884D01*
X144090907Y-95264230D01*
X144162175Y-95092173D01*
X144265640Y-94937326D01*
X144397326Y-94805640D01*
X144552173Y-94702175D01*
X144724230Y-94630907D01*
X144906884Y-94594575D01*
X145093116Y-94594575D01*
X145275770Y-94630907D01*
G37*
G36*
X130035770Y-92090907D02*
G01*
X130207827Y-92162175D01*
X130362674Y-92265640D01*
X130494360Y-92397326D01*
X130597825Y-92552173D01*
X130669093Y-92724230D01*
X130705425Y-92906884D01*
X130705425Y-93093116D01*
X130669093Y-93275770D01*
X130597825Y-93447827D01*
X130494360Y-93602674D01*
X130362674Y-93734360D01*
X130207827Y-93837825D01*
X130035770Y-93909093D01*
X129853116Y-93945425D01*
X129666884Y-93945425D01*
X129484230Y-93909093D01*
X129312173Y-93837825D01*
X129157326Y-93734360D01*
X129025640Y-93602674D01*
X128922175Y-93447827D01*
X128850907Y-93275770D01*
X128814575Y-93093116D01*
X128814575Y-92906884D01*
X128850907Y-92724230D01*
X128922175Y-92552173D01*
X129025640Y-92397326D01*
X129157326Y-92265640D01*
X129312173Y-92162175D01*
X129484230Y-92090907D01*
X129666884Y-92054575D01*
X129853116Y-92054575D01*
X130035770Y-92090907D01*
G37*
G36*
X145275770Y-92090907D02*
G01*
X145447827Y-92162175D01*
X145602674Y-92265640D01*
X145734360Y-92397326D01*
X145837825Y-92552173D01*
X145909093Y-92724230D01*
X145945425Y-92906884D01*
X145945425Y-93093116D01*
X145909093Y-93275770D01*
X145837825Y-93447827D01*
X145734360Y-93602674D01*
X145602674Y-93734360D01*
X145447827Y-93837825D01*
X145275770Y-93909093D01*
X145093116Y-93945425D01*
X144906884Y-93945425D01*
X144724230Y-93909093D01*
X144552173Y-93837825D01*
X144397326Y-93734360D01*
X144265640Y-93602674D01*
X144162175Y-93447827D01*
X144090907Y-93275770D01*
X144054575Y-93093116D01*
X144054575Y-92906884D01*
X144090907Y-92724230D01*
X144162175Y-92552173D01*
X144265640Y-92397326D01*
X144397326Y-92265640D01*
X144552173Y-92162175D01*
X144724230Y-92090907D01*
X144906884Y-92054575D01*
X145093116Y-92054575D01*
X145275770Y-92090907D01*
G37*
G36*
X164525000Y-92250000D02*
G01*
X163475000Y-92250000D01*
X163475000Y-90750000D01*
X164525000Y-90750000D01*
X164525000Y-92250000D01*
G37*
G36*
X165470909Y-90789963D02*
G01*
X165589600Y-90858489D01*
X165686511Y-90955400D01*
X165755037Y-91074091D01*
X165790509Y-91206474D01*
X165795000Y-91275000D01*
X165795000Y-91725000D01*
X165790509Y-91793526D01*
X165755037Y-91925909D01*
X165686511Y-92044600D01*
X165589600Y-92141511D01*
X165470909Y-92210037D01*
X165338526Y-92245509D01*
X165201474Y-92245509D01*
X165069091Y-92210037D01*
X164950400Y-92141511D01*
X164853489Y-92044600D01*
X164784963Y-91925909D01*
X164749491Y-91793526D01*
X164745000Y-91725000D01*
X164745000Y-91275000D01*
X164749491Y-91206474D01*
X164784963Y-91074091D01*
X164853489Y-90955400D01*
X164950400Y-90858489D01*
X165069091Y-90789963D01*
X165201474Y-90754491D01*
X165338526Y-90754491D01*
X165470909Y-90789963D01*
G37*
G36*
X166740909Y-90789963D02*
G01*
X166859600Y-90858489D01*
X166956511Y-90955400D01*
X167025037Y-91074091D01*
X167060509Y-91206474D01*
X167065000Y-91275000D01*
X167065000Y-91725000D01*
X167060509Y-91793526D01*
X167025037Y-91925909D01*
X166956511Y-92044600D01*
X166859600Y-92141511D01*
X166740909Y-92210037D01*
X166608526Y-92245509D01*
X166471474Y-92245509D01*
X166339091Y-92210037D01*
X166220400Y-92141511D01*
X166123489Y-92044600D01*
X166054963Y-91925909D01*
X166019491Y-91793526D01*
X166015000Y-91725000D01*
X166015000Y-91275000D01*
X166019491Y-91206474D01*
X166054963Y-91074091D01*
X166123489Y-90955400D01*
X166220400Y-90858489D01*
X166339091Y-90789963D01*
X166471474Y-90754491D01*
X166608526Y-90754491D01*
X166740909Y-90789963D01*
G37*
G36*
X204761807Y-89589538D02*
G01*
X204948354Y-89650151D01*
X205123123Y-89739200D01*
X205281810Y-89854493D01*
X205420507Y-89993190D01*
X205535800Y-90151877D01*
X205624849Y-90326646D01*
X205685462Y-90513193D01*
X205716147Y-90706926D01*
X205716147Y-90903074D01*
X205685462Y-91096807D01*
X205624849Y-91283354D01*
X205535800Y-91458123D01*
X205420507Y-91616810D01*
X205281810Y-91755507D01*
X205123123Y-91870800D01*
X204948354Y-91959849D01*
X204761807Y-92020462D01*
X204568074Y-92051147D01*
X204371926Y-92051147D01*
X204178193Y-92020462D01*
X203991646Y-91959849D01*
X203816877Y-91870800D01*
X203658190Y-91755507D01*
X203519493Y-91616810D01*
X203404200Y-91458123D01*
X203315151Y-91283354D01*
X203254538Y-91096807D01*
X203223853Y-90903074D01*
X203223853Y-90706926D01*
X203254538Y-90513193D01*
X203315151Y-90326646D01*
X203404200Y-90151877D01*
X203519493Y-89993190D01*
X203658190Y-89854493D01*
X203816877Y-89739200D01*
X203991646Y-89650151D01*
X204178193Y-89589538D01*
X204371926Y-89558853D01*
X204568074Y-89558853D01*
X204761807Y-89589538D01*
G37*
G36*
X195169615Y-89706912D02*
G01*
X195222882Y-89713925D01*
X195236281Y-89720173D01*
X195255671Y-89724030D01*
X195281354Y-89741190D01*
X195302731Y-89751159D01*
X195315735Y-89764163D01*
X195336777Y-89778223D01*
X195350836Y-89799264D01*
X195363840Y-89812268D01*
X195373807Y-89833643D01*
X195390970Y-89859329D01*
X195394826Y-89878719D01*
X195401074Y-89892117D01*
X195408089Y-89945398D01*
X195409999Y-89955000D01*
X195409999Y-89959903D01*
X195410000Y-89959911D01*
X195410000Y-90858489D01*
X195410000Y-91655001D01*
X195408086Y-91664619D01*
X195401074Y-91717882D01*
X195394827Y-91731277D01*
X195390970Y-91750671D01*
X195373805Y-91776359D01*
X195363840Y-91797731D01*
X195350838Y-91810732D01*
X195336777Y-91831777D01*
X195315732Y-91845838D01*
X195302731Y-91858840D01*
X195281359Y-91868805D01*
X195255671Y-91885970D01*
X195236278Y-91889827D01*
X195222882Y-91896074D01*
X195169602Y-91903089D01*
X195160000Y-91904999D01*
X195155096Y-91904999D01*
X195155089Y-91905000D01*
X193464911Y-91905000D01*
X193464910Y-91904999D01*
X193459999Y-91905000D01*
X193450382Y-91903087D01*
X193397117Y-91896074D01*
X193383720Y-91889827D01*
X193364329Y-91885970D01*
X193338643Y-91868807D01*
X193317268Y-91858840D01*
X193304264Y-91845836D01*
X193283223Y-91831777D01*
X193269163Y-91810735D01*
X193256159Y-91797731D01*
X193246190Y-91776354D01*
X193229030Y-91750671D01*
X193225173Y-91731282D01*
X193218925Y-91717882D01*
X193211910Y-91664600D01*
X193210001Y-91655000D01*
X193210000Y-91650095D01*
X193210000Y-91650088D01*
X193210000Y-89959911D01*
X193210000Y-89959910D01*
X193210000Y-89954999D01*
X193211912Y-89945385D01*
X193218925Y-89892117D01*
X193225173Y-89878717D01*
X193229030Y-89859329D01*
X193246189Y-89833648D01*
X193256159Y-89812268D01*
X193269165Y-89799261D01*
X193283223Y-89778223D01*
X193304261Y-89764165D01*
X193317268Y-89751159D01*
X193338648Y-89741189D01*
X193364329Y-89724030D01*
X193383716Y-89720173D01*
X193397117Y-89713925D01*
X193450401Y-89706910D01*
X193460000Y-89705001D01*
X193464903Y-89705000D01*
X193464911Y-89705000D01*
X195155089Y-89705000D01*
X195160001Y-89705000D01*
X195169615Y-89706912D01*
G37*
G36*
X130035770Y-89550907D02*
G01*
X130207827Y-89622175D01*
X130362674Y-89725640D01*
X130494360Y-89857326D01*
X130597825Y-90012173D01*
X130669093Y-90184230D01*
X130705425Y-90366884D01*
X130705425Y-90553116D01*
X130669093Y-90735770D01*
X130597825Y-90907827D01*
X130494360Y-91062674D01*
X130362674Y-91194360D01*
X130207827Y-91297825D01*
X130035770Y-91369093D01*
X129853116Y-91405425D01*
X129666884Y-91405425D01*
X129484230Y-91369093D01*
X129312173Y-91297825D01*
X129157326Y-91194360D01*
X129025640Y-91062674D01*
X128922175Y-90907827D01*
X128850907Y-90735770D01*
X128814575Y-90553116D01*
X128814575Y-90366884D01*
X128850907Y-90184230D01*
X128922175Y-90012173D01*
X129025640Y-89857326D01*
X129157326Y-89725640D01*
X129312173Y-89622175D01*
X129484230Y-89550907D01*
X129666884Y-89514575D01*
X129853116Y-89514575D01*
X130035770Y-89550907D01*
G37*
G36*
X145275770Y-89550907D02*
G01*
X145447827Y-89622175D01*
X145602674Y-89725640D01*
X145734360Y-89857326D01*
X145837825Y-90012173D01*
X145909093Y-90184230D01*
X145945425Y-90366884D01*
X145945425Y-90553116D01*
X145909093Y-90735770D01*
X145837825Y-90907827D01*
X145734360Y-91062674D01*
X145602674Y-91194360D01*
X145447827Y-91297825D01*
X145275770Y-91369093D01*
X145093116Y-91405425D01*
X144906884Y-91405425D01*
X144724230Y-91369093D01*
X144552173Y-91297825D01*
X144397326Y-91194360D01*
X144265640Y-91062674D01*
X144162175Y-90907827D01*
X144090907Y-90735770D01*
X144054575Y-90553116D01*
X144054575Y-90366884D01*
X144090907Y-90184230D01*
X144162175Y-90012173D01*
X144265640Y-89857326D01*
X144397326Y-89725640D01*
X144552173Y-89622175D01*
X144724230Y-89550907D01*
X144906884Y-89514575D01*
X145093116Y-89514575D01*
X145275770Y-89550907D01*
G37*
G36*
X101018462Y-87631775D02*
G01*
X101190086Y-87687539D01*
X101350873Y-87769464D01*
X101496865Y-87875533D01*
X101624467Y-88003135D01*
X101730536Y-88149127D01*
X101812461Y-88309914D01*
X101868225Y-88481538D01*
X101896455Y-88659772D01*
X101896455Y-88840228D01*
X101868225Y-89018462D01*
X101812461Y-89190086D01*
X101730536Y-89350873D01*
X101624467Y-89496865D01*
X101496865Y-89624467D01*
X101350873Y-89730536D01*
X101190086Y-89812461D01*
X101018462Y-89868225D01*
X100840228Y-89896455D01*
X100659772Y-89896455D01*
X100481538Y-89868225D01*
X100309914Y-89812461D01*
X100149127Y-89730536D01*
X100003135Y-89624467D01*
X99875533Y-89496865D01*
X99769464Y-89350873D01*
X99687539Y-89190086D01*
X99631775Y-89018462D01*
X99603545Y-88840228D01*
X99603545Y-88659772D01*
X99631775Y-88481538D01*
X99687539Y-88309914D01*
X99769464Y-88149127D01*
X99875533Y-88003135D01*
X100003135Y-87875533D01*
X100149127Y-87769464D01*
X100309914Y-87687539D01*
X100481538Y-87631775D01*
X100659772Y-87603545D01*
X100840228Y-87603545D01*
X101018462Y-87631775D01*
G37*
G36*
X107337916Y-87754815D02*
G01*
X107348017Y-87754815D01*
X107387483Y-87762665D01*
X107483395Y-87777856D01*
X107514248Y-87787881D01*
X107540285Y-87793060D01*
X107577025Y-87808278D01*
X107632595Y-87826334D01*
X107684653Y-87852859D01*
X107721397Y-87868079D01*
X107743471Y-87882829D01*
X107772373Y-87897555D01*
X107850949Y-87954643D01*
X107884393Y-87976990D01*
X107891529Y-87984126D01*
X107899300Y-87989772D01*
X108010227Y-88100699D01*
X108015872Y-88108469D01*
X108023010Y-88115607D01*
X108045359Y-88149054D01*
X108102444Y-88227626D01*
X108117168Y-88256525D01*
X108131921Y-88278603D01*
X108147142Y-88315351D01*
X108173665Y-88367404D01*
X108191718Y-88422967D01*
X108206940Y-88459715D01*
X108212120Y-88485756D01*
X108222143Y-88516604D01*
X108237332Y-88612508D01*
X108245185Y-88651983D01*
X108245185Y-88662084D01*
X108246686Y-88671561D01*
X108246686Y-88828438D01*
X108245185Y-88837914D01*
X108245185Y-88848017D01*
X108237332Y-88887495D01*
X108222143Y-88983395D01*
X108212120Y-89014240D01*
X108206940Y-89040285D01*
X108191717Y-89077036D01*
X108173665Y-89132595D01*
X108147144Y-89184643D01*
X108131921Y-89221397D01*
X108117166Y-89243478D01*
X108102444Y-89272373D01*
X108045367Y-89350932D01*
X108023010Y-89384393D01*
X108015870Y-89391532D01*
X108010227Y-89399300D01*
X107899300Y-89510227D01*
X107891532Y-89515870D01*
X107884393Y-89523010D01*
X107850932Y-89545367D01*
X107772373Y-89602444D01*
X107743478Y-89617166D01*
X107721397Y-89631921D01*
X107684643Y-89647144D01*
X107632595Y-89673665D01*
X107577036Y-89691717D01*
X107540285Y-89706940D01*
X107514240Y-89712120D01*
X107483395Y-89722143D01*
X107387493Y-89737332D01*
X107348017Y-89745185D01*
X107337916Y-89745185D01*
X107328439Y-89746686D01*
X107171561Y-89746686D01*
X107162084Y-89745185D01*
X107151983Y-89745185D01*
X107112508Y-89737332D01*
X107016604Y-89722143D01*
X106985756Y-89712120D01*
X106959715Y-89706940D01*
X106922967Y-89691718D01*
X106867404Y-89673665D01*
X106815351Y-89647142D01*
X106778603Y-89631921D01*
X106756525Y-89617168D01*
X106727626Y-89602444D01*
X106649054Y-89545359D01*
X106615607Y-89523010D01*
X106608469Y-89515872D01*
X106600699Y-89510227D01*
X106489772Y-89399300D01*
X106484126Y-89391529D01*
X106476990Y-89384393D01*
X106454643Y-89350949D01*
X106397555Y-89272373D01*
X106382829Y-89243471D01*
X106368079Y-89221397D01*
X106352859Y-89184653D01*
X106326334Y-89132595D01*
X106308278Y-89077025D01*
X106293060Y-89040285D01*
X106287881Y-89014248D01*
X106277856Y-88983395D01*
X106262666Y-88887486D01*
X106254815Y-88848017D01*
X106254815Y-88837915D01*
X106253314Y-88828438D01*
X106253314Y-88671561D01*
X106254815Y-88662083D01*
X106254815Y-88651983D01*
X106262665Y-88612517D01*
X106277856Y-88516604D01*
X106287881Y-88485748D01*
X106293060Y-88459715D01*
X106308276Y-88422978D01*
X106326334Y-88367404D01*
X106352861Y-88315340D01*
X106368079Y-88278603D01*
X106382826Y-88256531D01*
X106397555Y-88227626D01*
X106454652Y-88149037D01*
X106476990Y-88115607D01*
X106484123Y-88108473D01*
X106489772Y-88100699D01*
X106600699Y-87989772D01*
X106608473Y-87984123D01*
X106615607Y-87976990D01*
X106649037Y-87954652D01*
X106727626Y-87897555D01*
X106756531Y-87882826D01*
X106778603Y-87868079D01*
X106815340Y-87852861D01*
X106867404Y-87826334D01*
X106922978Y-87808276D01*
X106959715Y-87793060D01*
X106985748Y-87787881D01*
X107016604Y-87777856D01*
X107112517Y-87762665D01*
X107151983Y-87754815D01*
X107162084Y-87754815D01*
X107171561Y-87753314D01*
X107328439Y-87753314D01*
X107337916Y-87754815D01*
G37*
G36*
X130035770Y-87010907D02*
G01*
X130207827Y-87082175D01*
X130362674Y-87185640D01*
X130494360Y-87317326D01*
X130597825Y-87472173D01*
X130669093Y-87644230D01*
X130705425Y-87826884D01*
X130705425Y-88013116D01*
X130669093Y-88195770D01*
X130597825Y-88367827D01*
X130494360Y-88522674D01*
X130362674Y-88654360D01*
X130207827Y-88757825D01*
X130035770Y-88829093D01*
X129853116Y-88865425D01*
X129666884Y-88865425D01*
X129484230Y-88829093D01*
X129312173Y-88757825D01*
X129157326Y-88654360D01*
X129025640Y-88522674D01*
X128922175Y-88367827D01*
X128850907Y-88195770D01*
X128814575Y-88013116D01*
X128814575Y-87826884D01*
X128850907Y-87644230D01*
X128922175Y-87472173D01*
X129025640Y-87317326D01*
X129157326Y-87185640D01*
X129312173Y-87082175D01*
X129484230Y-87010907D01*
X129666884Y-86974575D01*
X129853116Y-86974575D01*
X130035770Y-87010907D01*
G37*
G36*
X145275770Y-87010907D02*
G01*
X145447827Y-87082175D01*
X145602674Y-87185640D01*
X145734360Y-87317326D01*
X145837825Y-87472173D01*
X145909093Y-87644230D01*
X145945425Y-87826884D01*
X145945425Y-88013116D01*
X145909093Y-88195770D01*
X145837825Y-88367827D01*
X145734360Y-88522674D01*
X145602674Y-88654360D01*
X145447827Y-88757825D01*
X145275770Y-88829093D01*
X145093116Y-88865425D01*
X144906884Y-88865425D01*
X144724230Y-88829093D01*
X144552173Y-88757825D01*
X144397326Y-88654360D01*
X144265640Y-88522674D01*
X144162175Y-88367827D01*
X144090907Y-88195770D01*
X144054575Y-88013116D01*
X144054575Y-87826884D01*
X144090907Y-87644230D01*
X144162175Y-87472173D01*
X144265640Y-87317326D01*
X144397326Y-87185640D01*
X144552173Y-87082175D01*
X144724230Y-87010907D01*
X144906884Y-86974575D01*
X145093116Y-86974575D01*
X145275770Y-87010907D01*
G37*
G36*
X130035770Y-84470907D02*
G01*
X130207827Y-84542175D01*
X130362674Y-84645640D01*
X130494360Y-84777326D01*
X130597825Y-84932173D01*
X130669093Y-85104230D01*
X130705425Y-85286884D01*
X130705425Y-85473116D01*
X130669093Y-85655770D01*
X130597825Y-85827827D01*
X130494360Y-85982674D01*
X130362674Y-86114360D01*
X130207827Y-86217825D01*
X130035770Y-86289093D01*
X129853116Y-86325425D01*
X129666884Y-86325425D01*
X129484230Y-86289093D01*
X129312173Y-86217825D01*
X129157326Y-86114360D01*
X129025640Y-85982674D01*
X128922175Y-85827827D01*
X128850907Y-85655770D01*
X128814575Y-85473116D01*
X128814575Y-85286884D01*
X128850907Y-85104230D01*
X128922175Y-84932173D01*
X129025640Y-84777326D01*
X129157326Y-84645640D01*
X129312173Y-84542175D01*
X129484230Y-84470907D01*
X129666884Y-84434575D01*
X129853116Y-84434575D01*
X130035770Y-84470907D01*
G37*
G36*
X145232228Y-84614448D02*
G01*
X145377117Y-84674463D01*
X145507515Y-84761592D01*
X145618408Y-84872485D01*
X145705537Y-85002883D01*
X145765552Y-85147772D01*
X145796148Y-85301586D01*
X145796148Y-85458414D01*
X145765552Y-85612228D01*
X145705537Y-85757117D01*
X145618408Y-85887515D01*
X145507515Y-85998408D01*
X145377117Y-86085537D01*
X145232228Y-86145552D01*
X145078414Y-86176148D01*
X144921586Y-86176148D01*
X144767772Y-86145552D01*
X144622883Y-86085537D01*
X144492485Y-85998408D01*
X144381592Y-85887515D01*
X144294463Y-85757117D01*
X144234448Y-85612228D01*
X144203852Y-85458414D01*
X144203852Y-85301586D01*
X144234448Y-85147772D01*
X144294463Y-85002883D01*
X144381592Y-84872485D01*
X144492485Y-84761592D01*
X144622883Y-84674463D01*
X144767772Y-84614448D01*
X144921586Y-84583852D01*
X145078414Y-84583852D01*
X145232228Y-84614448D01*
G37*
G36*
X107518462Y-83131775D02*
G01*
X107690086Y-83187539D01*
X107850873Y-83269464D01*
X107996865Y-83375533D01*
X108124467Y-83503135D01*
X108230536Y-83649127D01*
X108312461Y-83809914D01*
X108368225Y-83981538D01*
X108396455Y-84159772D01*
X108396455Y-84340228D01*
X108368225Y-84518462D01*
X108312461Y-84690086D01*
X108230536Y-84850873D01*
X108124467Y-84996865D01*
X107996865Y-85124467D01*
X107850873Y-85230536D01*
X107690086Y-85312461D01*
X107518462Y-85368225D01*
X107340228Y-85396455D01*
X107159772Y-85396455D01*
X106981538Y-85368225D01*
X106809914Y-85312461D01*
X106649127Y-85230536D01*
X106503135Y-85124467D01*
X106375533Y-84996865D01*
X106269464Y-84850873D01*
X106187539Y-84690086D01*
X106131775Y-84518462D01*
X106103545Y-84340228D01*
X106103545Y-84159772D01*
X106131775Y-83981538D01*
X106187539Y-83809914D01*
X106269464Y-83649127D01*
X106375533Y-83503135D01*
X106503135Y-83375533D01*
X106649127Y-83269464D01*
X106809914Y-83187539D01*
X106981538Y-83131775D01*
X107159772Y-83103545D01*
X107340228Y-83103545D01*
X107518462Y-83131775D01*
G37*
G36*
X100837916Y-83254815D02*
G01*
X100848017Y-83254815D01*
X100887483Y-83262665D01*
X100983395Y-83277856D01*
X101014248Y-83287881D01*
X101040285Y-83293060D01*
X101077025Y-83308278D01*
X101132595Y-83326334D01*
X101184653Y-83352859D01*
X101221397Y-83368079D01*
X101243471Y-83382829D01*
X101272373Y-83397555D01*
X101350949Y-83454643D01*
X101384393Y-83476990D01*
X101391529Y-83484126D01*
X101399300Y-83489772D01*
X101510227Y-83600699D01*
X101515872Y-83608469D01*
X101523010Y-83615607D01*
X101545359Y-83649054D01*
X101602444Y-83727626D01*
X101617168Y-83756525D01*
X101631921Y-83778603D01*
X101647142Y-83815351D01*
X101673665Y-83867404D01*
X101691718Y-83922967D01*
X101706940Y-83959715D01*
X101712120Y-83985756D01*
X101722143Y-84016604D01*
X101737332Y-84112508D01*
X101745185Y-84151983D01*
X101745185Y-84162084D01*
X101746686Y-84171561D01*
X101746686Y-84328438D01*
X101745185Y-84337914D01*
X101745185Y-84348017D01*
X101737332Y-84387495D01*
X101722143Y-84483395D01*
X101712120Y-84514240D01*
X101706940Y-84540285D01*
X101691717Y-84577036D01*
X101673665Y-84632595D01*
X101647144Y-84684643D01*
X101631921Y-84721397D01*
X101617166Y-84743478D01*
X101602444Y-84772373D01*
X101545367Y-84850932D01*
X101523010Y-84884393D01*
X101515870Y-84891532D01*
X101510227Y-84899300D01*
X101399300Y-85010227D01*
X101391532Y-85015870D01*
X101384393Y-85023010D01*
X101350932Y-85045367D01*
X101272373Y-85102444D01*
X101243478Y-85117166D01*
X101221397Y-85131921D01*
X101184643Y-85147144D01*
X101132595Y-85173665D01*
X101077036Y-85191717D01*
X101040285Y-85206940D01*
X101014240Y-85212120D01*
X100983395Y-85222143D01*
X100887493Y-85237332D01*
X100848017Y-85245185D01*
X100837916Y-85245185D01*
X100828439Y-85246686D01*
X100671561Y-85246686D01*
X100662084Y-85245185D01*
X100651983Y-85245185D01*
X100612508Y-85237332D01*
X100516604Y-85222143D01*
X100485756Y-85212120D01*
X100459715Y-85206940D01*
X100422967Y-85191718D01*
X100367404Y-85173665D01*
X100315351Y-85147142D01*
X100278603Y-85131921D01*
X100256525Y-85117168D01*
X100227626Y-85102444D01*
X100149054Y-85045359D01*
X100115607Y-85023010D01*
X100108469Y-85015872D01*
X100100699Y-85010227D01*
X99989772Y-84899300D01*
X99984126Y-84891529D01*
X99976990Y-84884393D01*
X99954643Y-84850949D01*
X99897555Y-84772373D01*
X99882829Y-84743471D01*
X99868079Y-84721397D01*
X99852859Y-84684653D01*
X99826334Y-84632595D01*
X99808278Y-84577025D01*
X99793060Y-84540285D01*
X99787881Y-84514248D01*
X99777856Y-84483395D01*
X99762666Y-84387486D01*
X99754815Y-84348017D01*
X99754815Y-84337915D01*
X99753314Y-84328438D01*
X99753314Y-84171561D01*
X99754815Y-84162083D01*
X99754815Y-84151983D01*
X99762665Y-84112517D01*
X99777856Y-84016604D01*
X99787881Y-83985748D01*
X99793060Y-83959715D01*
X99808276Y-83922978D01*
X99826334Y-83867404D01*
X99852861Y-83815340D01*
X99868079Y-83778603D01*
X99882826Y-83756531D01*
X99897555Y-83727626D01*
X99954652Y-83649037D01*
X99976990Y-83615607D01*
X99984123Y-83608473D01*
X99989772Y-83600699D01*
X100100699Y-83489772D01*
X100108473Y-83484123D01*
X100115607Y-83476990D01*
X100149037Y-83454652D01*
X100227626Y-83397555D01*
X100256531Y-83382826D01*
X100278603Y-83368079D01*
X100315340Y-83352861D01*
X100367404Y-83326334D01*
X100422978Y-83308276D01*
X100459715Y-83293060D01*
X100485748Y-83287881D01*
X100516604Y-83277856D01*
X100612517Y-83262665D01*
X100651983Y-83254815D01*
X100662084Y-83254815D01*
X100671561Y-83253314D01*
X100828439Y-83253314D01*
X100837916Y-83254815D01*
G37*
G36*
X130035770Y-81930907D02*
G01*
X130207827Y-82002175D01*
X130362674Y-82105640D01*
X130494360Y-82237326D01*
X130597825Y-82392173D01*
X130669093Y-82564230D01*
X130705425Y-82746884D01*
X130705425Y-82933116D01*
X130669093Y-83115770D01*
X130597825Y-83287827D01*
X130494360Y-83442674D01*
X130362674Y-83574360D01*
X130207827Y-83677825D01*
X130035770Y-83749093D01*
X129853116Y-83785425D01*
X129666884Y-83785425D01*
X129484230Y-83749093D01*
X129312173Y-83677825D01*
X129157326Y-83574360D01*
X129025640Y-83442674D01*
X128922175Y-83287827D01*
X128850907Y-83115770D01*
X128814575Y-82933116D01*
X128814575Y-82746884D01*
X128850907Y-82564230D01*
X128922175Y-82392173D01*
X129025640Y-82237326D01*
X129157326Y-82105640D01*
X129312173Y-82002175D01*
X129484230Y-81930907D01*
X129666884Y-81894575D01*
X129853116Y-81894575D01*
X130035770Y-81930907D01*
G37*
G36*
X145232228Y-82074448D02*
G01*
X145377117Y-82134463D01*
X145507515Y-82221592D01*
X145618408Y-82332485D01*
X145705537Y-82462883D01*
X145765552Y-82607772D01*
X145796148Y-82761586D01*
X145796148Y-82918414D01*
X145765552Y-83072228D01*
X145705537Y-83217117D01*
X145618408Y-83347515D01*
X145507515Y-83458408D01*
X145377117Y-83545537D01*
X145232228Y-83605552D01*
X145078414Y-83636148D01*
X144921586Y-83636148D01*
X144767772Y-83605552D01*
X144622883Y-83545537D01*
X144492485Y-83458408D01*
X144381592Y-83347515D01*
X144294463Y-83217117D01*
X144234448Y-83072228D01*
X144203852Y-82918414D01*
X144203852Y-82761586D01*
X144234448Y-82607772D01*
X144294463Y-82462883D01*
X144381592Y-82332485D01*
X144492485Y-82221592D01*
X144622883Y-82134463D01*
X144767772Y-82074448D01*
X144921586Y-82043852D01*
X145078414Y-82043852D01*
X145232228Y-82074448D01*
G37*
G36*
X155436742Y-80186601D02*
G01*
X155590687Y-80250367D01*
X155729234Y-80342941D01*
X155847059Y-80460766D01*
X155939633Y-80599313D01*
X156003399Y-80753258D01*
X156035907Y-80916685D01*
X156035907Y-81083315D01*
X156003399Y-81246742D01*
X155939633Y-81400687D01*
X155847059Y-81539234D01*
X155729234Y-81657059D01*
X155590687Y-81749633D01*
X155436742Y-81813399D01*
X155273315Y-81845907D01*
X155106685Y-81845907D01*
X154943258Y-81813399D01*
X154789313Y-81749633D01*
X154650766Y-81657059D01*
X154532941Y-81539234D01*
X154440367Y-81400687D01*
X154376601Y-81246742D01*
X154344093Y-81083315D01*
X154344093Y-80916685D01*
X154376601Y-80753258D01*
X154440367Y-80599313D01*
X154532941Y-80460766D01*
X154650766Y-80342941D01*
X154789313Y-80250367D01*
X154943258Y-80186601D01*
X155106685Y-80154093D01*
X155273315Y-80154093D01*
X155436742Y-80186601D01*
G37*
G36*
X163056742Y-80186601D02*
G01*
X163210687Y-80250367D01*
X163349234Y-80342941D01*
X163467059Y-80460766D01*
X163559633Y-80599313D01*
X163623399Y-80753258D01*
X163655907Y-80916685D01*
X163655907Y-81083315D01*
X163623399Y-81246742D01*
X163559633Y-81400687D01*
X163467059Y-81539234D01*
X163349234Y-81657059D01*
X163210687Y-81749633D01*
X163056742Y-81813399D01*
X162893315Y-81845907D01*
X162726685Y-81845907D01*
X162563258Y-81813399D01*
X162409313Y-81749633D01*
X162270766Y-81657059D01*
X162152941Y-81539234D01*
X162060367Y-81400687D01*
X161996601Y-81246742D01*
X161964093Y-81083315D01*
X161964093Y-80916685D01*
X161996601Y-80753258D01*
X162060367Y-80599313D01*
X162152941Y-80460766D01*
X162270766Y-80342941D01*
X162409313Y-80250367D01*
X162563258Y-80186601D01*
X162726685Y-80154093D01*
X162893315Y-80154093D01*
X163056742Y-80186601D01*
G37*
G36*
X130035770Y-79390907D02*
G01*
X130207827Y-79462175D01*
X130362674Y-79565640D01*
X130494360Y-79697326D01*
X130597825Y-79852173D01*
X130669093Y-80024230D01*
X130705425Y-80206884D01*
X130705425Y-80393116D01*
X130669093Y-80575770D01*
X130597825Y-80747827D01*
X130494360Y-80902674D01*
X130362674Y-81034360D01*
X130207827Y-81137825D01*
X130035770Y-81209093D01*
X129853116Y-81245425D01*
X129666884Y-81245425D01*
X129484230Y-81209093D01*
X129312173Y-81137825D01*
X129157326Y-81034360D01*
X129025640Y-80902674D01*
X128922175Y-80747827D01*
X128850907Y-80575770D01*
X128814575Y-80393116D01*
X128814575Y-80206884D01*
X128850907Y-80024230D01*
X128922175Y-79852173D01*
X129025640Y-79697326D01*
X129157326Y-79565640D01*
X129312173Y-79462175D01*
X129484230Y-79390907D01*
X129666884Y-79354575D01*
X129853116Y-79354575D01*
X130035770Y-79390907D01*
G37*
G36*
X145232228Y-79534448D02*
G01*
X145377117Y-79594463D01*
X145507515Y-79681592D01*
X145618408Y-79792485D01*
X145705537Y-79922883D01*
X145765552Y-80067772D01*
X145796148Y-80221586D01*
X145796148Y-80378414D01*
X145765552Y-80532228D01*
X145705537Y-80677117D01*
X145618408Y-80807515D01*
X145507515Y-80918408D01*
X145377117Y-81005537D01*
X145232228Y-81065552D01*
X145078414Y-81096148D01*
X144921586Y-81096148D01*
X144767772Y-81065552D01*
X144622883Y-81005537D01*
X144492485Y-80918408D01*
X144381592Y-80807515D01*
X144294463Y-80677117D01*
X144234448Y-80532228D01*
X144203852Y-80378414D01*
X144203852Y-80221586D01*
X144234448Y-80067772D01*
X144294463Y-79922883D01*
X144381592Y-79792485D01*
X144492485Y-79681592D01*
X144622883Y-79594463D01*
X144767772Y-79534448D01*
X144921586Y-79503852D01*
X145078414Y-79503852D01*
X145232228Y-79534448D01*
G37*
G36*
X130318491Y-76811344D02*
G01*
X130393585Y-76819418D01*
X130411387Y-76826057D01*
X130433607Y-76829577D01*
X130468522Y-76847367D01*
X130501328Y-76859603D01*
X130520066Y-76873630D01*
X130545114Y-76886393D01*
X130568932Y-76910211D01*
X130592297Y-76927702D01*
X130609787Y-76951066D01*
X130633607Y-76974886D01*
X130646369Y-76999934D01*
X130660396Y-77018671D01*
X130672629Y-77051472D01*
X130690423Y-77086393D01*
X130693942Y-77108615D01*
X130700581Y-77126414D01*
X130708652Y-77201493D01*
X130710000Y-77210000D01*
X130710000Y-78310000D01*
X130708652Y-78318510D01*
X130700581Y-78393585D01*
X130693942Y-78411383D01*
X130690423Y-78433607D01*
X130672628Y-78468530D01*
X130660396Y-78501328D01*
X130646371Y-78520062D01*
X130633607Y-78545114D01*
X130609784Y-78568936D01*
X130592297Y-78592297D01*
X130568936Y-78609784D01*
X130545114Y-78633607D01*
X130520062Y-78646371D01*
X130501328Y-78660396D01*
X130468530Y-78672628D01*
X130433607Y-78690423D01*
X130411383Y-78693942D01*
X130393585Y-78700581D01*
X130318508Y-78708652D01*
X130310000Y-78710000D01*
X129210000Y-78710000D01*
X129201491Y-78708652D01*
X129126414Y-78700581D01*
X129108615Y-78693942D01*
X129086393Y-78690423D01*
X129051472Y-78672629D01*
X129018671Y-78660396D01*
X128999934Y-78646369D01*
X128974886Y-78633607D01*
X128951066Y-78609787D01*
X128927702Y-78592297D01*
X128910211Y-78568932D01*
X128886393Y-78545114D01*
X128873630Y-78520066D01*
X128859603Y-78501328D01*
X128847367Y-78468522D01*
X128829577Y-78433607D01*
X128826057Y-78411387D01*
X128819418Y-78393585D01*
X128811344Y-78318489D01*
X128810000Y-78310000D01*
X128810000Y-77210000D01*
X128811344Y-77201511D01*
X128819418Y-77126414D01*
X128826058Y-77108610D01*
X128829577Y-77086393D01*
X128847366Y-77051479D01*
X128859603Y-77018671D01*
X128873632Y-76999930D01*
X128886393Y-76974886D01*
X128910208Y-76951070D01*
X128927702Y-76927702D01*
X128951070Y-76910208D01*
X128974886Y-76886393D01*
X128999930Y-76873632D01*
X129018671Y-76859603D01*
X129051479Y-76847366D01*
X129086393Y-76829577D01*
X129108610Y-76826058D01*
X129126414Y-76819418D01*
X129201512Y-76811344D01*
X129210000Y-76810000D01*
X130310000Y-76810000D01*
X130318491Y-76811344D01*
G37*
G36*
X145275770Y-76850907D02*
G01*
X145447827Y-76922175D01*
X145602674Y-77025640D01*
X145734360Y-77157326D01*
X145837825Y-77312173D01*
X145909093Y-77484230D01*
X145945425Y-77666884D01*
X145945425Y-77853116D01*
X145909093Y-78035770D01*
X145837825Y-78207827D01*
X145734360Y-78362674D01*
X145602674Y-78494360D01*
X145447827Y-78597825D01*
X145275770Y-78669093D01*
X145093116Y-78705425D01*
X144906884Y-78705425D01*
X144724230Y-78669093D01*
X144552173Y-78597825D01*
X144397326Y-78494360D01*
X144265640Y-78362674D01*
X144162175Y-78207827D01*
X144090907Y-78035770D01*
X144054575Y-77853116D01*
X144054575Y-77666884D01*
X144090907Y-77484230D01*
X144162175Y-77312173D01*
X144265640Y-77157326D01*
X144397326Y-77025640D01*
X144552173Y-76922175D01*
X144724230Y-76850907D01*
X144906884Y-76814575D01*
X145093116Y-76814575D01*
X145275770Y-76850907D01*
G37*
G36*
X101186742Y-74936601D02*
G01*
X101340687Y-75000367D01*
X101479234Y-75092941D01*
X101597059Y-75210766D01*
X101689633Y-75349313D01*
X101753399Y-75503258D01*
X101785907Y-75666685D01*
X101785907Y-75833315D01*
X101753399Y-75996742D01*
X101689633Y-76150687D01*
X101597059Y-76289234D01*
X101479234Y-76407059D01*
X101340687Y-76499633D01*
X101186742Y-76563399D01*
X101023315Y-76595907D01*
X100856685Y-76595907D01*
X100693258Y-76563399D01*
X100539313Y-76499633D01*
X100400766Y-76407059D01*
X100282941Y-76289234D01*
X100190367Y-76150687D01*
X100126601Y-75996742D01*
X100094093Y-75833315D01*
X100094093Y-75666685D01*
X100126601Y-75503258D01*
X100190367Y-75349313D01*
X100282941Y-75210766D01*
X100400766Y-75092941D01*
X100539313Y-75000367D01*
X100693258Y-74936601D01*
X100856685Y-74904093D01*
X101023315Y-74904093D01*
X101186742Y-74936601D01*
G37*
G36*
X108763199Y-75080142D02*
G01*
X108889978Y-75132655D01*
X109004075Y-75208893D01*
X109101107Y-75305925D01*
X109177345Y-75420022D01*
X109229858Y-75546801D01*
X109256629Y-75681388D01*
X109256629Y-75818612D01*
X109229858Y-75953199D01*
X109177345Y-76079978D01*
X109101107Y-76194075D01*
X109004075Y-76291107D01*
X108889978Y-76367345D01*
X108763199Y-76419858D01*
X108628612Y-76446629D01*
X108491388Y-76446629D01*
X108356801Y-76419858D01*
X108230022Y-76367345D01*
X108115925Y-76291107D01*
X108018893Y-76194075D01*
X107942655Y-76079978D01*
X107890142Y-75953199D01*
X107863371Y-75818612D01*
X107863371Y-75681388D01*
X107890142Y-75546801D01*
X107942655Y-75420022D01*
X108018893Y-75305925D01*
X108115925Y-75208893D01*
X108230022Y-75132655D01*
X108356801Y-75080142D01*
X108491388Y-75053371D01*
X108628612Y-75053371D01*
X108763199Y-75080142D01*
G37*
G36*
X200906742Y-74116601D02*
G01*
X201060687Y-74180367D01*
X201199234Y-74272941D01*
X201317059Y-74390766D01*
X201409633Y-74529313D01*
X201473399Y-74683258D01*
X201505907Y-74846685D01*
X201505907Y-75013315D01*
X201473399Y-75176742D01*
X201409633Y-75330687D01*
X201317059Y-75469234D01*
X201199234Y-75587059D01*
X201060687Y-75679633D01*
X200906742Y-75743399D01*
X200743315Y-75775907D01*
X200576685Y-75775907D01*
X200413258Y-75743399D01*
X200259313Y-75679633D01*
X200120766Y-75587059D01*
X200002941Y-75469234D01*
X199910367Y-75330687D01*
X199846601Y-75176742D01*
X199814093Y-75013315D01*
X199814093Y-74846685D01*
X199846601Y-74683258D01*
X199910367Y-74529313D01*
X200002941Y-74390766D01*
X200120766Y-74272941D01*
X200259313Y-74180367D01*
X200413258Y-74116601D01*
X200576685Y-74084093D01*
X200743315Y-74084093D01*
X200906742Y-74116601D01*
G37*
G36*
X201567403Y-71401418D02*
G01*
X201616066Y-71433934D01*
X201648582Y-71482597D01*
X201660000Y-71540000D01*
X201660000Y-73240000D01*
X201648582Y-73297403D01*
X201616066Y-73346066D01*
X201567403Y-73378582D01*
X201510000Y-73390000D01*
X199810000Y-73390000D01*
X199752597Y-73378582D01*
X199703934Y-73346066D01*
X199671418Y-73297403D01*
X199660000Y-73240000D01*
X199660000Y-71540000D01*
X199671418Y-71482597D01*
X199703934Y-71433934D01*
X199752597Y-71401418D01*
X199810000Y-71390000D01*
X201510000Y-71390000D01*
X201567403Y-71401418D01*
G37*
G36*
X123436742Y-71186601D02*
G01*
X123590687Y-71250367D01*
X123729234Y-71342941D01*
X123847059Y-71460766D01*
X123939633Y-71599313D01*
X124003399Y-71753258D01*
X124035907Y-71916685D01*
X124035907Y-72083315D01*
X124003399Y-72246742D01*
X123939633Y-72400687D01*
X123847059Y-72539234D01*
X123729234Y-72657059D01*
X123590687Y-72749633D01*
X123436742Y-72813399D01*
X123273315Y-72845907D01*
X123106685Y-72845907D01*
X122943258Y-72813399D01*
X122789313Y-72749633D01*
X122650766Y-72657059D01*
X122532941Y-72539234D01*
X122440367Y-72400687D01*
X122376601Y-72246742D01*
X122344093Y-72083315D01*
X122344093Y-71916685D01*
X122376601Y-71753258D01*
X122440367Y-71599313D01*
X122532941Y-71460766D01*
X122650766Y-71342941D01*
X122789313Y-71250367D01*
X122943258Y-71186601D01*
X123106685Y-71154093D01*
X123273315Y-71154093D01*
X123436742Y-71186601D01*
G37*
G36*
X131056742Y-71186601D02*
G01*
X131210687Y-71250367D01*
X131349234Y-71342941D01*
X131467059Y-71460766D01*
X131559633Y-71599313D01*
X131623399Y-71753258D01*
X131655907Y-71916685D01*
X131655907Y-72083315D01*
X131623399Y-72246742D01*
X131559633Y-72400687D01*
X131467059Y-72539234D01*
X131349234Y-72657059D01*
X131210687Y-72749633D01*
X131056742Y-72813399D01*
X130893315Y-72845907D01*
X130726685Y-72845907D01*
X130563258Y-72813399D01*
X130409313Y-72749633D01*
X130270766Y-72657059D01*
X130152941Y-72539234D01*
X130060367Y-72400687D01*
X129996601Y-72246742D01*
X129964093Y-72083315D01*
X129964093Y-71916685D01*
X129996601Y-71753258D01*
X130060367Y-71599313D01*
X130152941Y-71460766D01*
X130270766Y-71342941D01*
X130409313Y-71250367D01*
X130563258Y-71186601D01*
X130726685Y-71154093D01*
X130893315Y-71154093D01*
X131056742Y-71186601D01*
G37*
G36*
X146556742Y-71186601D02*
G01*
X146710687Y-71250367D01*
X146849234Y-71342941D01*
X146967059Y-71460766D01*
X147059633Y-71599313D01*
X147123399Y-71753258D01*
X147155907Y-71916685D01*
X147155907Y-72083315D01*
X147123399Y-72246742D01*
X147059633Y-72400687D01*
X146967059Y-72539234D01*
X146849234Y-72657059D01*
X146710687Y-72749633D01*
X146556742Y-72813399D01*
X146393315Y-72845907D01*
X146226685Y-72845907D01*
X146063258Y-72813399D01*
X145909313Y-72749633D01*
X145770766Y-72657059D01*
X145652941Y-72539234D01*
X145560367Y-72400687D01*
X145496601Y-72246742D01*
X145464093Y-72083315D01*
X145464093Y-71916685D01*
X145496601Y-71753258D01*
X145560367Y-71599313D01*
X145652941Y-71460766D01*
X145770766Y-71342941D01*
X145909313Y-71250367D01*
X146063258Y-71186601D01*
X146226685Y-71154093D01*
X146393315Y-71154093D01*
X146556742Y-71186601D01*
G37*
G36*
X152936742Y-71186601D02*
G01*
X153090687Y-71250367D01*
X153229234Y-71342941D01*
X153347059Y-71460766D01*
X153439633Y-71599313D01*
X153503399Y-71753258D01*
X153535907Y-71916685D01*
X153535907Y-72083315D01*
X153503399Y-72246742D01*
X153439633Y-72400687D01*
X153347059Y-72539234D01*
X153229234Y-72657059D01*
X153090687Y-72749633D01*
X152936742Y-72813399D01*
X152773315Y-72845907D01*
X152606685Y-72845907D01*
X152443258Y-72813399D01*
X152289313Y-72749633D01*
X152150766Y-72657059D01*
X152032941Y-72539234D01*
X151940367Y-72400687D01*
X151876601Y-72246742D01*
X151844093Y-72083315D01*
X151844093Y-71916685D01*
X151876601Y-71753258D01*
X151940367Y-71599313D01*
X152032941Y-71460766D01*
X152150766Y-71342941D01*
X152289313Y-71250367D01*
X152443258Y-71186601D01*
X152606685Y-71154093D01*
X152773315Y-71154093D01*
X152936742Y-71186601D01*
G37*
G36*
X160556742Y-71186601D02*
G01*
X160710687Y-71250367D01*
X160849234Y-71342941D01*
X160967059Y-71460766D01*
X161059633Y-71599313D01*
X161123399Y-71753258D01*
X161155907Y-71916685D01*
X161155907Y-72083315D01*
X161123399Y-72246742D01*
X161059633Y-72400687D01*
X160967059Y-72539234D01*
X160849234Y-72657059D01*
X160710687Y-72749633D01*
X160556742Y-72813399D01*
X160393315Y-72845907D01*
X160226685Y-72845907D01*
X160063258Y-72813399D01*
X159909313Y-72749633D01*
X159770766Y-72657059D01*
X159652941Y-72539234D01*
X159560367Y-72400687D01*
X159496601Y-72246742D01*
X159464093Y-72083315D01*
X159464093Y-71916685D01*
X159496601Y-71753258D01*
X159560367Y-71599313D01*
X159652941Y-71460766D01*
X159770766Y-71342941D01*
X159909313Y-71250367D01*
X160063258Y-71186601D01*
X160226685Y-71154093D01*
X160393315Y-71154093D01*
X160556742Y-71186601D01*
G37*
G36*
X138893199Y-71330142D02*
G01*
X139019978Y-71382655D01*
X139134075Y-71458893D01*
X139231107Y-71555925D01*
X139307345Y-71670022D01*
X139359858Y-71796801D01*
X139386629Y-71931388D01*
X139386629Y-72068612D01*
X139359858Y-72203199D01*
X139307345Y-72329978D01*
X139231107Y-72444075D01*
X139134075Y-72541107D01*
X139019978Y-72617345D01*
X138893199Y-72669858D01*
X138758612Y-72696629D01*
X138621388Y-72696629D01*
X138486801Y-72669858D01*
X138360022Y-72617345D01*
X138245925Y-72541107D01*
X138148893Y-72444075D01*
X138072655Y-72329978D01*
X138020142Y-72203199D01*
X137993371Y-72068612D01*
X137993371Y-71931388D01*
X138020142Y-71796801D01*
X138072655Y-71670022D01*
X138148893Y-71555925D01*
X138245925Y-71458893D01*
X138360022Y-71382655D01*
X138486801Y-71330142D01*
X138621388Y-71303371D01*
X138758612Y-71303371D01*
X138893199Y-71330142D01*
G37*
G36*
X101268462Y-66381775D02*
G01*
X101440086Y-66437539D01*
X101600873Y-66519464D01*
X101746865Y-66625533D01*
X101874467Y-66753135D01*
X101980536Y-66899127D01*
X102062461Y-67059914D01*
X102118225Y-67231538D01*
X102146455Y-67409772D01*
X102146455Y-67590228D01*
X102118225Y-67768462D01*
X102062461Y-67940086D01*
X101980536Y-68100873D01*
X101874467Y-68246865D01*
X101746865Y-68374467D01*
X101600873Y-68480536D01*
X101440086Y-68562461D01*
X101268462Y-68618225D01*
X101090228Y-68646455D01*
X100909772Y-68646455D01*
X100731538Y-68618225D01*
X100559914Y-68562461D01*
X100399127Y-68480536D01*
X100253135Y-68374467D01*
X100125533Y-68246865D01*
X100019464Y-68100873D01*
X99937539Y-67940086D01*
X99881775Y-67768462D01*
X99853545Y-67590228D01*
X99853545Y-67409772D01*
X99881775Y-67231538D01*
X99937539Y-67059914D01*
X100019464Y-66899127D01*
X100125533Y-66753135D01*
X100253135Y-66625533D01*
X100399127Y-66519464D01*
X100559914Y-66437539D01*
X100731538Y-66381775D01*
X100909772Y-66353545D01*
X101090228Y-66353545D01*
X101268462Y-66381775D01*
G37*
G36*
X107768462Y-66381775D02*
G01*
X107940086Y-66437539D01*
X108100873Y-66519464D01*
X108246865Y-66625533D01*
X108374467Y-66753135D01*
X108480536Y-66899127D01*
X108562461Y-67059914D01*
X108618225Y-67231538D01*
X108646455Y-67409772D01*
X108646455Y-67590228D01*
X108618225Y-67768462D01*
X108562461Y-67940086D01*
X108480536Y-68100873D01*
X108374467Y-68246865D01*
X108246865Y-68374467D01*
X108100873Y-68480536D01*
X107940086Y-68562461D01*
X107768462Y-68618225D01*
X107590228Y-68646455D01*
X107409772Y-68646455D01*
X107231538Y-68618225D01*
X107059914Y-68562461D01*
X106899127Y-68480536D01*
X106753135Y-68374467D01*
X106625533Y-68246865D01*
X106519464Y-68100873D01*
X106437539Y-67940086D01*
X106381775Y-67768462D01*
X106353545Y-67590228D01*
X106353545Y-67409772D01*
X106381775Y-67231538D01*
X106437539Y-67059914D01*
X106519464Y-66899127D01*
X106625533Y-66753135D01*
X106753135Y-66625533D01*
X106899127Y-66519464D01*
X107059914Y-66437539D01*
X107231538Y-66381775D01*
X107409772Y-66353545D01*
X107590228Y-66353545D01*
X107768462Y-66381775D01*
G37*
G36*
X127900000Y-66675000D02*
G01*
X126100000Y-66675000D01*
X126100000Y-64875000D01*
X127900000Y-64875000D01*
X127900000Y-66675000D01*
G37*
G36*
X143400000Y-66440000D02*
G01*
X141600000Y-66440000D01*
X141600000Y-64640000D01*
X143400000Y-64640000D01*
X143400000Y-66440000D01*
G37*
G36*
X157400000Y-66175000D02*
G01*
X155600000Y-66175000D01*
X155600000Y-64375000D01*
X157400000Y-64375000D01*
X157400000Y-66175000D01*
G37*
G36*
X127092388Y-62190056D02*
G01*
X127102918Y-62190056D01*
X127144067Y-62198241D01*
X127245067Y-62214238D01*
X127277554Y-62224793D01*
X127304799Y-62230213D01*
X127343242Y-62246136D01*
X127401729Y-62265140D01*
X127456521Y-62293058D01*
X127494967Y-62308983D01*
X127518064Y-62324416D01*
X127548498Y-62339923D01*
X127631226Y-62400028D01*
X127666113Y-62423339D01*
X127673558Y-62430784D01*
X127681772Y-62436752D01*
X127798247Y-62553227D01*
X127804214Y-62561440D01*
X127811661Y-62568887D01*
X127834974Y-62603778D01*
X127895076Y-62686501D01*
X127910581Y-62716932D01*
X127926017Y-62740033D01*
X127941943Y-62778483D01*
X127969859Y-62833270D01*
X127988860Y-62891749D01*
X128004787Y-62930201D01*
X128010207Y-62957451D01*
X128020761Y-62989932D01*
X128036757Y-63090924D01*
X128044944Y-63132082D01*
X128044944Y-63142612D01*
X128046532Y-63152638D01*
X128046532Y-63317361D01*
X128044944Y-63327386D01*
X128044944Y-63337918D01*
X128036756Y-63379079D01*
X128020761Y-63480067D01*
X128010207Y-63512546D01*
X128004787Y-63539799D01*
X127988858Y-63578253D01*
X127969859Y-63636729D01*
X127941945Y-63691511D01*
X127926017Y-63729967D01*
X127910579Y-63753070D01*
X127895076Y-63783498D01*
X127834983Y-63866208D01*
X127811661Y-63901113D01*
X127804211Y-63908562D01*
X127798247Y-63916772D01*
X127681772Y-64033247D01*
X127673562Y-64039211D01*
X127666113Y-64046661D01*
X127631208Y-64069983D01*
X127548498Y-64130076D01*
X127518070Y-64145579D01*
X127494967Y-64161017D01*
X127456511Y-64176945D01*
X127401729Y-64204859D01*
X127343253Y-64223858D01*
X127304799Y-64239787D01*
X127277546Y-64245207D01*
X127245067Y-64255761D01*
X127144076Y-64271756D01*
X127102918Y-64279944D01*
X127092388Y-64279944D01*
X127082362Y-64281532D01*
X126917638Y-64281532D01*
X126907612Y-64279944D01*
X126897082Y-64279944D01*
X126855924Y-64271757D01*
X126754932Y-64255761D01*
X126722451Y-64245207D01*
X126695201Y-64239787D01*
X126656749Y-64223860D01*
X126598270Y-64204859D01*
X126543483Y-64176943D01*
X126505033Y-64161017D01*
X126481932Y-64145581D01*
X126451501Y-64130076D01*
X126368778Y-64069974D01*
X126333887Y-64046661D01*
X126326440Y-64039214D01*
X126318227Y-64033247D01*
X126201752Y-63916772D01*
X126195784Y-63908558D01*
X126188339Y-63901113D01*
X126165028Y-63866226D01*
X126104923Y-63783498D01*
X126089416Y-63753064D01*
X126073983Y-63729967D01*
X126058058Y-63691521D01*
X126030140Y-63636729D01*
X126011136Y-63578242D01*
X125995213Y-63539799D01*
X125989793Y-63512554D01*
X125979238Y-63480067D01*
X125963241Y-63379069D01*
X125955056Y-63337918D01*
X125955056Y-63327387D01*
X125953468Y-63317361D01*
X125953468Y-63152638D01*
X125955056Y-63142611D01*
X125955056Y-63132082D01*
X125963240Y-63090934D01*
X125979238Y-62989932D01*
X125989794Y-62957443D01*
X125995213Y-62930201D01*
X126011135Y-62891761D01*
X126030140Y-62833270D01*
X126058060Y-62778472D01*
X126073983Y-62740033D01*
X126089414Y-62716938D01*
X126104923Y-62686501D01*
X126165036Y-62603761D01*
X126188339Y-62568887D01*
X126195782Y-62561443D01*
X126201752Y-62553227D01*
X126318227Y-62436752D01*
X126326443Y-62430782D01*
X126333887Y-62423339D01*
X126368761Y-62400036D01*
X126451501Y-62339923D01*
X126481938Y-62324414D01*
X126505033Y-62308983D01*
X126543472Y-62293060D01*
X126598270Y-62265140D01*
X126656761Y-62246135D01*
X126695201Y-62230213D01*
X126722443Y-62224794D01*
X126754932Y-62214238D01*
X126855934Y-62198240D01*
X126897082Y-62190056D01*
X126907612Y-62190056D01*
X126917638Y-62188468D01*
X127082362Y-62188468D01*
X127092388Y-62190056D01*
G37*
G36*
X101268462Y-61881775D02*
G01*
X101440086Y-61937539D01*
X101600873Y-62019464D01*
X101746865Y-62125533D01*
X101874467Y-62253135D01*
X101980536Y-62399127D01*
X102062461Y-62559914D01*
X102118225Y-62731538D01*
X102146455Y-62909772D01*
X102146455Y-63090228D01*
X102118225Y-63268462D01*
X102062461Y-63440086D01*
X101980536Y-63600873D01*
X101874467Y-63746865D01*
X101746865Y-63874467D01*
X101600873Y-63980536D01*
X101440086Y-64062461D01*
X101268462Y-64118225D01*
X101090228Y-64146455D01*
X100909772Y-64146455D01*
X100731538Y-64118225D01*
X100559914Y-64062461D01*
X100399127Y-63980536D01*
X100253135Y-63874467D01*
X100125533Y-63746865D01*
X100019464Y-63600873D01*
X99937539Y-63440086D01*
X99881775Y-63268462D01*
X99853545Y-63090228D01*
X99853545Y-62909772D01*
X99881775Y-62731538D01*
X99937539Y-62559914D01*
X100019464Y-62399127D01*
X100125533Y-62253135D01*
X100253135Y-62125533D01*
X100399127Y-62019464D01*
X100559914Y-61937539D01*
X100731538Y-61881775D01*
X100909772Y-61853545D01*
X101090228Y-61853545D01*
X101268462Y-61881775D01*
G37*
G36*
X107768462Y-61881775D02*
G01*
X107940086Y-61937539D01*
X108100873Y-62019464D01*
X108246865Y-62125533D01*
X108374467Y-62253135D01*
X108480536Y-62399127D01*
X108562461Y-62559914D01*
X108618225Y-62731538D01*
X108646455Y-62909772D01*
X108646455Y-63090228D01*
X108618225Y-63268462D01*
X108562461Y-63440086D01*
X108480536Y-63600873D01*
X108374467Y-63746865D01*
X108246865Y-63874467D01*
X108100873Y-63980536D01*
X107940086Y-64062461D01*
X107768462Y-64118225D01*
X107590228Y-64146455D01*
X107409772Y-64146455D01*
X107231538Y-64118225D01*
X107059914Y-64062461D01*
X106899127Y-63980536D01*
X106753135Y-63874467D01*
X106625533Y-63746865D01*
X106519464Y-63600873D01*
X106437539Y-63440086D01*
X106381775Y-63268462D01*
X106353545Y-63090228D01*
X106353545Y-62909772D01*
X106381775Y-62731538D01*
X106437539Y-62559914D01*
X106519464Y-62399127D01*
X106625533Y-62253135D01*
X106753135Y-62125533D01*
X106899127Y-62019464D01*
X107059914Y-61937539D01*
X107231538Y-61881775D01*
X107409772Y-61853545D01*
X107590228Y-61853545D01*
X107768462Y-61881775D01*
G37*
G36*
X142592388Y-61955056D02*
G01*
X142602918Y-61955056D01*
X142644067Y-61963241D01*
X142745067Y-61979238D01*
X142777554Y-61989793D01*
X142804799Y-61995213D01*
X142843242Y-62011136D01*
X142901729Y-62030140D01*
X142956521Y-62058058D01*
X142994967Y-62073983D01*
X143018064Y-62089416D01*
X143048498Y-62104923D01*
X143131226Y-62165028D01*
X143166113Y-62188339D01*
X143173558Y-62195784D01*
X143181772Y-62201752D01*
X143298247Y-62318227D01*
X143304214Y-62326440D01*
X143311661Y-62333887D01*
X143334974Y-62368778D01*
X143395076Y-62451501D01*
X143410581Y-62481932D01*
X143426017Y-62505033D01*
X143441943Y-62543483D01*
X143469859Y-62598270D01*
X143488860Y-62656749D01*
X143504787Y-62695201D01*
X143510207Y-62722451D01*
X143520761Y-62754932D01*
X143536757Y-62855924D01*
X143544944Y-62897082D01*
X143544944Y-62907612D01*
X143546532Y-62917638D01*
X143546532Y-63082361D01*
X143544944Y-63092386D01*
X143544944Y-63102918D01*
X143536756Y-63144079D01*
X143520761Y-63245067D01*
X143510207Y-63277546D01*
X143504787Y-63304799D01*
X143488858Y-63343253D01*
X143469859Y-63401729D01*
X143441945Y-63456511D01*
X143426017Y-63494967D01*
X143410579Y-63518070D01*
X143395076Y-63548498D01*
X143334983Y-63631208D01*
X143311661Y-63666113D01*
X143304211Y-63673562D01*
X143298247Y-63681772D01*
X143181772Y-63798247D01*
X143173562Y-63804211D01*
X143166113Y-63811661D01*
X143131208Y-63834983D01*
X143048498Y-63895076D01*
X143018070Y-63910579D01*
X142994967Y-63926017D01*
X142956511Y-63941945D01*
X142901729Y-63969859D01*
X142843253Y-63988858D01*
X142804799Y-64004787D01*
X142777546Y-64010207D01*
X142745067Y-64020761D01*
X142644076Y-64036756D01*
X142602918Y-64044944D01*
X142592388Y-64044944D01*
X142582362Y-64046532D01*
X142417638Y-64046532D01*
X142407612Y-64044944D01*
X142397082Y-64044944D01*
X142355924Y-64036757D01*
X142254932Y-64020761D01*
X142222451Y-64010207D01*
X142195201Y-64004787D01*
X142156749Y-63988860D01*
X142098270Y-63969859D01*
X142043483Y-63941943D01*
X142005033Y-63926017D01*
X141981932Y-63910581D01*
X141951501Y-63895076D01*
X141868778Y-63834974D01*
X141833887Y-63811661D01*
X141826440Y-63804214D01*
X141818227Y-63798247D01*
X141701752Y-63681772D01*
X141695784Y-63673558D01*
X141688339Y-63666113D01*
X141665028Y-63631226D01*
X141604923Y-63548498D01*
X141589416Y-63518064D01*
X141573983Y-63494967D01*
X141558058Y-63456521D01*
X141530140Y-63401729D01*
X141511136Y-63343242D01*
X141495213Y-63304799D01*
X141489793Y-63277554D01*
X141479238Y-63245067D01*
X141463241Y-63144069D01*
X141455056Y-63102918D01*
X141455056Y-63092387D01*
X141453468Y-63082361D01*
X141453468Y-62917638D01*
X141455056Y-62907611D01*
X141455056Y-62897082D01*
X141463240Y-62855934D01*
X141479238Y-62754932D01*
X141489794Y-62722443D01*
X141495213Y-62695201D01*
X141511135Y-62656761D01*
X141530140Y-62598270D01*
X141558060Y-62543472D01*
X141573983Y-62505033D01*
X141589414Y-62481938D01*
X141604923Y-62451501D01*
X141665036Y-62368761D01*
X141688339Y-62333887D01*
X141695782Y-62326443D01*
X141701752Y-62318227D01*
X141818227Y-62201752D01*
X141826443Y-62195782D01*
X141833887Y-62188339D01*
X141868761Y-62165036D01*
X141951501Y-62104923D01*
X141981938Y-62089414D01*
X142005033Y-62073983D01*
X142043472Y-62058060D01*
X142098270Y-62030140D01*
X142156761Y-62011135D01*
X142195201Y-61995213D01*
X142222443Y-61989794D01*
X142254932Y-61979238D01*
X142355934Y-61963240D01*
X142397082Y-61955056D01*
X142407612Y-61955056D01*
X142417638Y-61953468D01*
X142582362Y-61953468D01*
X142592388Y-61955056D01*
G37*
G36*
X156761256Y-61873754D02*
G01*
X156924257Y-61941271D01*
X157070954Y-62039291D01*
X157195709Y-62164046D01*
X157293729Y-62310743D01*
X157361246Y-62473744D01*
X157395666Y-62646785D01*
X157395666Y-62823215D01*
X157361246Y-62996256D01*
X157293729Y-63159257D01*
X157195709Y-63305954D01*
X157070954Y-63430709D01*
X156924257Y-63528729D01*
X156761256Y-63596246D01*
X156588215Y-63630666D01*
X156411785Y-63630666D01*
X156238744Y-63596246D01*
X156075743Y-63528729D01*
X155929046Y-63430709D01*
X155804291Y-63305954D01*
X155706271Y-63159257D01*
X155638754Y-62996256D01*
X155604334Y-62823215D01*
X155604334Y-62646785D01*
X155638754Y-62473744D01*
X155706271Y-62310743D01*
X155804291Y-62164046D01*
X155929046Y-62039291D01*
X156075743Y-61941271D01*
X156238744Y-61873754D01*
X156411785Y-61839334D01*
X156588215Y-61839334D01*
X156761256Y-61873754D01*
G37*
M02*
